<svg xmlns="http://www.w3.org/2000/svg" xmlns:xlink="http://www.w3.org/1999/xlink" version="1.1" width="1560" height="804"><defs/><g><path fill="none" stroke="#02063B" paint-order="fill stroke markers" d=" M 188 584.9223058514452 L 189 580.1169261762404 L 190 575.2762134358254 L 191 570.4011278826736 L 192 565.4926365877952 L 193 560.5517132488998 L 194 555.5793379972429 L 195 550.5764972031982 L 196 545.5441832805907 L 197 540.4833944898318 L 198 535.395134739894 L 199 530.2804133891659 L 200 525.140245045225 L 201 519.9756493635707 L 202 514.7876508453544 L 203 509.5772786341503 L 204 504.34556631180277 L 205 499.0935516933955 L 206 493.82227662137996 L 207 488.53278675890476 L 208 483.2261313823876 L 209 477.9033631733704 L 210 472.5655380096984 L 211 467.21371475606594 L 212 461.8489550539693 L 213 456.4723231111087 L 214 451.08488549028175 L 215 445.68771089780864 L 216 440.28186997153347 L 217 434.86843506844144 L 218 429.44848005193535 L 219 424.02308007881334 L 220 418.5933113859898 L 221 413.1602510770024 L 222 407.72497690834695 L 223 402.2885670756826 L 224 396.8520999999503 L 225 391.4166541134462 L 226 385.98330764589355 L 227 380.5531384105532 L 228 375.12722359041834 L 229 369.70663952453384 L 230 364.2924614944822 L 231 358.88576351108054 L 232 353.4876181013284 L 233 348.0990960956509 L 234 342.72126641547794 L 235 337.3551958612022 L 236 332.00194890055775 L 237 326.66258745746165 L 238 321.3381707013602 L 239 316.02975483712095 L 240 310.73839289551387 L 241 305.4651345243211 L 242 300.2110257801186 L 243 294.9771089207694 L 244 289.7644221986715 L 245 284.5739996547992 L 246 279.4068709135802 L 247 274.26406097864947 L 248 269.14659002951885 L 249 264.0554732192038 L 250 258.99172047284844 L 251 253.9563362873851 L 252 248.9503195322734 L 253 243.97466325135395 L 254 239.0303544658583 L 255 234.11837397861353 L 256 229.23969617948018 L 257 224.3952888520627 L 258 219.5861129817299 L 259 214.8131225649845 L 260 210.07726442021854 L 261 205.37947799989306 L 262 200.72069520417892 L 263 196.10184019609568 L 264 191.52382921818523 L 265 186.98757041075672 L 266 182.49396363173892 L 267 178.0439002781751 L 268 173.63826310939666 L 269 169.27792607191006 L 270 164.9637541260321 L 271 160.69660307430746 L 272 156.47731939174346 L 273 152.30674005789436 L 274 148.18569239083018 L 275 144.114993883021 L 276 140.09545203917122 L 277 136.12786421603477 L 278 132.21301746424353 L 279 128.35168837217986 L 280 124.54464291192471 L 281 120.79263628731195 L 282 117.09641278411812 L 283 113.45670562241884 L 284 109.87423681113967 L 285 106.34971700483106 L 286 102.88384536269649 L 287 99.47730940989851 L 288 96.13078490117675 L 289 92.84493568679596 L 290 89.6204135808602 L 291 86.45785823201044 L 292 83.35789699653918 L 293 80.32114481394018 L 294 77.34820408492448 L 295 74.43966455192032 L 296 71.59610318208786 L 297 68.81808405286432 L 298 66.10615824006942 L 299 63.46086370858728 L 300 60.88272520565124 L 301 58.37225415674868 L 302 55.92994856417096 L 303 53.55629290822287 L 304 51.25175805111803 L 305 49.01680114357242 L 306 46.85186553412069 L 307 44.757380681167774 L 308 42.73376206779835 L 309 40.78141111935685 L 310 38.90071512381655 L 311 37.092047154953775 L 312 35.3557659983407 L 313 33.69221608017341 L 314 32.10172739894773 L 315 30.58461545999785 L 316 29.14118121290892 L 317 27.77171099181828 L 318 26.476476458614798 L 319 25.255734549049805 L 320 24.109727421768127 L 321 23.038682410271747 L 322 22.04281197782302 L 323 21.122313675298756 L 324 20.27737010200167 L 325 19.50814886943874 L 326 18.814802568071343 L 327 18.197468737046506 L 328 17.65626983691277 L 329 17.1913132253282 L 330 16.802691135763325 L 331 16.49048065920516 L 332 16.254743728864412 L 333 16.095527107889893 L 334 16.012862380092315 L 335 16.00676594367843 L 336 16.0772390079988 L 337 16.224267593307502 L 338 16.44782253353526 L 339 16.7478594820754 L 340 17.124318920580606 L 341 17.577126170769702 L 342 18.10619140924166 L 343 18.711409685293745 L 344 19.392660941740644 L 345 20.14981003873021 L 346 20.98270678055104 L 347 21.891185945427253 L 348 22.875067318292906 L 349 23.934155726541746 L 350 25.06824107874337 L 351 26.277098406319283 L 352 27.56048790816959 L 353 28.918154998242812 L 354 30.349830356037614 L 355 31.855229980028582 L 356 33.43405524400282 L 357 35.08599295629904 L 358 36.81071542193547 L 359 38.607880507614084 L 360 40.47713170959048 L 361 42.418098224392565 L 362 44.43039502237798 L 363 46.513622924111246 L 364 48.66736867955018 L 365 50.89120505002137 L 366 53.1846908929723 L 367 55.547371249479966 L 368 57.978777434502206 L 369 60.47842712984965 L 370 63.04582447986422 L 371 65.680460189781 L 372 68.38181162675829 L 373 71.14934292355093 L 374 73.98250508481186 L 375 76.88073609599473 L 376 79.84346103484216 L 377 82.87009218543216 L 378 85.96002915476407 L 379 89.11265899185798 L 380 92.3273563093457 L 381 95.60348340753023 L 382 98.94039040088444 L 383 102.33741534697037 L 384 105.79388437774776 L 385 109.3091118332502 L 386 112.88240039759847 L 387 116.51304123732865 L 388 120.20031414200145 L 389 123.94348766707259 L 390 127.74181927898735 L 391 131.59455550247912 L 392 135.50093207003425 L 393 139.46017407350178 L 394 143.4714961178102 L 395 147.5341024767681 L 396 151.64718725091063 L 397 155.80993452736766 L 398 160.02151854171456 L 399 164.28110384178112 L 400 168.5878454533782 L 401 172.94088904791735 L 402 177.339371111882 L 403 181.78241911812486 L 404 186.26915169894903 L 405 190.79867882094607 L 406 195.37010196155273 L 407 199.9825142872889 L 408 204.63500083364843 L 409 209.32663868659867 L 410 214.056497165661 L 411 218.8236380085278 L 412 223.62711555718795 L 413 228.46597694551457 L 414 233.33926228828764 L 415 238.24600487160413 L 416 243.1852313446473 L 417 248.15596191276813 L 418 253.15721053184959 L 419 258.18798510390593 L 420 263.2472876738874 L 421 268.33411462764263 L 422 273.4474568910076 L 423 278.58630012997367 L 424 283.74962495190323 L 425 288.9364071077447 L 426 294.1456176952146 L 427 299.3762233628995 L 428 304.62718651524256 L 429 309.8974655183724 L 430 315.18601490672995 L 431 320.4917855904599 L 432 325.8137250635166 L 433 331.1507776124515 L 434 336.5018845258335 L 435 341.8659843042672 L 436 347.24201287096093 L 437 352.6289037828097 L 438 358.02558844194306 L 439 363.43099630770575 L 440 368.84405510901826 L 441 374.2636910570857 L 442 379.6888290584029 L 443 385.1183929280235 L 444 390.5513056030399 L 445 395.9864893562433 L 446 401.4228660099094 L 447 406.8593571496796 L 448 412.2948843384836 L 449 417.728369330471 L 450 423.15873428490147 L 451 428.58490197995644 L 452 434.0057960264292 L 453 439.4203410812455 L 454 444.8274630607823 L 455 450.2260893539312 L 456 455.61514903487483 L 457 460.993573075524 L 458 466.3602945575834 L 459 471.7142488841937 L 460 477.05437399111815 L 461 482.379610557422 L 462 487.68890221561225 L 463 492.9811957611872 L 464 498.25544136156304 L 465 503.51059276432636 L 466 508.7456075047824 L 467 513.959447112746 L 468 519.1510773185455 L 469 524.3194682581884 L 470 529.4635946776582 L 471 534.5824361362911 L 472 539.674977209204 L 473 544.7402076887217 L 474 549.7771227847742 L 475 554.7847233242147 L 476 559.7620159490269 L 477 564.7080133133783 L 478 569.6217342794776 L 479 574.5022041122061 L 480 579.3484546724728 L 481 584.1595246092674 L 482 588.9344595503604 L 483 593.6723122916251 L 484 598.3721429849315 L 485 603.0330193245868 L 486 607.6540167322745 L 487 612.2342185404653 L 488 616.7727161742544 L 489 621.2686093315973 L 490 625.7210061619013 L 491 630.1290234429437 L 492 634.4917867560744 L 493 638.8084306596767 L 494 643.0780988608428 L 495 647.2999443852392 L 496 651.4731297451181 L 497 655.5968271054526 L 498 659.6702184481526 L 499 663.6924957343356 L 500 667.662861064618 L 501 671.5805268373937 L 502 675.444715905071 L 503 679.2546617282353 L 504 683.0096085277079 L 505 686.708811434469 L 506 690.3515366374191 L 507 693.9370615289431 L 508 697.4646748482562 L 509 700.9336768224946 L 510 704.343379305531 L 511 707.6931059144815 L 512 710.9821921638804 L 513 714.2099855974927 L 514 717.3758459177441 L 515 720.4791451127346 L 516 723.5192675808194 L 517 726.4956102527236 L 518 729.4075827111753 L 519 732.2546073080248 L 520 735.0361192788343 L 521 737.7515668549091 L 522 740.4004113727522 L 523 742.9821273809198 L 524 745.496202744254 L 525 747.9421387454761 L 526 750.3194501841162 L 527 752.6276654727635 L 528 754.866326730614 L 529 757.0349898743013 L 530 759.133224705989 L 531 761.1606149987092 L 532 763.116758578929 L 533 765.0012674063305 L 534 766.8137676507858 L 535 768.5538997665142 L 536 770.2213185634042 L 537 771.8156932754905 L 538 773.3367076265667 L 539 774.784059892926 L 540 776.1574629632133 L 541 777.4566443953802 L 542 778.6813464707286 L 543 779.8313262450357 L 544 780.906355596745 L 545 781.9062212722206 L 546 782.8307249280489 L 547 783.6796831703848 L 548 784.4529275913318 L 549 785.1503048023478 L 550 785.7716764646744 L 551 786.316919316778 L 552 786.7859251988016 L 553 787.1786010740207 L 554 787.4948690472985 L 555 787.7346663805386 L 556 787.8979455051294 L 557 787.9846740313817 L 558 787.9948347549524 L 559 787.9284256602582 L 560 787.785459920875 L 561 787.5659658969253 L 562 787.2699871294514 L 563 786.897582331779 L 564 786.44882537787 L 565 785.9238052876678 L 566 785.322626209439 L 567 784.6454073991131 L 568 783.8922831966254 L 569 783.0634029992686 L 570 782.158931232057 L 571 781.1790473151084 L 572 780.1239456280534 L 573 778.9938354714766 L 574 777.7889410253965 L 575 776.5095013047962 L 576 775.1557701122085 L 577 773.7280159873706 L 578 772.2265221539529 L 579 770.6515864633764 L 580 769.0035213357271 L 581 767.2826536977823 L 582 765.4893249181573 L 583 763.6238907395889 L 584 761.686721208365 L 585 759.6782006009211 L 586 757.5987273476087 L 587 755.4487139536611 L 588 753.2285869173621 L 589 750.9387866454438 L 590 748.5797673657219 L 591 746.1519970369911 L 592 743.6559572561953 L 593 741.0921431628936 L 594 738.4610633410402 L 595 735.7632397180953 L 596 732.9992074614912 L 597 730.16951487247 L 598 727.2747232773188 L 599 724.315406916018 L 600 721.29215282833 L 601 718.205560737347 L 602 715.0562429305253 L 603 711.844824138225 L 604 708.5719414097831 L 605 705.2382439871395 L 606 701.8443931760502 L 607 698.3910622149017 L 608 694.8789361411623 L 609 691.3087116554885 L 610 687.6810969835237 L 611 683.9968117354058 L 612 680.2565867630183 L 613 676.4611640150097 L 614 672.6112963896163 L 615 668.7077475853073 L 616 664.7512919492906 L 617 660.7427143239056 L 618 656.682809890933 L 619 652.5723840138562 L 620 648.4122520781003 L 621 644.2032393292848 L 622 639.9461807095171 L 623 635.6419206917687 L 624 631.2913131123546 L 625 626.8952210015591 L 626 622.4545164124336 L 627 617.9700802478116 L 628 613.4428020855607 L 629 608.8735800021196 L 630 604.2633203943425 L 631 599.6129377997019 L 632 594.9233547148689 L 633 590.1955014127187 L 634 585.4303157577904 L 635 580.6287430202452 L 636 575.7917356883521 L 637 570.920253279543 L 638 566.0152621500711 L 639 561.077735303318 L 640 556.1086521967775 L 641 551.10899854776 L 642 546.0797661378572 L 643 541.0219526161991 L 644 535.9365613015548 L 645 530.8246009833007 L 646 525.6870857213094 L 647 520.5250346447864 L 648 515.339471750111 L 649 510.13142569770196 L 650 504.9019296079643 L 651 499.6520208563462 L 652 494.38274086755877 L 653 489.0951349089859 L 654 483.790251883336 L 655 478.46914412056805 L 656 473.13286716914524 L 657 467.78247958664303 L 658 462.4190427297641 L 659 457.04362054379453 L 660 451.65727935155286 L 661 446.2610876418609 L 662 440.85611585758886 L 663 435.4434361833088 L 664 430.0241223326094 L 665 424.5992493351007 L 666 419.1698933231609 L 667 413.73713131846495 L 668 408.30204101833243 L 669 402.86570058194934 L 670 397.4291884164905 L 671 391.99358296319724 L 672 386.5599624834444 L 673 381.1294048448495 L 674 375.70298730745344 L 675 370.28178631002567 L 676 364.8668772565282 L 677 359.45933430279183 L 678 354.060230143433 L 679 348.67063579906477 L 680 343.29162040383557 L 681 337.924250993349 L 682 332.56959229299343 L 683 327.22870650673354 L 684 321.90265310639813 L 685 316.59248862151685 L 686 311.2992664297335 L 687 306.02403654784825 L 688 300.7678454235263 L 689 295.5317357277114 L 690 290.31674614779524 L 691 285.12391118156995 L 692 279.95426093201655 L 693 274.80882090296035 L 694 269.68861179564567 L 695 264.594649306257 L 696 259.527943924436 L 697 254.4895007328285 L 698 249.48031920770998 L 699 244.50139302071665 L 700 239.5537098417322 L 701 234.638251142961 L 702 229.75599200423733 L 703 224.90790091959613 L 704 220.094939605154 L 705 215.31806280833118 L 706 210.57821811846176 L 707 205.876345778818 L 708 201.21337850009542 L 709 196.59024127538848 L 710 192.00785119670326 L 711 187.46711727303142 L 712 182.9689402500308 L 713 178.5142124313448 L 714 174.1038175015938 L 715 169.73863035108232 L 716 165.41951690224423 L 717 161.14733393787117 L 718 156.92292893114998 L 719 152.74713987755308 L 720 148.62079512860262 L 721 144.54471322755177 L 722 140.51970274700795 L 723 136.5465621285394 L 724 132.6260795242863 L 725 128.75903264061594 L 726 124.94618858384689 L 727 121.18830370808149 L 728 117.48612346516529 L 729 113.84038225681326 L 730 110.25180328892412 L 731 106.72109842812102 L 732 103.2489680605367 L 733 99.83610095287855 L 734 96.4831741157962 L 735 93.1908526695857 L 736 89.95978971224758 L 737 86.79062618993237 L 738 83.68399076979637 L 739 80.64049971529118 L 740 77.66075676391847 L 741 74.74535300746402 L 742 71.89486677474434 L 743 69.10986351688183 L 744 66.39089569513823 L 745 63.73850267132161 L 746 61.153210600793784 L 747 58.63553232809551 L 748 56.18596728521533 L 749 53.80500139251609 L 750 51.49310696234346 L 751 49.25074260533211 L 752 47.07835313943281 L 753 44.97636950167282 L 754 42.945208662671234 L 755 40.985273543923654 L 756 39.09695293787604 L 757 37.28062143079916 L 758 35.53663932848167 L 759 33.86535258475698 L 760 32.26709273287503 L 761 30.742176819737722 L 762 29.290907343005188 L 763 27.913572191089713 L 764 26.610444586046754 L 765 25.38178302937689 L 766 24.22783125074585 L 767 23.148818159636676 L 768 22.144957799939846 L 769 21.216449307494656 L 770 20.363476870585885 L 771 19.58620969340643 L 772 18.884801962492133 L 773 18.259392816136426 L 774 17.710106316788597 L 775 17.237051426444225 L 776 16.840321985029846 L 777 16.51999669178838 L 778 16.276139089667197 L 779 16.108797552713327 L 780 16.01800527647731 L 781 16.003780271428468 L 782 16.06612535938183 L 783 16.205028172938626 L 784 16.420461157939428 L 785 16.712381578930376 L 786 17.080731527640125 L 787 17.525437934467504 L 788 18.04641258297619 L 789 18.643552127394344 L 790 19.316738113115093 L 791 20.065837000194506 L 792 20.890700189841823 L 793 21.791164053897376 L 794 22.767049967290973 L 795 23.81816434347604 L 796 24.944298672831394 L 797 26.14522956402351 L 798 27.420718788320073 L 799 28.77051332684823 L 800 30.194345420784884 L 801 31.691932624473623 L 802 33.26297786145176 L 803 34.90716948338252 L 804 36.624181331876116 L 805 38.41367280319065 L 806 40.27528891579675 L 807 42.20866038079566 L 808 44.213403675175186 L 809 46.2891211178889 L 810 48.43540094874504 L 811 50.65181741008604 L 812 52.937930831246945 L 813 55.29328771577258 L 814 57.717420831378604 L 815 60.20984930263478 L 816 62.77007870635748 L 817 65.39760116968768 L 818 68.09189547083912 L 819 70.85242714249125 L 820 73.67864857781245 L 821 76.56999913908874 L 822 79.52590526893846 L 823 82.54578060408693 L 824 85.6290260916848 L 825 88.77503010814144 L 826 91.98316858045428 L 827 95.25280511000398 L 828 98.5832910987981 L 829 101.97396587813358 L 830 105.42415683965288 L 831 108.93317956877121 L 832 112.5003379804412 L 833 116.12492445723717 L 834 119.80621998972418 L 835 123.5434943190902 L 836 127.33600608200425 L 837 131.18300295768296 L 838 135.08372181712758 L 839 139.03738887450743 L 840 143.04321984065342 L 841 147.10042007863913 L 842 151.2081847614123 L 843 155.36569903145005 L 844 159.57213816239963 L 845 163.82666772268112 L 846 168.12844374101272 L 847 172.4766128738316 L 848 176.87031257456852 L 849 181.30867126475317 L 850 185.79080850690835 L 851 190.31583517920464 L 852 194.8828536518321 L 853 199.49095796506543 L 854 204.13923400897866 L 855 208.82675970477672 L 856 213.55260518771047 L 857 218.31583299153053 L 858 223.11549823445495 L 859 227.9506488066042 L 860 232.82032555887372 L 861 237.72356249319668 L 862 242.65938695417168 L 863 247.62681982200695 L 864 252.62487570675108 L 865 257.6525631437612 L 866 262.70888479038217 L 867 267.7928376237885 L 868 272.9034131399562 L 869 278.03959755371653 L 870 283.2003719998626 L 871 288.3847127352608 L 872 293.5915913419332 L 873 298.8199749310612 L 874 304.06882634788207 L 875 309.3371043774282 L 876 314.62376395107583 L 877 319.927756353851 L 878 325.24802943246624 L 879 330.5835278040354 L 880 335.9331930654293 L 881 341.2959640032341 L 882 346.6707768042602 L 883 352.05656526657333 L 884 357.45226101099615 L 885 362.8567936930452 L 886 368.269091215251 L 887 373.6880799398332 L 888 379.1126849016763 L 889 384.5418300215737 L 890 389.97443831968513 L 891 395.4094321291804 L 892 400.84573331001445 L 893 406.2822634628009 L 894 411.7179441427303 L 895 417.15169707350367 L 896 422.58244436122914 L 897 428.00910870824663 L 898 433.4306136268269 L 899 438.8458836527178 L 900 444.25384455848314 L 901 449.6534235665964 L 902 455.04354956225103 L 903 460.4231533058328 L 904 465.79116764502805 L 905 471.14652772651317 L 906 476.4881712071926 L 907 481.8150384649315 L 908 487.126072808756 L 909 492.42022068846774 L 910 497.69643190363905 L 911 502.95365981193754 L 912 508.1908615367513 L 913 513.4069981740628 L 914 518.6010349985393 L 915 523.7719416687871 L 916 528.9186924317434 L 917 534.0402663261534 L 918 539.1356473851013 L 919 544.2038248375433 L 920 549.2437933088178 L 921 554.2545530200795 L 922 559.2351099866285 L 923 564.1844762150834 L 924 569.1016698993718 L 925 573.9857156154909 L 926 578.8356445150018 L 927 583.6504945172221 L 928 588.4293105000709 L 929 593.1711444895379 L 930 597.875055847733 L 931 602.5401114594822 L 932 607.1653859174266 L 933 611.7499617055975 L 934 616.2929293814233 L 935 620.7933877561379 L 936 625.250444073546 L 937 629.6632141871215 L 938 634.0308227353947 L 939 638.3524033156 L 940 642.6270986555407 L 941 646.854060783649 L 942 651.0324511971958 L 943 655.1614410286282 L 944 659.240211209988 L 945 663.2679526353924 L 946 667.2438663215353 L 947 671.1671635661841 L 948 675.0370661046311 L 949 678.8528062640802 L 950 682.6136271159296 L 951 686.3187826259236 L 952 689.9675378021445 L 953 693.5591688408115 L 954 697.0929632698623 L 955 700.5682200902858 L 956 703.9842499151814 L 957 707.3403751065097 L 958 710.6359299095175 L 959 713.8702605848023 L 960 717.0427255379975 L 961 720.1526954470414 L 962 723.199553387019 L 963 726.1826949525394 L 964 729.1015283776339 L 965 731.955474653143 L 966 734.7439676415743 L 967 737.4664541894081 L 968 740.1223942368272 L 969 742.7112609248463 L 970 745.2325406998272 L 971 747.6857334153511 L 972 750.0703524314335 L 973 752.3859247110593 L 974 754.6319909140175 L 975 756.8081054880222 L 976 758.9138367570964 L 977 760.9487670072037 L 978 762.9124925691092 L 979 764.8046238984571 L 980 766.6247856530429 L 981 768.3726167672717 L 982 770.0477705237818 L 983 771.6499146222229 L 984 773.1787312451752 L 985 774.6339171211948 L 986 776.0151835849729 L 987 777.3222566345992 L 988 778.5548769859151 L 989 779.7128001239489 L 990 780.7957963514189 L 991 781.8036508342989 L 992 782.7361636444355 L 993 783.5931497992073 L 994 784.37443929822 L 995 785.0798771570292 L 996 785.7093234378851 L 997 786.2626532774915 L 998 786.7397569117754 L 999 787.1405396976609 L 1000 787.4649221318423 L 1001 787.7128398665574 L 1002 787.8842437223503 L 1003 787.9790996978279 L 1004 787.9973889764049 L 1005 787.9391079300359 L 1006 787.8042681199356 L 1007 787.592896294285 L 1008 787.3050343829257 L 1009 786.9407394890422 L 1010 786.5000838778343 L 1011 785.9831549621815 L 1012 785.3900552853037 L 1013 784.7209025004188 L 1014 783.9758293474047 L 1015 783.1549836264664 L 1016 782.2585281688188 L 1017 781.286640804384 L 1018 780.2395143265162 L 1019 779.1173564537567 L 1020 777.9203897886296 L 1021 776.6488517734829 L 1022 775.3029946433885 L 1023 773.8830853761048 L 1024 772.3894056391174 L 1025 770.8222517337645 L 1026 769.1819345364592 L 1027 767.468779437021 L 1028 765.6831262741288 L 1029 763.8253292679063 L 1030 761.8957569496563 L 1031 759.8947920887533 L 1032 757.8228316167158 L 1033 755.6802865484656 L 1034 753.467581900795 L 1035 751.1851566080559 L 1036 748.8334634350891 L 1037 746.4129688874089 L 1038 743.9241531186626 L 1039 741.3675098353813 L 1040 738.7435461990449 L 1041 736.0527827254757 L 1042 733.2957531815834 L 1043 730.4730044794827 L 1044 727.5850965680004 L 1045 724.6326023216002 L 1046 721.6161074267411 L 1047 718.5362102656948 L 1048 715.3935217978429 L 1049 712.1886654384837 L 1050 708.922276935163 L 1051 705.5950042415627 L 1052 702.2075073889633 L 1053 698.7604583553169 L 1054 695.2545409319448 L 1055 691.6904505878947 L 1056 688.0688943319783 L 1057 684.3905905725258 L 1058 680.6562689748719 L 1059 676.866670316614 L 1060 673.0225463406616 L 1061 669.1246596061164 L 1062 665.1737833370012 L 1063 661.1707012688762 L 1064 657.1162074933677 L 1065 653.011106300647 L 1066 648.8562120198814 L 1067 644.6523488576953 L 1068 640.4003507346745 L 1069 636.1010611199376 L 1070 631.7553328638211 L 1071 627.3640280286968 L 1072 622.928017717966 L 1073 618.448181903256 L 1074 613.9254092498635 L 1075 609.3605969404682 L 1076 604.7546504971592 L 1077 600.1084836018046 L 1078 595.4230179148072 L 1079 590.6991828922737 L 1080 585.937915601638 L 1081 581.1401605357739 L 1082 576.306869425639 L 1083 571.4390010514774 L 1084 566.5375210526279 L 1085 561.6034017359673 L 1086 556.6376218830377 L 1087 551.6411665558832 L 1088 546.6150269016439 L 1089 541.5601999559399 L 1090 536.4776884450928 L 1091 531.3685005872127 L 1092 526.2336498921977 L 1093 521.0741549606856 L 1094 515.8910392819907 L 1095 510.68533103107814 L 1096 505.45806286460254 L 1097 500.2102717160606 L 1098 494.9429985900926 L 1099 489.65728835598156 L 1100 484.35418954038005 L 1101 479.0347541193154 L 1102 473.7000373095063 L 1103 468.3510973590433 L 1104 462.98899533746174 L 1105 457.61479492525825 L 1106 452.22956220288614 L 1107 446.83436543928053 L 1108 441.43027487994345 L 1109 436.0183625346404 L 1110 430.59970196474296 L 1111 425.1753680702704 L 1112 419.7464368766591 L 1113 414.3139853213121 L 1114 408.8790910399671 L 1115 403.4428321529238 L 1116 398.00628705118083 L 1117 392.57053418251235 L 1118 387.136651837538 L 1119 381.7057179358196 L 1120 376.27880981203805 L 1121 370.8570040022796 L 1122 365.4413760304851 L 1123 360.0330001950952 L 1124 354.6329493559458 L 1125 349.24229472144214 L 1126 343.8621056360645 L 1127 338.49344936823945 L 1128 333.1373908986301 L 1129 327.79499270887254 L 1130 322.46731457081336 L 1131 317.1554133362795 L 1132 311.8603427274344 L 1133 306.58315312774903 L 1134 301.3248913736378 L 1135 296.0866005467955 L 1136 290.86931976728476 L 1137 285.674083987404 L 1138 280.501923786381 L 1139 275.3538651659443 L 1140 270.23092934678505 L 1141 265.1341325659882 L 1142 260.0644858754322 L 1143 255.02299494123042 L 1144 250.01065984424116 L 1145 245.02847488167353 L 1146 240.07742836985287 L 1147 235.15850244817187 L 1148 230.27267288425486 L 1149 225.42090888040477 L 1150 220.6041728813335 L 1151 215.82342038324575 L 1152 211.07959974430048 L 1153 206.37365199647803 L 1154 201.70651065891107 L 1155 197.07910155270596 L 1156 192.49234261727915 L 1157 187.9471437282751 L 1158 183.44440651706577 L 1159 178.9850241918978 L 1160 174.5698813607097 L 1161 170.1998538556446 L 1162 165.87580855932003 L 1163 161.59860323285685 L 1164 157.36908634572825 L 1165 153.18809690745215 L 1166 149.05646430115038 L 1167 144.975008119027 L 1168 140.94453799978902 L 1169 136.96585346803107 L 1170 133.03974377564174 L 1171 129.16698774523246 L 1172 125.3483536156458 L 1173 121.58459888956241 L 1174 117.87647018322969 L 1175 114.224703078358 L 1176 110.63002197620654 L 1177 107.09313995387674 L 1178 103.6147586228671 L 1179 100.19556798988759 L 1180 96.83624631998606 L 1181 93.53746000200312 L 1182 90.29986341637544 L 1183 87.12409880532903 L 1184 84.01079614547962 L 1185 80.96057302285902 L 1186 77.9740345104106 L 1187 75.0517730479553 L 1188 72.19436832467204 L 1189 69.40238716410681 L 1190 66.67638341172659 L 1191 64.01689782505866 L 1192 61.42445796641613 L 1193 58.899578098246764 L 1194 56.44275908112104 L 1195 54.05448827437249 L 1196 51.73523943942212 L 1197 49.48547264580003 L 1198 47.305634179877416 L 1199 45.19615645634116 L 1200 43.15745793241177 L 1201 41.18994302483594 L 1202 39.294002029663545 L 1203 37.470011044821774 L 1204 35.718331895510005 L 1205 34.03931206242595 L 1206 32.433284612832495 L 1207 30.900568134491095 L 1208 29.441466672459796 L 1209 28.056269668782022 L 1210 26.745251905070234 L 1211 25.508673447995193 L 1212 24.346779597699538 L 1213 23.25980083913487 L 1214 22.247952796341735 L 1215 21.311436189676954 L 1216 20.45043679599513 L 1217 19.665125411796737 L 1218 18.95565781934812 L 1219 18.32217475577727 L 1220 17.764801885157453 L 1221 17.28364977357785 L 1222 16.878813867211363 L 1223 16.550374473380828 L 1224 16.298396744628235 L 1225 16.12293066579059 L 1226 16.024011044084432 L 1227 16.001657502200885 L 1228 16.05587447441343 L 1229 16.186651205698013 L 1230 16.39396175386679 L 1231 16.677764994713925 L 1232 17.038004630173816 L 1233 17.474609199488498 L 1234 17.98749209338365 L 1235 18.57655157124941 L 1236 19.24167078132183 L 1237 19.982717783864018 L 1238 20.79954557733828 L 1239 21.69199212756638 L 1240 22.659880399873657 L 1241 23.70301839420557 L 1242 24.821199183216663 L 1243 26.014200953317697 L 1244 27.28178704867628 L 1245 28.623706018163716 L 1246 30.03969166523484 L 1247 31.52946310073213 L 1248 33.09272479860823 L 1249 34.72916665454676 L 1250 36.43846404748001 L 1251 38.220277903983174 L 1252 40.074254765535045 L 1253 42.00002685863603 L 1254 43.997212167762314 L 1255 46.06541451114464 L 1256 48.20422361936255 L 1257 50.41321521672535 L 1258 52.691951105439216 L 1259 55.03997925253151 L 1260 57.45683387951823 L 1261 59.94203555480476 L 1262 62.495091288786284 L 1263 65.1154946316459 L 1264 67.80272577381783 L 1265 70.55625164909964 L 1266 73.37552604040076 L 1267 76.2599896880937 L 1268 79.20907040095216 L 1269 82.22218316966178 L 1270 85.29873028286227 L 1271 88.43810144572109 L 1272 91.63967390099526 L 1273 94.90281255256536 L 1274 98.2268700914243 L 1275 101.61118712408182 L 1276 105.05509230336571 L 1277 108.55790246160296 L 1278 112.11892274613302 L 1279 115.7374467571517 L 1280 119.41275668783726 L 1281 123.14412346673879 L 1282 126.93080690240907 L 1283 130.77205583022834 L 1284 134.66710826142003 L 1285 138.61519153420318 L 1286 142.61552246706287 L 1287 146.66730751411578 L 1288 150.76974292252262 L 1289 154.9220148919262 L 1290 159.12329973589175 L 1291 163.3727640452934 L 1292 167.66956485364506 L 1293 172.01284980431677 L 1294 176.4017573196129 L 1295 180.8354167716905 L 1296 185.3129486552622 L 1297 189.8334647620604 L 1298 194.3960683570392 L 1299 198.99985435625052 L 1300 203.64390950639375 L 1301 208.32731256597452 L 1302 213.0491344880477 L 1303 217.808438604521 L 1304 222.6042808119521 L 1305 227.43570975883904 L 1306 232.3017670343363 L 1307 237.2014873583711 L 1308 242.13389877313335 L 1309 247.09802283587936 L 1310 252.0928748130219 L 1311 257.11746387548055 L 1312 262.1707932952223 L 1313 267.2518606429919 L 1314 272.35965798715927 L 1315 277.4931720936599 L 1316 282.6513846269972 L 1317 287.83327235224624 L 1318 293.0378073380291 L 1319 298.26395716043453 L 1320 303.5106851078096 L 1321 308.77695038642156 L 1322 314.06170832691606 L 1323 319.3639105915443 L 1324 324.68250538212993 L 1325 330.01643764871017 L 1326 335.3646492988223 L 1327 340.7260794074067 L 1328 346.09966442725204 L 1329 351.4843383999806 L 1330 356.87903316749833 L 1331 362.28267858388153 L 1332 367.6942027276712 L 1333 373.1125321144992 L 1334 378.53659191004505 L 1335 383.9653061432467 L 1336 389.3975979197371 L 1337 394.8323896354757 L 1338 400.2686031905087 L 1339 405.7051602028282 L 1340 411.14098222229984 L 1341 416.57499094458456 L 1342 422.006108425051 L 1343 427.43325729260397 L 1344 432.8553609633979 L 1345 438.2713438544074 L 1346 443.6801315967865 L 1347 449.08065124898724 L 1348 454.4718315096085 L 1349 459.8526029298996 L 1350 465.2218981259161 L 1351 470.57865199025275 L 1352 475.9218019033252 L 1353 481.25028794417085 L 1354 486.56305310069513 L 1355 491.8590434793601 L 1356 497.13720851424154 L 1357 502.39650117542584 L 1358 507.6358781767171 L 1359 512.8543001825901 L 1360 518.0507320143596 L 1361 523.2241428555374 L 1362 528.3735064563052 L 1363 533.4978013371019 L 1364 538.5960109912489 L 1365 543.6671240865926 L 1366 548.7101346661283 L 1367 553.7240423475497 L 1368 558.7078525216903 L 1369 563.6605765498324 L 1370 568.5812319598145 L 1371 573.4688426409323 L 1372 578.3224390375663 L 1373 583.1410583415089 L 1374 587.9237446829654 L 1375 592.6695493201604 L 1376 597.3775308275474 L 1377 602.0467552825569 L 1378 606.6762964508544 L 1379 611.265235970085 L 1380 615.8126635320451 L 1381 620.3176770632573 L 1382 624.7793829039225 L 1383 629.1968959851862 L 1384 633.5693400047176 L 1385 637.8958476005381 L 1386 642.1755605230774 L 1387 646.40762980543 L 1388 650.5912159317627 L 1389 654.7254890038452 L 1390 658.809628905685 L 1391 662.8428254662057 L 1392 666.8242786199671 L 1393 670.7531985658723 L 1394 674.6288059238362 L 1395 678.4503318893985 L 1396 682.2170183862279 L 1397 685.9281182164984 L 1398 689.5828952091185 L 1399 693.1806243657577 L 1400 696.7205920046705 L 1401 700.2020959022675 L 1402 703.6244454324121 L 1403 706.9869617034269 L 1404 710.288977692758 L 1405 713.5298383792984 L 1406 716.7089008733227 L 1407 719.8255345440134 L 1408 722.8791211445655 L 1409 725.8690549348246 L 1410 728.7947428014456 L 1411 731.6556043755547 L 1412 734.4510721478703 L 1413 737.1805915812852 L 1414 739.843621220868 L 1415 742.4396328012699 L 1416 744.9681113515207 L 1417 747.4285552971808 L 1418 749.8204765598373 L 1419 752.143400653929 L 1420 754.3968667808642 L 1421 756.5804279204344 L 1422 758.6936509194873 L 1423 760.7361165778501 L 1424 762.7074197314901 L 1425 764.6071693328827 L 1426 766.4349885285874 L 1427 768.1905147340022 L 1428 769.8733997052891 L 1429 771.4833096084566 L 1430 773.0199250855821 L 1431 774.4829413181619 L 1432 775.8720680875795 L 1433 777.1870298326746 L 1434 778.4275657044084 L 1435 779.5934296176065 L 1436 780.6843902997748 L 1437 781.7002313369783 L 1438 782.6407512167707 L 1439 783.5057633681668 L 1440 784.2950961986555 L 1441 785.0085931282359 L 1442 785.6461126204802 L 1443 786.2075282106086 L 1444 786.6927285305773 L 1445 787.10161733117 L 1446 787.4341135010911 L 1447 787.6901510830558 L 1448 787.8696792868736 L 1449 787.9726624995241 L 1450 787.9990802922212 L 1451 787.948927424466 L 1452 787.8222138450857 L 1453 787.6189646902606 L 1454 787.3392202785376 L 1455 786.9830361028323 L 1456 786.5504828194207 L 1457 786.0416462339233 L 1458 785.4566272842839 L 1459 784.7955420207458 L 1460 784.0585215828323 L 1461 783.2457121733313 L 1462 782.3572750292938 L 1463 781.3933863900484 L 1464 780.3542374622416 L 1465 779.2400343819081 L 1466 778.0509981735793 L 1467 776.7873647064375 L 1468 775.4493846475294 L 1469 774.037323412038 L 1470 772.5514611106349 L 1471 770.9920924939128 L 1472 769.3595268939162 L 1473 767.6540881627807 L 1474 765.8761146084878 L 1475 764.025958927758 L 1476 762.1039881360825 L 1477 760.1105834949213 L 1478 758.0461404360719 L 1479 755.9110684832261 L 1480 753.7057911707332 L 1481 751.4307459595852 L 1482 749.086384150635 L 1483 746.6731707950746 L 1484 744.19158460218 L 1485 741.6421178443507 L 1486 739.02527625946 L 1487 736.3415789505277 L 1488 733.5915582827474 L 1489 730.7757597778834 L 1490 727.894742006051 L 1491 724.9490764749175 L 1492 721.9393475163288 L 1493 718.8661521703958 L 1494 715.7301000670632 L 1495 712.5318133051711 L 1496 709.2719263290559 L 1497 705.9510858026895 L 1498 702.5699504814033 L 1499 699.1291910812131 L 1500 695.6294901457645 L 1501 692.0715419109388 L 1502 688.4560521671401 L 1503 684.7837381192812 L 1504 681.05532824452 L 1505 677.2715621477431 L 1506 673.4331904148548 L 1507 669.5409744638853 L 1508 665.5956863939427 L 1509 661.5981088320543 L 1510 657.5490347779205 L 1511 653.4492674465994 L 1512 649.2996201091815 L 1513 645.1009159314546 L 1514 640.8539878106141 L 1515 636.5596782100455 L 1516 632.2188389921969 L 1517 627.8323312496034 L 1518 623.4010251340651 L 1519 618.9257996840378 L 1520 614.4075426502618 L 1521 609.8471503196516 L 1522 605.2455273375035 L 1523 600.6035865280433 L 1524 595.9222487133426 L 1525 591.2024425306637 L 1526 586.4451042482377 L 1527 581.6511775795408 L 1528 576.821613496093 L 1529 571.9573700388067 L 1530 567.0594121279439 L 1531 562.1287113717083 L 1532 557.166245873499 L 1533 552.1730000378934 L 1534 547.1499643753633 L 1535 542.0981353057894 L 1536 537.0185149608064 L 1537 531.9121109850023 L 1538 526.7799363360353 L 1539 521.6230090836976" stroke-linecap="round" stroke-linejoin="round" stroke-miterlimit="10" stroke-width="16"/></g></svg>