<svg xmlns="http://www.w3.org/2000/svg" xmlns:xlink="http://www.w3.org/1999/xlink" version="1.1" width="1560" height="804"><defs/><g><path fill="none" stroke="#02063B" paint-order="fill stroke markers" d=" M 44 606.442257967413 L 45 609.9321123494586 L 46 613.3479453915988 L 47 616.6885410982095 L 48 619.9527102572567 L 49 623.1392908636413 L 50 626.247148532859 L 51 629.2751769048273 L 52 632.2222980377373 L 53 635.0874627917874 L 54 637.8696512026642 L 55 640.5678728446384 L 56 643.1811671831439 L 57 645.708603916717 L 58 648.149283308172 L 59 650.5023365048976 L 60 652.7669258481571 L 61 654.9422451712859 L 62 657.0275200866763 L 63 659.0220082614508 L 64 660.9249996817232 L 65 662.7358169053555 L 66 664.453815303119 L 67 666.0783832881745 L 68 667.6089425337899 L 69 669.0449481792177 L 70 670.385889023659 L 71 671.6312877082444 L 72 672.7807008859684 L 73 673.8337193795155 L 74 674.7899683269227 L 75 675.6491073150254 L 76 676.4108305006407 L 77 677.0748667194441 L 78 677.6409795824999 L 79 678.1089675604139 L 80 678.4786640550751 L 81 678.749937458962 L 82 678.922691201994 L 83 678.9968637859092 L 84 678.9724288061567 L 85 678.8493949612964 L 86 678.6278060499025 L 87 678.3077409549717 L 88 677.8893136158417 L 89 677.3726729876305 L 90 676.7580029882095 L 91 676.0455224327318 L 92 675.235484955736 L 93 674.3281789208553 L 94 673.3239273181641 L 95 672.2230876491969 L 96 671.0260517996821 L 97 669.7332459000356 L 98 668.3451301736632 L 99 666.8621987731267 L 100 665.2849796042317 L 101 663.614034138099 L 102 661.8499572112883 L 103 659.9933768140424 L 104 658.044953866732 L 105 656.005381984574 L 106 653.8753872307138 L 107 651.6557278577557 L 108 649.3471940378336 L 109 646.9506075813192 L 110 644.4668216442678 L 111 641.8967204247044 L 112 639.2412188478604 L 113 636.5012622404704 L 114 633.6778259942482 L 115 630.771915218658 L 116 627.7845643831083 L 117 624.7168369486928 L 118 621.5698249896111 L 119 618.3446488044033 L 120 615.0424565171373 L 121 611.6644236686901 L 122 608.2117527982698 L 123 604.6856730153253 L 124 601.0874395619992 L 125 597.4183333662752 L 126 593.6796605859847 L 127 589.8727521438288 L 128 585.9989632535869 L 129 582.0596729376759 L 130 578.0562835362356 L 131 573.9902202079115 L 132 569.8629304225167 L 133 565.6758834457482 L 134 561.4305698161479 L 135 557.1285008144872 L 136 552.77120792577 L 137 548.3602422940418 L 138 543.8971741702018 L 139 539.3835923530114 L 140 534.8211036235019 L 141 530.2113321729789 L 142 525.5559190248305 L 143 520.8565214503413 L 144 516.1148123787254 L 145 511.33247980158194 L 146 506.5112261719919 L 147 501.6527677984639 L 148 496.7588342339499 L 149 491.83116766014433 L 150 486.8715222672889 L 151 481.8816636297015 L 152 476.86336807725314 L 153 471.8184220630155 L 154 466.7486215273055 L 155 461.65577125835154 L 156 456.54168424981117 L 157 451.40818105536624 L 158 446.25708914062864 L 159 441.0902422325832 L 160 435.9094796668042 L 161 430.716645732673 L 162 425.51358901683324 L 163 420.3021617451168 L 164 415.0842191231725 L 165 409.86161867603636 L 166 404.63621958687384 L 167 399.40988203513393 L 168 394.18446653434654 L 169 388.961833269803 L 170 383.74384143635126 L 171 378.5323485765461 L 172 373.329209919385 L 173 368.13627771986995 L 174 362.95540059962576 L 175 357.7884228888141 L 176 352.637183969573 L 177 347.50351762121966 L 178 342.38925136744626 L 179 337.2962058257443 L 180 332.2261940592857 L 181 327.18102093149486 L 182 322.16248246353797 L 183 317.17236519496214 L 184 312.2124455477076 L 185 307.28448919372374 L 186 302.39025042641026 L 187 297.5314715361105 L 188 292.7098821898761 L 189 287.92719881572737 L 190 283.1851239916241 L 191 278.48534583936964 L 192 273.8295374236586 L 193 269.21935615648675 L 194 264.6564432071314 L 195 260.1424229179157 L 196 255.67890222596142 L 197 251.26747009113913 L 198 246.90969693041717 L 199 242.60713405881256 L 200 238.3613131371406 L 201 234.17374562676298 L 202 230.04592225152473 L 203 225.97931246707512 L 204 221.97536393775846 L 205 218.0355020212636 L 206 214.16112926121286 L 207 210.35362488787425 L 208 206.61434432717107 L 209 202.94461871816742 L 210 199.34575443919778 L 211 195.81903264281289 L 212 192.36570879970387 L 213 188.9870122517705 L 214 185.68414577448974 L 215 182.45828514874242 L 216 179.31057874224865 L 217 176.2421471007637 L 218 173.25408254917642 L 219 170.34744880265498 L 220 167.5232805879766 L 221 164.78258327517773 L 222 162.12633251965423 L 223 159.5554739148397 L 224 157.07092265558512 L 225 154.67356321236133 L 226 152.36424901639745 L 227 150.14380215586993 L 228 148.01301308324864 L 229 145.97264033390576 L 230 144.02341025608592 L 231 142.16601675233517 L 232 140.40112103247964 L 233 138.7293513782431 L 234 137.15130291958621 L 235 135.66753742284715 L 236 134.27858309075958 L 237 132.9849343744189 L 238 131.78705179726376 L 239 130.68536179113482 L 240 129.68025654447024 L 241 128.77209386269158 L 242 127.96119704082923 L 243 127.24785474843299 L 244 126.63232092680948 L 245 126.11481469862196 L 246 125.69552028988522 L 247 125.37458696438364 L 248 125.15212897053448 L 249 125.0282255007175 L 250 125.00292066308288 L 251 125.07622346584958 L 252 125.24810781409838 L 253 125.51851251906129 L 254 125.88734131990424 L 255 126.35446291799451 L 256 126.91971102364181 L 257 127.58288441529498 L 258 128.34374701117486 L 259 129.20202795331625 L 260 130.1574217039905 L 261 131.20958815447278 L 262 132.35815274611713 L 263 133.6027066036944 L 264 134.94280668094768 L 265 136.37797591831065 L 266 137.90770341273543 L 267 139.53144459956798 L 268 141.24862144640645 L 269 143.05862265887407 L 270 144.9608038982322 L 271 146.95448801075753 L 272 149.0389652688004 L 273 151.21349362343992 L 274 153.47729896864368 L 275 155.8295754168407 L 276 158.26948558580767 L 277 160.7961608967673 L 278 163.40870188359125 L 279 166.1061785129998 L 280 168.88763051564237 L 281 171.7520677279423 L 282 174.69847044458245 L 283 177.72578978150875 L 284 180.8329480493198 L 285 184.01883913691233 L 286 187.2823289052422 L 287 190.62225559106523 L 288 194.0374302205105 L 289 197.5266370323415 L 290 201.08863391075167 L 291 204.7221528275432 L 292 208.42590029352974 L 293 212.19855781900355 L 294 216.03878238310116 L 295 219.94520691190326 L 296 223.91644076509638 L 297 227.95107023102491 L 298 232.04765902995427 L 299 236.2047488253701 L 300 240.42085974312832 L 301 244.6944908982731 L 302 249.02412092933307 L 303 253.40820853990826 L 304 257.8451930473529 L 305 262.33349493836056 L 306 266.8715164312506 L 307 271.4576420447604 L 308 276.09023917313647 L 309 280.76765866732376 L 310 285.4882354220416 L 311 290.250288968542 L 312 295.05212407283597 L 313 299.89203133917727 L 314 304.7682878185858 L 315 309.6791576221974 L 316 314.62289253921904 L 317 319.5977326592721 L 318 324.60190699889756 L 319 329.63363413200614 L 320 334.69112282404427 L 321 339.772572669652 L 322 344.87617473358654 L 323 350.0001121946801 L 324 355.1425609926076 L 325 360.3016904772296 L 326 365.4756640602828 L 327 370.662639869182 L 328 375.86077140270584 L 329 381.06820818832836 L 330 386.2830964409661 L 331 391.5035797229019 L 332 396.7277996046555 L 333 401.9538963265617 L 334 407.18000946082327 L 335 412.40427857379984 L 336 417.62484388830063 L 337 422.83984694564253 L 338 428.0474312672401 L 339 433.245743015488 L 340 438.4329316537063 L 341 443.60715060490867 L 342 448.7665579091625 L 343 453.9093168793034 L 344 459.0335967547745 L 345 464.13757335335504 L 346 469.2194297205482 L 347 474.2773567763936 L 348 479.30955395947933 L 349 484.31422986791927 L 350 489.2896028970722 L 351 494.23390187377 L 352 499.1453666868349 L 353 504.0222489136577 L 354 508.86281244261613 L 355 513.6653340911084 L 356 518.4281042189865 L 357 523.1494273371669 L 358 527.8276227112057 L 359 532.461024959618 L 360 537.0479846467357 L 361 541.5868688698847 L 362 546.0760618406815 L 363 550.5139654602316 L 364 554.8989998880351 L 365 559.2296041043909 L 366 563.504236466101 L 367 567.7213752552764 L 368 571.8795192210513 L 369 575.9771881140092 L 370 580.0129232131359 L 371 583.9852878451046 L 372 587.8928678957155 L 373 591.7342723133034 L 374 595.5081336039353 L 375 599.2131083182221 L 376 602.84787752957 L 377 606.4111473037028 L 378 609.901649159287 L 379 613.3181405194965 L 380 616.6594051543539 L 381 619.9242536136944 L 382 623.1115236505963 L 383 626.2200806351264 L 384 629.2488179582543 L 385 632.1966574257931 L 386 635.0625496422222 L 387 637.8454743842609 L 388 640.5444409640546 L 389 643.1584885818484 L 390 645.6866866680198 L 391 648.128135214351 L 392 650.4819650944207 L 393 652.7473383730025 L 394 654.9234486043597 L 395 657.0095211193312 L 396 659.0048133011035 L 397 660.9086148495734 L 398 662.7202480342071 L 399 664.4390679353036 L 400 666.0644626735782 L 401 667.5958536279848 L 402 669.0326956416973 L 403 670.3744772161798 L 404 671.6207206932731 L 405 672.7709824252356 L 406 673.8248529326768 L 407 674.781957050327 L 408 675.6419540605912 L 409 676.4045378148408 L 410 677.0694368423989 L 411 677.6364144471809 L 412 678.1052687919546 L 413 678.4758329701924 L 414 678.7479750654884 L 415 678.921598198518 L 416 678.9966405615271 L 417 678.9730754403336 L 418 678.8509112238382 L 419 678.630191401038 L 420 678.3109945455444 L 421 677.8934342876125 L 422 677.3776592736895 L 423 676.7638531134987 L 424 676.0522343146768 L 425 675.243056204987 L 426 674.3366068421385 L 427 673.3332089112407 L 428 672.2332196099306 L 429 671.0370305212167 L 430 669.7450674740776 L 431 668.3577903918739 L 432 666.8756931286202 L 433 665.2993032931793 L 434 663.6291820614389 L 435 661.8659239765414 L 436 660.0101567372317 L 437 658.0625409744059 L 438 656.0237700159331 L 439 653.8945696398391 L 440 651.6756978159397 L 441 649.3679444360104 L 442 646.9721310325956 L 443 644.4891104865533 L 444 641.9197667234381 L 445 639.2650143988362 L 446 636.5257985727577 L 447 633.7030943732062 L 448 630.797906649047 L 449 627.8112696122906 L 450 624.7442464699267 L 451 621.5979290454358 L 452 618.3734373901115 L 453 615.0719193843377 L 454 611.6945503289551 L 455 608.242532526869 L 456 604.7170948550447 L 457 601.1194923270403 L 458 597.4510056462378 L 459 593.7129407499289 L 460 589.9066283444147 L 461 586.0334234312934 L 462 582.0947048250929 L 463 578.0918746624304 L 464 574.0263579028705 L 465 569.8996018216532 L 466 565.7130754944835 L 467 561.4682692745588 L 468 557.1666942620179 L 469 552.8098817660111 L 470 548.39938275957 L 471 543.9367673274799 L 472 539.4236241073504 L 473 534.8615597240771 L 474 530.252198217903 L 475 525.5971804662815 L 476 520.8981635997403 L 477 516.1568204119666 L 478 511.3748387643091 L 479 506.55392098492143 L 480 501.6957832627546 L 481 496.80215503661157 L 482 491.8747783794909 L 483 486.91540737842695 L 484 481.925807510057 L 485 476.9077550121341 L 486 471.86303625120524 L 487 466.79344708668714 L 488 461.70079223156375 L 489 456.58688460992647 L 490 451.4535447115988 L 491 446.3025999440603 L 492 441.1358839819132 L 493 435.95523611411716 L 494 430.762500589222 L 495 425.55952595883855 L 496 420.348164419578 L 497 415.1302711536884 L 498 409.9077036686365 L 499 404.6823211358533 L 500 399.45598372889316 L 501 394.2305519612357 L 502 389.00788602396227 L 503 383.78984512355186 L 504 378.5782868200271 L 505 373.37506636568185 L 506 368.18203604463775 L 507 363.0010445134495 L 508 357.8339361430069 L 509 352.68255036196234 L 510 347.5487210019135 L 511 342.43427564458256 L 512 337.3410349712203 L 513 332.2708121144626 L 514 327.22541201288004 L 515 322.2066307684387 L 516 317.2162550071103 L 517 312.25606124285673 L 518 307.32781524520897 L 519 302.4332714106762 L 520 297.5741721382027 L 521 292.75224720889173 L 522 287.96921317022765 L 523 283.22677272500255 L 524 278.52661412517574 L 525 273.87041057087777 L 526 269.25981961476833 L 527 264.6964825719689 L 528 260.1820239357754 L 529 255.71805079935527 L 530 251.30615228364456 L 531 246.94789897163733 L 532 242.64484234927812 L 533 238.39851425315263 L 534 234.21042632516952 L 535 230.08206947443725 L 536 226.0149133465154 L 537 222.01040580023985 L 538 218.06997239230324 L 539 214.19501586977194 L 540 210.3869156707258 L 541 206.64702743319583 L 542 202.9766825125709 L 543 199.37718750765393 L 544 195.84982379552596 L 545 192.39584707539228 L 546 189.01648692156965 L 547 185.71294634577043 L 548 182.48640136884597 L 549 179.33800060213818 L 550 176.26886483858542 L 551 173.28008665373616 L 552 170.37273001680308 L 553 167.54782991190362 L 554 164.8063919696189 L 555 162.14939210899965 L 556 159.57777619015152 L 557 157.09245967752108 L 558 154.69432731399945 L 559 152.38423280596666 L 560 150.16299851938055 L 561 148.0314151870252 L 562 145.99024162702005 L 563 144.04020447268857 L 564 142.1819979138861 L 565 140.41628344987708 L 566 138.74368965384804 L 567 137.16481194914456 L 568 135.6802123973062 L 569 134.29041949798022 L 570 132.99592800078227 L 571 131.79719872917053 L 572 130.69465841639868 L 573 129.68869955360424 L 574 128.77968025008556 L 575 127.9679241058202 L 576 127.25372009626648 L 577 126.63732246949189 L 578 126.1189506556641 L 579 125.69878918893596 L 580 125.37698764175394 L 581 125.15366057161214 L 582 125.02888748027084 L 583 125.00271278545512 L 584 125.07514580504272 L 585 125.24616075374666 L 586 125.5156967522949 L 587 125.8836578491024 L 588 126.34991305442867 L 589 126.91429638700885 L 590 127.57660693314068 L 591 128.33660891820756 L 592 129.19403179061163 L 593 130.14857031808657 L 594 131.19988469635683 L 595 132.347600670104 L 596 133.59130966619665 L 597 134.93056893913842 L 598 136.36490172867934 L 599 137.8937974295368 L 600 139.5167117731654 L 601 141.23306702150978 L 602 143.0422521726719 L 603 144.9436231784216 L 604 146.93650317346862 L 605 149.02018271641984 L 606 151.1939200423313 L 607 153.45694132676707 L 608 155.80844096127268 L 609 158.24758184016142 L 610 160.7734956585134 L 611 163.38528322128312 L 612 166.08201476340034 L 613 168.8627302807569 L 614 171.72643987195613 L 615 174.67212409070493 L 616 177.69873430872607 L 617 180.8051930890565 L 618 183.9903945696011 L 619 187.25320485680842 L 620 190.5924624293208 L 621 194.00697855146402 L 622 197.49553769642245 L 623 201.05689797895047 L 624 204.68979159747127 L 625 208.3929252853976 L 626 212.16498077151843 L 627 216.00461524928983 L 628 219.91046185485555 L 629 223.88113015363635 L 630 227.91520663530721 L 631 232.01125521698876 L 632 236.16781775447788 L 633 240.3834145613286 L 634 244.65654493560126 L 635 248.9856876940974 L 636 253.3693017138795 L 637 257.805826480895 L 638 262.2936826454996 L 639 266.8312725846853 L 640 271.4169809708181 L 641 276.04917534667203 L 642 280.72620670656704 L 643 285.44641008339426 L 644 290.20810514132285 L 645 295.0095967739821 L 646 299.84917570789764 L 647 304.7251191109711 L 648 309.6356912057906 L 649 314.57914388754324 L 650 319.5537173463226 L 651 324.55764069359884 L 652 329.5891325926318 L 653 334.64640189260905 L 654 339.7276482662722 L 655 344.83106285081055 L 656 349.9548288917981 L 657 355.09712238993217 L 658 360.25611275035885 L 659 365.4299634343416 L 660 370.61683261304495 L 661 375.8148738232071 L 662 381.02223662445687 L 663 386.23706725804686 L 664 391.4575093067729 L 665 396.68170435583227 L 666 401.9077926544005 L 667 407.13391377767914 L 668 412.35820728918304 L 669 417.57881340303635 L 670 422.7938736460325 L 671 428.0015315192272 L 672 433.19993315883306 L 673 438.3872279961687 L 674 443.5615694164429 L 675 448.7211154161257 L 676 453.86402925867793 L 677 458.9884801284105 L 678 464.09264378223156 L 679 469.1747031990533 L 680 474.2328492266334 L 681 479.2652812256075 L 682 484.2702077104989 L 683 489.24584698746384 L 684 494.1904277885526 L 685 499.1021899022617 L 686 503.97938480014733 L 687 508.82027625927856 L 688 513.6231409803155 L 689 518.3862692009795 L 690 523.1079653047111 L 691 527.786548424288 L 692 532.4203530401919 L 693 537.0077295735173 L 694 541.5470449731977 L 695 546.0366832973552 L 696 550.4750462885561 L 697 554.8605539427687 L 698 559.1916450718294 L 699 563.4667778592053 L 700 567.6844304088613 L 701 571.8431012870396 L 702 575.9413100567489 L 703 579.9775978047851 L 704 583.9505276610855 L 705 587.8586853102369 L 706 591.700679494956 L 707 595.4751425113602 L 708 599.1807306958525 L 709 602.8161249034517 L 710 606.3800309773898 L 711 609.8711802098187 L 712 613.2883297934538 L 713 616.6302632639977 L 714 619.8957909331886 L 715 623.0837503123142 L 716 626.1930065260433 L 717 629.2224527164288 L 718 632.171010436935 L 719 635.0376300363523 L 720 637.8212910324604 L 721 640.5210024753067 L 722 643.135803299974 L 723 645.6647626687077 L 724 648.1069803022821 L 725 650.4615868004903 L 726 652.7277439516386 L 727 654.9046450309418 L 728 656.9915150877059 L 729 658.9876112212022 L 730 660.8922228451304 L 731 662.7046719405798 L 732 664.4243132973944 L 733 666.0505347438616 L 734 667.5827573646366 L 735 669.0204357068303 L 736 670.363057974184 L 737 671.6101462092615 L 738 672.7612564635981 L 739 673.8159789557392 L 740 674.7739382171185 L 741 675.6347932257204 L 742 676.3982375274791 L 743 677.0639993453732 L 744 677.6318416761749 L 745 678.1015623748199 L 746 678.4729942263691 L 747 678.7460050055354 L 748 678.920497523753 L 749 678.996409663777 L 750 678.9737144017952 L 751 678.8524198170492 L 752 678.6325690889569 L 753 678.3142404817431 L 754 677.8975473165764 L 755 677.3826379312297 L 756 676.7696956272728 L 757 676.0589386048197 L 758 675.2506198848521 L 759 674.3450272191462 L 760 673.3424829878377 L 761 672.243344084657 L 762 671.0480017898806 L 763 669.7568816310388 L 764 668.3704432314344 L 765 666.8891801465206 L 766 665.3136196882027 L 767 663.6443227371207 L 768 661.881883542982 L 769 660.0269295130172 L 770 658.0801209886288 L 771 656.042151010319 L 772 653.9137450709748 L 773 651.6956608576008 L 774 649.3886879815938 L 775 646.9936476976478 L 776 644.5113926113991 L 777 641.9428063759085 L 778 639.2888033770906 L 779 636.550328408205 L 780 633.7283563335194 L 781 630.8238917412705 L 782 627.8379685860432 L 783 624.7716498206939 L 784 621.6260270179528 L 785 618.4022199818373 L 786 615.1013763490141 L 787 611.724671180256 L 788 608.2733065421327 L 789 604.7485110790899 L 790 601.1515395760681 L 791 597.4836725118118 L 792 593.7462156030359 L 793 589.9404993396067 L 794 586.0678785109012 L 795 582.1297317235213 L 796 578.1274609105241 L 797 574.0624908323506 L 798 569.9362685696303 L 799 565.750263008035 L 800 561.5059643153753 L 801 557.2048834111172 L 802 552.848551428513 L 803 548.4385191695385 L 804 543.9763565528224 L 805 539.4636520547765 L 806 534.9020121441176 L 807 530.2930607099812 L 808 525.63843848384 L 809 520.9398024554198 L 810 516.1988252828324 L 811 511.4171946971313 L 812 506.59661290149603 L 813 501.73879596527 L 814 496.84547321306206 L 815 491.91838660912396 L 816 486.95929013723594 L 817 481.96994917630616 L 818 476.9521398719184 L 819 471.90764850404696 L 820 466.8382708511595 L 821 461.74581155094285 L 822 456.63208345787507 L 823 451.49890699786783 L 824 446.3481095202201 L 825 441.1815246471004 L 826 436.0009916208011 L 827 430.8083546489911 L 828 425.6054622481977 L 829 420.3941665857576 L 830 415.17632282046975 L 831 409.9537884421771 L 832 404.7284226105266 L 833 399.50208549312725 L 834 394.276637603354 L 835 389.05393913802914 L 836 383.83584931521096 L 837 378.6242257123367 L 838 373.42092360494786 L 839 368.22779530623154 L 840 363.0466895076229 L 841 357.8794506206895 L 842 352.7279181205447 L 843 347.59392589101776 L 844 342.47930157181037 L 845 337.3858659078804 L 846 332.31543210127967 L 847 327.2698051656726 L 848 322.2507812837769 L 849 317.2601471679404 L 850 312.29967942409496 L 851 307.3711439193047 L 852 302.47629515314213 L 853 297.6168756331017 L 854 292.79461525429184 L 855 288.01123068361204 L 856 283.2684247486391 L 857 278.5678858314447 L 858 273.91128726754584 L 859 269.3002867502214 L 860 264.73652574039227 L 861 260.2216288822806 L 862 255.75720342505542 L 863 251.34483865067472 L 864 246.98610530811447 L 865 242.68255505420476 L 866 238.4357199012574 L 867 234.2471116716872 L 868 230.11822145982458 L 869 226.05051910109884 L 870 222.0454526487979 L 871 218.10444785857752 L 872 214.2289076809089 L 873 210.42021176164792 L 874 206.67971595089347 L 875 203.00875182032388 L 876 199.40862618917268 L 877 195.88062065901667 L 878 192.42599115754035 L 879 189.0459674914434 L 880 185.7417529086403 L 881 182.51452366992118 L 882 179.3654286302163 L 883 176.29558882961683 L 884 173.30609709430067 L 885 170.39801764749558 L 886 167.57238573063094 L 887 164.83020723480357 L 888 162.1724583426922 L 889 159.60008518105005 L 890 157.11400348389185 L 891 154.71509826650586 L 892 152.40422351039834 L 893 150.1822018592863 L 894 148.04982432624598 L 895 146.00785001212316 L 896 144.0570058352999 L 897 142.1979862729221 L 898 140.4314531136734 L 899 138.75803522218604 L 900 137.17832831517399 L 901 135.69289474936278 L 902 134.3022633212987 L 903 133.00692907910337 L 904 131.80735314624195 L 905 130.70396255737006 L 906 129.69715010631273 L 907 128.78727420623585 L 908 127.97465876205479 L 909 127.25959305512833 L 910 126.6423316402782 L 911 126.12309425517003 L 912 125.70206574208981 L 913 125.37939598214211 L 914 125.15519984189422 L 915 125.02955713248502 L 916 125.00251258121335 L 917 125.07407581561517 L 918 125.24422136003687 L 919 125.51288864470371 L 920 125.8799820272825 L 921 126.34537082692862 L 922 126.90888937080706 L 923 127.5703370530702 L 924 128.32947840627054 L 925 129.18604318518499 L 926 130.1397264630179 L 927 131.1901887399526 L 928 132.33705606400838 L 929 133.57992016416318 L 930 134.91833859569329 L 931 136.35183489767837 L 932 137.87989876261508 L 933 139.50198621808175 L 934 141.21751982038518 L 935 143.02588886012376 L 936 144.92644957959328 L 937 146.9185254019553 L 938 149.0014071720927 L 939 151.17435340905888 L 940 153.43659057003654 L 941 155.78731332570993 L 942 158.22568484695088 L 943 160.75083710272241 L 944 163.36187116908573 L 945 166.05785754920674 L 946 168.8378365042459 L 947 171.70081839501404 L 948 174.6457840342702 L 949 177.6716850495431 L 950 180.77744425633705 L 951 183.96195604159738 L 952 187.22408675729582 L 953 190.5626751239935 L 954 193.9765326442457 L 955 197.46444402569082 L 956 201.02516761368008 L 957 204.65743583329245 L 958 208.35995564057365 L 959 212.13140898284803 L 960 215.97045326792707 L 961 219.8757218420567 L 962 223.84582447643038 L 963 227.8793478620909 L 964 231.974856113056 L 965 236.13089127747347 L 966 240.3459738566353 L 967 244.61860333166166 L 968 248.9472586976682 L 969 253.33039900522238 L 970 257.766463908908 L 971 262.2538742227862 L 972 266.7910324825672 L 973 271.3763235142899 L 974 276.0081150093005 L 975 280.6847581053402 L 976 285.404587973517 L 977 290.1659244109654 L 978 294.9670724389798 L 979 299.80632290640284 L 980 304.6819530980679 L 981 309.5922273480618 L 982 314.5353976576017 L 983 319.509704317302 L 984 324.5133765336103 L 985 329.54463305918546 L 986 334.6016828270054 L 987 339.6827255879621 L 988 344.7859525517297 L 989 349.9095470306727 L 990 355.05168508656163 L 991 360.2105361798786 L 992 365.38426382146395 L 993 370.5710262262849 L 994 375.7689769690903 L 995 380.9762656417119 L 996 386.19103851179307 L 997 391.41143918269177 L 998 396.6356092543363 L 999 401.86168898479343 L 1000 407.0878179523153 L 1001 412.3121357176232 L 1002 417.5327824862078 L 1003 422.7478997703896 L 1004 427.9556310509191 L 1005 433.15412243787677 L 1006 438.3415233306314 L 1007 443.51598707663777 L 1008 448.67567162881886 L 1009 453.8187402013135 L 1010 458.9433619233512 L 1011 464.04771249101606 L 1012 469.12997481668333 L 1013 474.1883396758765 L 1014 479.22100635133074 L 1015 484.2261832740278 L 1016 489.2020886609688 L 1017 494.1469511494738 L 1018 499.0590104277617 L 1019 503.9365178616009 L 1020 508.77773711680265 L 1021 513.5809447773355 L 1022 518.3444309588374 L 1023 523.0664999173197 L 1024 527.7454706528277 L 1025 532.3796775078577 L 1026 536.9674707603114 L 1027 541.5072172107746 L 1028 545.9973007639213 L 1029 550.4361230038205 L 1030 554.822103762955 L 1031 559.1536816847415 L 1032 563.4293147793528 L 1033 567.647480972652 L 1034 571.8066786480296 L 1035 575.9054271809615 L 1036 579.942267466094 L 1037 583.9157624366684 L 1038 587.8244975760964 L 1039 591.6670814215158 L 1040 595.4421460591315 L 1041 599.1483476111771 L 1042 602.7843667143198 L 1043 606.348908989336 L 1044 609.8407055018977 L 1045 613.258513214296 L 1046 616.6011154279483 L 1047 619.8673222165285 L 1048 623.0559708495646 L 1049 626.1659262063599 L 1050 629.1960811800809 L 1051 632.1453570718736 L 1052 635.0127039748679 L 1053 637.7971011479325 L 1054 640.4975573790439 L 1055 643.1131113381496 L 1056 645.6428319193881 L 1057 648.0858185725511 L 1058 650.4412016236705 L 1059 652.7081425846085 L 1060 654.8858344515529 L 1061 656.9735019922991 L 1062 658.9704020222234 L 1063 660.8758236688489 L 1064 662.689088624905 L 1065 664.4095513898003 L 1066 666.03659949941 L 1067 667.5696537441079 L 1068 669.0081683749565 L 1069 670.3516312979879 L 1070 671.5995642565031 L 1071 672.7515230013255 L 1072 673.8070974489483 L 1073 674.7659118275194 L 1074 675.6276248106117 L 1075 676.3919296387305 L 1076 677.0585542285176 L 1077 677.6272612696084 L 1078 678.0978483091126 L 1079 678.470147823684 L 1080 678.7440272791574 L 1081 678.9193891777292 L 1082 678.9961710926652 L 1083 678.9743456905239 L 1084 678.8539207408871 L 1085 678.6349391135933 L 1086 678.3174787634775 L 1087 677.9016527026193 L 1088 677.387608960113 L 1089 676.7755305293697 L 1090 676.0656353029749 L 1091 675.2581759951213 L 1092 674.353440051645 L 1093 673.3517495476983 L 1094 672.2534610730953 L 1095 671.0589656053696 L 1096 669.7686883705921 L 1097 668.383088691994 L 1098 666.9026598264542 L 1099 665.3279287889056 L 1100 663.6594561647244 L 1101 661.897835910168 L 1102 660.043695140934 L 1103 658.0976939089138 L 1104 656.060524967223 L 1105 653.9329135235894 L 1106 651.7156169821865 L 1107 649.4094246740094 L 1108 647.0151575758796 L 1109 644.5336680181883 L 1110 641.965839381477 L 1111 639.3125857819643 L 1112 636.5748517461332 L 1113 633.7536118744874 L 1114 630.8498704946089 L 1115 627.8646613036269 L 1116 624.7990470002349 L 1117 621.654118906384 L 1118 618.430996578783 L 1119 615.130827410351 L 1120 611.7547862217591 L 1121 608.3040748432072 L 1122 604.7799216865906 L 1123 601.1835813081948 L 1124 597.516333962092 L 1125 593.7794851443849 L 1126 589.9743651284662 L 1127 586.1023284914559 L 1128 582.1647536319915 L 1129 578.1630422795299 L 1130 574.0986189953516 L 1131 569.9729306654332 L 1132 565.7874459853724 L 1133 561.5436549375536 L 1134 557.2430682607264 L 1135 552.8872169122048 L 1136 548.4776515228638 L 1137 544.0159418451315 L 1138 539.503676194181 L 1139 534.9424608825032 L 1140 530.3339196480822 L 1141 525.6796930763637 L 1142 520.9814380162258 L 1143 516.2408269901596 L 1144 511.45954759887564 L 1145 506.6393019205321 L 1146 501.7818059048192 L 1147 496.88878876210083 L 1148 491.9619923478356 L 1149 487.00317054250047 L 1150 482.0140886272253 L 1151 476.99652265537713 L 1152 471.95225882030576 L 1153 466.8830928194795 L 1154 461.7908292152419 L 1155 456.6772807924039 L 1156 451.5442679129174 L 1157 446.3936178678478 L 1158 441.22716422688 L 1159 436.04674618558863 L 1160 430.85420791071044 L 1161 425.6513978836372 L 1162 420.440168242382 L 1163 415.22237412224024 L 1164 409.9998729953816 L 1165 404.7745240096171 L 1166 399.54818732655815 L 1167 394.3227234594256 L 1168 389.0999926107285 L 1169 383.8818540100529 L 1170 378.6701652522026 L 1171 373.4667816359116 L 1172 368.27355550338433 L 1173 363.09233558088243 L 1174 357.92496632059976 L 1175 352.77328724406357 L 1176 347.6391322872804 L 1177 342.52432914788164 L 1178 337.4306986344833 L 1179 332.3600540185004 L 1180 327.314200388643 L 1181 322.2949340083301 L 1182 317.30404167623556 L 1183 312.3433000902133 L 1184 307.4144752148128 L 1185 302.51932165261627 L 1186 297.6595820196246 L 1187 292.83698632490183 L 1188 288.05325135471577 L 1189 283.3100800613822 L 1190 278.6091609570333 L 1191 273.95216751253076 L 1192 269.3407575617254 L 1193 264.77657271129146 L 1194 260.2612377563333 L 1195 255.7963601019781 L 1196 251.383529191158 L 1197 247.0243159387905 L 1198 242.7202721725469 L 1199 238.47293008042362 L 1200 234.28380166530047 L 1201 230.15437820668535 L 1202 226.08612972983937 L 1203 222.0805044824611 L 1204 218.1389284191307 L 1205 214.2628046936865 L 1206 210.45351315971823 L 1207 206.71240987935857 L 1208 203.04082664053715 L 1209 199.4400704828825 L 1210 195.91142323243136 L 1211 192.45614104531356 L 1212 189.07545396057517 L 1213 185.77056546230168 L 1214 182.54265205118833 L 1215 179.39286282572263 L 1216 176.32231907311817 L 1217 173.33211387014953 L 1218 170.4233116940321 L 1219 167.59694804347774 L 1220 164.85402907007168 L 1221 162.19553122009427 L 1222 159.6224008869172 L 1223 157.13555407410078 L 1224 154.73587606930474 L 1225 152.42422112913837 L 1226 150.2014121750549 L 1227 148.068240500401 L 1228 146.0254654887273 L 1229 144.07381434345467 L 1230 142.21398182899998 L 1231 140.44663002344817 L 1232 138.77238808286 L 1233 137.1918520173001 L 1234 135.70558447866551 L 1235 134.3141145603866 L 1236 133.01793760907725 L 1237 131.81751504819738 L 1238 130.71327421379124 L 1239 129.70560820236182 L 1240 128.79487573093195 L 1241 127.98140100934626 L 1242 127.2654736248561 L 1243 126.64734843902966 L 1244 126.12724549702511 L 1245 125.70534994925612 L 1246 125.38181198548125 L 1247 125.15674678133797 L 1248 125.03023445734152 L 1249 125.00232005036298 L 1250 125.07301349759672 L 1251 125.24228963302272 L 1252 125.51008819636559 L 1253 125.87631385454637 L 1254 126.34083623562009 L 1255 126.90348997518635 L 1256 127.56407477525727 L 1257 128.32235547556132 L 1258 129.1780621372573 L 1259 130.13089013902947 L 1260 131.1805002855287 L 1261 132.32651892812265 L 1262 133.56853809790977 L 1263 134.90611565095128 L 1264 136.33877542566938 L 1265 137.86600741235515 L 1266 139.4872679347248 L 1267 141.20197984346368 L 1268 143.00953272168323 L 1269 144.90928310222267 L 1270 146.90055469671555 L 1271 148.98263863633906 L 1272 151.1547937241652 L 1273 153.41624669901617 L 1274 155.7661925107367 L 1275 158.20379460678265 L 1276 160.72818523002192 L 1277 163.33846572764813 L 1278 166.03370687108873 L 1279 168.81294918679936 L 1280 171.67520329782576 L 1281 174.61945027600777 L 1282 177.64464200470883 L 1283 180.74970155193083 L 1284 183.93352355368944 L 1285 187.1949746075105 L 1286 190.53289367590835 L 1287 193.9460924996988 L 1288 197.43335602100876 L 1289 200.99344281581995 L 1290 204.62508553590138 L 1291 208.32699135997112 L 1292 212.0978424539222 L 1293 215.93629643995993 L 1294 219.84098687446962 L 1295 223.81052373445476 L 1296 227.84349391236935 L 1297 231.93846171916414 L 1298 236.0939693953793 L 1299 240.3085376300864 L 1300 244.58066608750593 L 1301 248.9088339411091 L 1302 253.29150041501433 L 1303 257.7271053324821 L 1304 262.21406967132395 L 1305 266.7507961260119 L 1306 271.33566967630134 L 1307 275.96705816215945 L 1308 280.64331286479137 L 1309 285.3627690935692 L 1310 290.12374677863875 L 1311 294.9245510690051 L 1312 299.7634729358798 L 1313 304.6387897810717 L 1314 309.54876605021593 L 1315 314.49165385060735 L 1316 319.4656935734301 L 1317 324.4691145201573 L 1318 329.50013553289955 L 1319 334.55696562847163 L 1320 339.6378046359673 L 1321 344.7408438375943 L 1322 349.8642666125574 L 1323 355.0062490837545 L 1324 360.1649607670512 L 1325 365.3385652229169 L 1326 370.5252207101716 L 1327 375.72308084162455 L 1328 380.93029524136693 L 1329 386.1450102034795 L 1330 391.3653693519357 L 1331 396.5895143014453 L 1332 401.81558531901834 L 1333 407.0417219860085 L 1334 412.2660638603963 L 1335 417.4867511390898 L 1336 422.7019253199883 L 1337 427.90972986358787 L 1338 433.10831085388725 L 1339 438.2958176583603 L 1340 443.4704035867557 L 1341 448.6302265485019 L 1342 453.7734497084656 L 1343 458.89824214084393 L 1344 464.0027794809533 L 1345 469.085244574677 L 1346 474.1438281253568 L 1347 479.17672933787617 L 1348 484.1821565597234 L 1349 489.1583279187992 L 1350 494.10347195773784 L 1351 499.01582826453046 L 1352 503.893648099207 L 1353 508.73519501636764 L 1354 513.5387454833364 L 1355 518.3025894937189 L 1356 523.025031176141 L 1357 527.7043893979637 L 1358 532.3389983637426 L 1359 536.9272082082323 L 1360 541.4673855837191 L 1361 545.9579142414705 L 1362 550.3971956071043 L 1363 554.7836493496599 L 1364 559.1157139441771 L 1365 563.3918472275814 L 1366 567.610526947672 L 1367 571.770251305031 L 1368 575.8695394876419 L 1369 579.9069321980421 L 1370 583.8809921728152 L 1371 587.7903046942408 L 1372 591.6334780939133 L 1373 595.4091442481638 L 1374 599.1159590650934 L 1375 602.7526029630537 L 1376 606.3177813404036 L 1377 609.8102250363683 L 1378 613.22869078285 L 1379 616.5719616470137 L 1380 619.8388474645014 L 1381 623.0281852631167 L 1382 626.1388396768264 L 1383 629.1697033499416 L 1384 632.1196973313199 L 1385 634.98777145846 L 1386 637.7729047313472 L 1387 640.4741056759157 L 1388 643.0904126970037 L 1389 645.6208944206686 L 1390 648.0646500257449 L 1391 650.4208095645258 L 1392 652.6885342724548 L 1393 654.8670168667142 L 1394 656.9554818336098 L 1395 658.9531857046443 L 1396 660.859417321182 L 1397 662.6734980876145 L 1398 664.3947822129301 L 1399 666.0226569406101 L 1400 667.5565427667619 L 1401 668.9958936464153 L 1402 670.340197187908 L 1403 671.5889748352904 L 1404 672.7417820386872 L 1405 673.7982084125504 L 1406 674.7578778817522 L 1407 675.6204488154633 L 1408 676.3856141487697 L 1409 677.0531014919828 L 1410 677.6226732276086 L 1411 678.0941265949357 L 1412 678.4672937622156 L 1413 678.7420418864093 L 1414 678.9182731604774 L 1415 678.9959248481985 L 1416 678.9749693065023 L 1417 678.8554139953108 L 1418 678.6373014748816 L 1419 678.3207093906581 L 1420 677.9057504456277 L 1421 677.3925723602016 L 1422 676.7813578196277 L 1423 676.072324408957 L 1424 675.2657245355857 L 1425 674.3618453394017 L 1426 673.3610085905658 L 1427 672.2635705749652 L 1428 671.0699219673808 L 1429 669.7804876924104 L 1430 668.3957267732023 L 1431 666.9161321680474 L 1432 665.3422305948916 L 1433 663.6745823438316 L 1434 661.9137810776576 L 1435 660.0604536205176 L 1436 658.1152597347736 L 1437 656.0788918861358 L 1438 653.9520749971518 L 1439 651.7355661891438 L 1440 649.430154512683 L 1441 647.0366606666953 L 1442 644.5559367063034 L 1443 641.9888657395056 L 1444 639.3363616127994 L 1445 636.5993685858627 L 1446 633.7788609954112 L 1447 630.8758429083422 L 1448 627.8913477643017 L 1449 624.8264380077916 L 1450 621.6822047099513 L 1451 618.4597671801519 L 1452 615.160272567532 L 1453 611.7848954526294 L 1454 608.3348374292422 L 1455 604.8113266766768 L 1456 601.2156175225329 L 1457 597.5489899961735 L 1458 593.8127493730533 L 1459 590.0082257100546 L 1460 586.1367733720039 L 1461 582.199770549533 L 1462 578.1986187684626 L 1463 574.1347423908719 L 1464 570.0095881080451 L 1465 565.8246244254667 L 1466 561.5813411400494 L 1467 557.2812488097882 L 1468 552.9258782160148 L 1469 548.5167798184609 L 1470 544.0555232033125 L 1471 539.5436965244552 L 1472 534.9829059381134 L 1473 530.3747750310733 L 1474 525.720944242709 L 1475 521.0230702810045 L 1476 516.2828255327853 L 1477 511.5018974683688 L 1478 506.68198804084756 L 1479 501.8248130802097 L 1480 496.9321016825275 L 1481 492.0055955944187 L 1482 487.04704859300506 L 1483 482.0582258615921 L 1484 477.04090336127973 L 1485 471.9968671987448 L 1486 466.9279129904078 L 1487 461.83584522321394 L 1488 456.72247661226123 L 1489 451.5896274554899 L 1490 446.43912498568193 L 1491 441.2728027199872 L 1492 436.0924998072124 L 1493 430.9000603731098 L 1494 425.697332863885 L 1495 420.486169388176 L 1496 415.2684250577237 L 1497 410.0459573269745 L 1498 404.8206253318477 L 1499 399.5942892279092 L 1500 394.36880952817285 L 1501 389.1460464407838 L 1502 383.92785920680564 L 1503 378.71610543835214 L 1504 373.5126404573034 L 1505 368.31931663482743 L 1506 363.13798273196255 L 1507 357.9704832414792 L 1508 352.818657731262 L 1509 347.68434018944924 L 1510 342.56935837154947 L 1511 337.4755331497862 L 1512 332.40467786488824 L 1513 327.35859768056224 L 1514 322.339088940875 L 1515 317.3479385307804 L 1516 312.38692324000385 L 1517 307.4578091305306 L 1518 302.5623509079076 L 1519 297.7022912965885 L 1520 292.87936041954845 L 1521 288.09527518237525 L 1522 283.3517386620756 L 1523 278.6504395007989 L 1524 273.9930513047 L 1525 269.38123204815906 L 1526 264.8166234835575 L 1527 260.30085055683685 L 1528 255.83552082903694 L 1529 251.4222239040234 L 1530 247.06253086260682 L 1531 242.75799370326015 L 1532 238.51014478962094 L 1533 234.3204963049914 L 1534 230.19053971401868 L 1535 226.12174523175037 L 1536 222.11556130025872 L 1537 218.173414073008 L 1538 214.29670690716398 L 1539 210.48681986401493" stroke-linecap="round" stroke-linejoin="round" stroke-miterlimit="10" stroke-width="16"/></g></svg>