<svg xmlns="http://www.w3.org/2000/svg" height="500" width="500"><path fill="none" stroke-width="5" stroke="black" d="M0 250 2.5 248.4 5 246.9 7.5 245.3 10 243.7 12.5 242.2 15 240.6 17.5 239.1 20 237.6 22.5 236.1 25 234.5 27.5 233.1 30 231.6 32.5 230.1 35 228.7 37.5 227.3 40 225.9 42.5 224.5 45 223.2 47.5 221.9 50 220.6 52.5 219.4 55 218.1 57.5 216.9 60 215.8 62.5 214.6 65 213.6 67.5 212.5 70 211.5 72.5 210.5 75 209.5 77.5 208.6 80 207.8 82.5 207 85 206.2 87.5 205.4 90 204.8 92.5 204.1 95 203.5 97.5 203 100 202.4 102.5 202 105 201.6 107.5 201.2 110 200.9 112.5 200.6 115 200.4 117.5 200.2 120 200.1 122.5 200 125 200 127.5 200 130 200.1 132.5 200.2 135 200.4 137.5 200.6 140 200.9 142.5 201.2 145 201.6 147.5 202 150 202.4 152.5 203 155 203.5 157.5 204.1 160 204.8 162.5 205.4 165 206.2 167.5 207 170 207.8 172.5 208.6 175 209.5 177.5 210.5 180 211.5 182.5 212.5 185 213.6 187.5 214.6 190 215.8 192.5 216.9 195 218.1 197.5 219.4 200 220.6 202.5 221.9 205 223.2 207.5 224.5 210 225.9 212.5 227.3 215 228.7 217.5 230.1 220 231.6 222.5 233.1 225 234.5 227.5 236.1 230 237.6 232.5 239.1 235 240.6 237.5 242.2 240 243.7 242.5 245.3 245 246.9 247.5 248.4 250 250 252.5 251.6 255 253.1 257.5 254.7 260 256.3 262.5 257.8 265 259.4 267.5 260.9 270 262.4 272.5 263.9 275 265.5 277.5 266.9 280 268.4 282.5 269.9 285 271.3 287.5 272.7 290 274.1 292.5 275.5 295 276.8 297.5 278.1 300 279.4 302.5 280.6 305 281.9 307.5 283.1 310 284.2 312.5 285.4 315 286.4 317.5 287.5 320 288.5 322.5 289.5 325 290.5 327.5 291.4 330 292.2 332.5 293 335 293.8 337.5 294.6 340 295.2 342.5 295.9 345 296.5 347.5 297 350 297.6 352.5 298 355 298.4 357.5 298.8 360 299.1 362.5 299.4 365 299.6 367.5 299.8 370 299.9 372.5 300 375 300 377.5 300 380 299.9 382.5 299.8 385 299.6 387.5 299.4 390 299.1 392.5 298.8 395 298.4 397.5 298 400 297.6 402.5 297 405 296.5 407.5 295.9 410 295.2 412.5 294.6 415 293.8 417.5 293 420 292.2 422.5 291.4 425 290.5 427.5 289.5 430 288.5 432.5 287.5 435 286.4 437.5 285.4 440 284.2 442.5 283.1 445 281.9 447.5 280.6 450 279.4 452.5 278.1 455 276.8 457.5 275.5 460 274.1 462.5 272.7 465 271.3 467.5 269.9 470 268.4 472.5 266.9 475 265.5 477.5 263.9 480 262.4 482.5 260.9 485 259.4 487.5 257.8 490 256.3 492.5 254.7 495 253.1 497.5 251.6 500 250"/></svg>