<svg version="1.1" xmlns="http://www.w3.org/2000/svg" xmlns:xlink="http://www.w3.org/1999/xlink" width="1560" height="804"><defs/><g><path fill="none" stroke="#02063B" paint-order="fill stroke markers" d=" M 20 434.9512998213463 L 21 436.59454506772306 L 22 438.23715852046223 L 23 439.8791101808249 L 24 441.5203700621581 L 25 443.160908190443 L 26 444.80069460484185 L 27 446.4396993582452 L 28 448.0778925178191 L 29 449.71524416555155 L 30 451.35172439879886 L 31 452.9873033308319 L 32 454.6219510913817 L 33 456.25563782718524 L 34 457.88833370253053 L 35 459.52000889980127 L 36 461.1506336200219 L 37 462.7801780834012 L 38 464.40861252987685 L 39 466.0359072196582 L 40 467.66203243377 L 41 469.28695847459477 L 42 470.91065566641544 L 43 472.5330943559571 L 44 474.1542449129285 L 45 475.77407773056365 L 46 477.3925632261618 L 47 479.00967184162846 L 48 480.6253740440144 L 49 482.2396403260559 L 50 483.8524412067129 L 51 485.4637472317078 L 52 487.0735289740632 L 53 488.6817570346394 L 54 490.28840204267135 L 55 491.893434656305 L 56 493.496825563133 L 57 495.0985454807303 L 58 496.6985651571889 L 59 498.2968553716518 L 60 499.89338693484694 L 61 501.4881306896202 L 62 503.08105751146775 L 63 504.6721383090682 L 64 506.26134402481364 L 65 507.84864563534046 L 66 509.43401415205943 L 67 511.01742062168495 L 68 512.598836126764 L 69 514.1782317862042 L 70 515.7555787558008 L 71 517.3308482287647 L 72 518.9040114362471 L 73 520.4750396478655 L 74 522.0439041722288 L 75 523.6105763574609 L 76 525.1750275917236 L 77 526.7372293037397 L 78 528.2971529633147 L 79 529.8547700818577 L 80 531.4100522129016 L 81 532.9629709526229 L 82 534.5134979403599 L 83 536.0616048591318 L 84 537.6072634361542 L 85 539.1504454433567 L 86 540.6911226978981 L 87 542.2292670626808 L 88 543.7648504468652 L 89 545.297844806382 L 90 546.8282221444451 L 91 548.3559545120623 L 92 549.8810140085463 L 93 551.4033727820238 L 94 552.9230030299442 L 95 554.4398769995875 L 96 555.953966988571 L 97 557.4652453453557 L 98 558.9736844697504 L 99 560.4792568134167 L 100 561.9819348803711 L 101 563.4816912274886 L 102 564.9784984650021 L 103 566.472329257004 L 104 567.9631563219452 L 105 569.4509524331327 L 106 570.9356904192271 L 107 572.4173431647393 L 108 573.8958836105254 L 109 575.3712847542806 L 110 576.8435196510328 L 111 578.3125614136343 L 112 579.778383213253 L 113 581.2409582798625 L 114 582.7002599027309 L 115 584.1562614309083 L 116 585.6089362737141 L 117 587.0582579012223 L 118 588.5041998447459 L 119 589.9467356973205 L 120 591.3858391141865 L 121 592.8214838132702 L 122 594.2536435756638 L 123 595.6822922461042 L 124 597.1074037334511 L 125 598.5289520111623 L 126 599.9469111177707 L 127 601.3612551573569 L 128 602.7719583000232 L 129 604.1789947823647 L 130 605.5823389079401 L 131 606.9819650477408 L 132 608.3778476406593 L 133 609.7699611939556 L 134 611.1582802837229 L 135 612.5427795553524 L 136 613.9234337239952 L 137 615.3002175750254 L 138 616.6731059644998 L 139 618.042073819617 L 140 619.4070961391762 L 141 620.7681479940325 L 142 622.1252045275533 L 143 623.4782409560715 L 144 624.8272325693387 L 145 626.1721547309759 L 146 627.512982878924 L 147 628.8496925258919 L 148 630.182259259804 L 149 631.5106587442459 L 150 632.8348667189091 L 151 634.1548590000334 L 152 635.4706114808494 L 153 636.7821001320181 L 154 638.0893010020703 L 155 639.3921902178436 L 156 640.6907439849185 L 157 641.984938588053 L 158 643.2747503916157 L 159 644.5601558400174 L 160 645.8411314581413 L 161 647.1176538517719 L 162 648.3896997080221 L 163 649.6572457957586 L 164 650.9202689660272 L 165 652.1787461524741 L 166 653.4326543717684 L 167 654.6819707240215 L 168 655.9266723932047 L 169 657.166736647567 L 170 658.402140840049 L 171 659.6328624086977 L 172 660.8588788770777 L 173 662.0801678546818 L 174 663.2967070373404 L 175 664.5084742076283 L 176 665.7154472352707 L 177 666.9176040775474 L 178 668.1149227796952 L 179 669.307381475309 L 180 670.4949583867408 L 181 671.6776318254983 L 182 672.8553801926398 L 183 674.0281819791696 L 184 675.1960157664303 L 185 676.358860226494 L 186 677.5166941225525 L 187 678.6694963093039 L 188 679.81724573334 L 189 680.9599214335299 L 190 682.0975025414032 L 191 683.2299682815312 L 192 684.3572979719062 L 193 685.4794710243191 L 194 686.5964669447355 L 195 687.7082653336704 L 196 688.8148458865594 L 197 689.9161883941315 L 198 691.0122727427763 L 199 692.1030789149128 L 200 693.1885869893539 L 201 694.2687771416709 L 202 695.3436296445552 L 203 696.4131248681788 L 204 697.4772432805523 L 205 698.5359654478825 L 206 699.5892720349266 L 207 700.6371438053454 L 208 701.679561622055 L 209 702.7165064475755 L 210 703.7479593443799 L 211 704.7739014752387 L 212 705.7943141035648 L 213 706.8091785937552 L 214 707.8184764115315 L 215 708.8221891242785 L 216 709.8202984013806 L 217 710.8127860145568 L 218 711.7996338381934 L 219 712.780823849675 L 220 713.756338129714 L 221 714.7261588626775 L 222 715.6902683369128 L 223 716.6486489450707 L 224 717.6012831844275 L 225 718.5481536572038 L 226 719.4892430708835 L 227 720.4245342385283 L 228 721.3540100790924 L 229 722.2776536177345 L 230 723.1954479861267 L 231 724.1073764227646 L 232 725.013422273271 L 233 725.9135689907018 L 234 726.8078001358481 L 235 727.6960993775351 L 236 728.5784504929218 L 237 729.4548373677965 L 238 730.3252439968714 L 239 731.1896544840748 L 240 732.0480530428413 L 241 732.9004239964004 L 242 733.7467517780624 L 243 734.5870209315028 L 244 735.4212161110452 L 245 736.2493220819406 L 246 737.071323720646 L 247 737.8872060151011 L 248 738.6969540650016 L 249 739.5005530820721 L 250 740.2979883903355 L 251 741.0892454263815 L 252 741.8743097396325 L 253 742.6531669926073 L 254 743.4258029611831 L 255 744.1922035348553 L 256 744.9523547169949 L 257 745.7062426251048 L 258 746.4538534910723 L 259 747.1951736614219 L 260 747.9301895975632 L 261 748.658887876039 L 262 749.3812551887706 L 263 750.0972783433001 L 264 750.8069442630322 L 265 751.5102399874722 L 266 752.2071526724632 L 267 752.8976695904206 L 268 753.5817781305645 L 269 754.2594657991499 L 270 754.9307202196949 L 271 755.5955291332072 L 272 756.2538803984069 L 273 756.9057619919495 L 274 757.5511620086446 L 275 758.1900686616738 L 276 758.8224702828054 L 277 759.4483553226084 L 278 760.0677123506626 L 279 760.6805300557676 L 280 761.2867972461495 L 281 761.886502849665 L 282 762.4796359140043 L 283 763.0661856068904 L 284 763.6461412162769 L 285 764.219492150544 L 286 764.7862279386925 L 287 765.3463382305333 L 288 765.8998127968782 L 289 766.446641529726 L 290 766.9868144424466 L 291 767.5203216699643 L 292 768.0471534689376 L 293 768.5673002179367 L 294 769.08075241762 L 295 769.5875006909071 L 296 770.0875357831499 L 297 770.580848562302 L 298 771.0674300190854 L 299 771.5472712671551 L 300 772.0203635432608 L 301 772.4866982074079 L 302 772.9462667430146 L 303 773.3990607570674 L 304 773.8450719802751 L 305 774.2842922672187 L 306 774.7167135965014 L 307 775.142328070894 L 308 775.5611279174798 L 309 775.9731054877966 L 310 776.3782532579756 L 311 776.77656382888 L 312 777.1680299262387 L 313 777.5526444007808 L 314 777.9304002283645 L 315 778.3012905101067 L 316 778.6653084725083 L 317 779.0224474675779 L 318 779.3727009729538 L 319 779.7160625920221 L 320 780.0525260540348 L 321 780.3820852142231 L 322 780.7047340539104 L 323 781.0204666806219 L 324 781.3292773281923 L 325 781.6311603568713 L 326 781.9261102534258 L 327 782.214121631242 L 328 782.4951892304223 L 329 782.7693079178825 L 330 783.0364726874445 L 331 783.2966786599288 L 332 783.5499210832431 L 333 783.7961953324685 L 334 784.0354969099452 L 335 784.2678214453535 L 336 784.4931646957947 L 337 784.7115225458673 L 338 784.9228910077431 L 339 785.1272662212402 L 340 785.3246444538923 L 341 785.5150221010183 L 342 785.6983956857871 L 343 785.8747618592818 L 344 786.0441174005599 L 345 786.2064592167135 L 346 786.3617843429246 L 347 786.5100899425197 L 348 786.6513733070218 L 349 786.7856318561994 L 350 786.9128631381141 L 351 787.033064829165 L 352 787.1462347341313 L 353 787.2523707862125 L 354 787.3514710470658 L 355 787.4435337068421 L 356 787.5285570842183 L 357 787.6065396264285 L 358 787.6774799092923 L 359 787.7413766372406 L 360 787.7982286433398 L 361 787.8480348893123 L 362 787.8907944655562 L 363 787.9265065911611 L 364 787.9551706139235 L 365 787.9767860103577 L 366 787.9913523857058 L 367 787.9988694739448 L 368 787.9993371377916 L 369 787.9927553687052 L 370 787.9791242868873 L 371 787.9584441412799 L 372 787.9307153095605 L 373 787.8959382981354 L 374 787.8541137421307 L 375 787.8052424053802 L 376 787.7493251804121 L 377 787.6863630884322 L 378 787.616357279305 L 379 787.5393090315333 L 380 787.455219752235 L 381 787.3640909771166 L 382 787.2659243704456 L 383 787.1607217250203 L 384 787.0484849621366 L 385 786.9292161315535 L 386 786.8029174114549 L 387 786.6695911084105 L 388 786.5292396573334 L 389 786.3818656214356 L 390 786.2274716921813 L 391 786.0660606892376 L 392 785.8976355604232 L 393 785.7221993816543 L 394 785.5397553568887 L 395 785.3503068180673 L 396 785.1538572250527 L 397 784.9504101655668 L 398 784.7399693551249 L 399 784.5225386369675 L 400 784.298121981991 L 401 784.0667234886741 L 402 783.8283473830038 L 403 783.582998018398 L 404 783.3306798756257 L 405 783.0713975627252 L 406 782.8051558149209 L 407 782.5319594945349 L 408 782.2518135909005 L 409 781.9647232202691 L 410 781.670693625718 L 411 781.3697301770538 L 412 781.0618383707156 L 413 780.7470238296728 L 414 780.425292303324 L 415 780.0966496673914 L 416 779.7611019238132 L 417 779.4186552006342 L 418 779.0693157518947 L 419 778.7130899575146 L 420 778.3499843231784 L 421 777.9800054802158 L 422 777.6031601854802 L 423 777.2194553212262 L 424 776.828897894983 L 425 776.4314950394272 L 426 776.0272540122521 L 427 775.616182196035 L 428 775.1982870981028 L 429 774.7735763503949 L 430 774.3420577093232 L 431 773.9037390556311 L 432 773.4586283942494 L 433 773.0067338541498 L 434 772.5480636881971 L 435 772.0826262729977 L 436 771.6104301087472 L 437 771.1314838190749 L 438 770.6457961508862 L 439 770.1533759742034 L 440 769.654232282003 L 441 769.148374190052 L 442 768.6358109367409 L 443 768.1165518829158 L 444 767.5906065117065 L 445 767.0579844283537 L 446 766.5186953600341 L 447 765.9727491556821 L 448 765.4201557858098 L 449 764.8609253423256 L 450 764.2950680383492 L 451 763.7225942080258 L 452 763.1435143063367 L 453 762.5578389089086 L 454 761.9655787118206 L 455 761.366744531409 L 456 760.7613473040687 L 457 760.1493980860555 L 458 759.5309080532818 L 459 758.9058885011143 L 460 758.274350844167 L 461 757.6363066160925 L 462 756.9917674693723 L 463 756.3407451751029 L 464 755.6832516227813 L 465 755.0192988200881 L 466 754.3488988926676 L 467 753.6720640839073 L 468 752.9888067547131 L 469 752.2991393832847 L 470 751.6030745648866 L 471 750.9006250116192 L 472 750.191803552186 L 473 749.4766231316594 L 474 748.7550968112438 L 475 748.0272377680385 L 476 747.2930592947953 L 477 746.5525747996771 L 478 745.8057978060122 L 479 745.0527419520474 L 480 744.2934209907 L 481 743.5278487893047 L 482 742.7560393293622 L 483 741.9780067062825 L 484 741.1937651291286 L 485 740.403328920356 L 486 739.6067125155519 L 487 738.8039304631711 L 488 737.9949974242704 L 489 737.179928172241 L 490 736.3587375925388 L 491 735.5314406824118 L 492 734.6980525506274 L 493 733.8585884171953 L 494 733.0130636130904 L 495 732.1614935799723 L 496 731.3038938699037 L 497 730.4402801450659 L 498 729.5706681774732 L 499 728.6950738486844 L 500 727.8135131495134 L 501 726.9260021797365 L 502 726.0325571477989 L 503 725.1331943705184 L 504 724.227930272787 L 505 723.3167813872724 L 506 722.399764354114 L 507 721.4768959206208 L 508 720.5481929409644 L 509 719.6136723758719 L 510 718.6733512923157 L 511 717.727246863202 L 512 716.7753763670571 L 513 715.817757187712 L 514 714.8544068139848 L 515 713.8853428393613 L 516 712.9105829616736 L 517 711.9301449827772 L 518 710.9440468082256 L 519 709.9523064469432 L 520 708.954942010897 L 521 707.9519717147649 L 522 706.943413875604 L 523 705.9292869125156 L 524 704.9096093463086 L 525 703.8843997991614 L 526 702.8536769942828 L 527 701.8174597555678 L 528 700.7757670072567 L 529 699.7286177735867 L 530 698.6760311784467 L 531 697.6180264450265 L 532 696.5546228954667 L 533 695.4858399505051 L 534 694.411697129123 L 535 693.3322140481873 L 536 692.2474104220937 L 537 691.1573060624057 L 538 690.0619208774933 L 539 688.9612748721688 L 540 687.8553881473224 L 541 686.7442808995543 L 542 685.627973420806 L 543 684.5064860979901 L 544 683.3798394126176 L 545 682.2480539404239 L 546 681.1111503509933 L 547 679.9691494073809 L 548 678.8220719657343 L 549 677.6699389749119 L 550 676.5127714761006 L 551 675.350590602432 L 552 674.1834175785957 L 553 673.0112737204516 L 554 671.8341804346419 L 555 670.6521592181986 L 556 669.4652316581517 L 557 668.2734194311349 L 558 667.0767443029897 L 559 665.8752281283678 L 560 664.6688928503318 L 561 663.4577604999549 L 562 662.2418531959186 L 563 661.0211931441079 L 564 659.7958026372064 L 565 658.5657040542897 L 566 657.3309198604155 L 567 656.0914726062143 L 568 654.8473849274768 L 569 653.5986795447412 L 570 652.345379262878 L 571 651.0875069706731 L 572 649.8250856404106 L 573 648.5581383274528 L 574 647.2866881698186 L 575 646.0107583877622 L 576 644.730372283348 L 577 643.4455532400252 L 578 642.1563247222012 L 579 640.862710274813 L 580 639.5647335228965 L 581 638.2624181711558 L 582 636.9557880035301 L 583 635.6448668827591 L 584 634.3296787499473 L 585 633.0102476241271 L 586 631.68659760182 L 587 630.3587528565959 L 588 629.0267376386323 L 589 627.6905762742715 L 590 626.350293165576 L 591 625.0059127898827 L 592 623.6574596993564 L 593 622.304958520541 L 594 620.9484339539099 L 595 619.5879107734149 L 596 618.2234138260335 L 597 616.8549680313157 L 598 615.4825983809283 L 599 614.1063299381988 L 600 612.7261878376576 L 601 611.3421972845792 L 602 609.9543835545214 L 603 608.562771992864 L 604 607.1673880143459 L 605 605.7682571026008 L 606 604.3654048096923 L 607 602.9588567556467 L 608 601.548638627985 L 609 600.1347761812546 L 610 598.7172952365579 L 611 597.2962216810814 L 612 595.8715814676231 L 613 594.4434006141176 L 614 593.0117052031623 L 615 591.5765213815395 L 616 590.1378753597403 L 617 588.6957934114848 L 618 587.2503018732433 L 619 585.8014271437544 L 620 584.3491956835435 L 621 582.8936340144393 L 622 581.4347687190892 L 623 579.9726264404746 L 624 578.5072338814234 L 625 577.0386178041231 L 626 575.5668050296313 L 627 574.0918224373866 L 628 572.6136969647172 L 629 571.1324556063491 L 630 569.6481254139137 L 631 568.1607334954525 L 632 566.670307014923 L 633 565.1768731917022 L 634 563.6804593000896 L 635 562.1810926688096 L 636 560.6788006805114 L 637 559.1736107712695 L 638 557.6655504300829 L 639 556.1546471983725 L 640 554.6409286694783 L 641 553.1244224881558 L 642 551.6051563500707 L 643 550.0831580012934 L 644 548.558455237792 L 645 547.0310759049249 L 646 545.5010478969322 L 647 543.9683991564259 L 648 542.4331576738806 L 649 540.8953514871212 L 650 539.3550086808114 L 651 537.8121573859406 L 652 536.2668257793106 L 653 534.7190420830202 L 654 533.1688345639507 L 655 531.616231533249 L 656 530.0612613458105 L 657 528.503952399762 L 658 526.9443331359425 L 659 525.3824320373836 L 660 523.8182776287902 L 661 522.2518984760183 L 662 520.6833231855544 L 663 519.1125804039924 L 664 517.5396988175111 L 665 515.9647071513493 L 666 514.3876341692824 L 667 512.808508673096 L 668 511.22735950206044 L 669 509.64421553240436 L 670 508.05910567678677 L 671 506.47205888376936 L 672 504.8831041372878 L 673 503.2922704561221 L 674 501.69958689336715 L 675 500.10508253590194 L 676 498.508786503858 L 677 496.91072795008813 L 678 495.31093605963355 L 679 493.70944004919124 L 680 492.1062691665801 L 681 490.501452690207 L 682 488.8950199285317 L 683 487.28700021953233 L 684 485.67742293016875 L 685 484.0663174558468 L 686 482.4537132198812 L 687 480.8396396729583 L 688 479.22412629259804 L 689 477.6072025826163 L 690 475.98889807258496 L 691 474.36924231729336 L 692 472.74826489620847 L 693 471.1259954129345 L 694 469.50246349467244 L 695 467.87769879167877 L 696 466.25173097672416 L 697 464.62458974455154 L 698 462.99630481133363 L 699 461.36690591413037 L 700 459.7364228103458 L 701 458.10488527718474 L 702 456.4723231111087 L 703 454.83876612729205 L 704 453.20424415907706 L 705 451.5687870574296 L 706 449.9324246903935 L 707 448.29518694254534 L 708 446.6571037144488 L 709 445.01820492210805 L 710 443.37852049642214 L 711 441.73808038263763 L 712 440.0969145398024 L 713 438.4550529402179 L 714 436.8125255688923 L 715 435.1693624229924 L 716 433.52559351129617 L 717 431.8812488536444 L 718 430.23635848039316 L 719 428.5909524318642 L 720 426.9450607577971 L 721 425.2987135168005 L 722 423.6519407758028 L 723 422.00477260950333 L 724 420.357239099823 L 725 418.70937033535483 L 726 417.0611964108146 L 727 415.4127474264912 L 728 413.76405348769674 L 729 412.11514470421713 L 730 410.4660511897617 L 731 408.8168030614136 L 732 407.1674304390798 L 733 405.51796344494056 L 734 403.86843220289984 L 735 402.21886683803507 L 736 400.56929747604653 L 737 398.91975424270777 L 738 397.2702672633151 L 739 395.6208666621373 L 740 393.97158256186594 L 741 392.32244508306474 L 742 390.67348434361975 L 743 389.0247304581892 L 744 387.3762135376538 L 745 385.7279636885664 L 746 384.0800110126022 L 747 382.43238560600986 L 748 380.7851175590606 L 749 379.13823695549934 L 750 377.49177387199524 L 751 375.8457583775924 L 752 374.2002205331607 L 753 372.5551903908467 L 754 370.91069799352493 L 755 369.26677337424934 L 756 367.6234465557044 L 757 365.98074754965717 L 758 364.33870635640915 L 759 362.6973529642483 L 760 361.05671734890126 L 761 359.4168294729863 L 762 357.77771928546565 L 763 356.1394167210988 L 764 354.5019516998959 L 765 352.8653541265711 L 766 351.22965388999654 L 767 349.59488086265645 L 768 347.96106490010163 L 769 346.32823584040415 L 770 344.6964235036125 L 771 343.065657691207 L 772 341.43596818555534 L 773 339.807384749369 L 774 338.1799371251595 L 775 336.55365503469505 L 776 334.9285681784579 L 777 333.3047062351026 L 778 331.6820988609127 L 779 330.0607756892598 L 780 328.4407663300626 L 781 326.82210036924596 L 782 325.20480736820025 L 783 323.58891686324176 L 784 321.97445836507353 L 785 320.36146135824583 L 786 318.7499553006181 L 787 317.139969622821 L 788 315.5315337277185 L 789 313.9246769898714 L 790 312.31942875500056 L 791 310.71581833945106 L 792 309.1138750296568 L 793 307.51362808160576 L 794 305.9151067203053 L 795 304.318340139249 L 796 302.72335749988304 L 797 301.130187931074 L 798 299.5388605285765 L 799 297.949404354502 L 800 296.36184843678836 L 801 294.7762217686692 L 802 293.1925533081445 L 803 291.6108719774521 L 804 290.03120666253926 L 805 288.4535862125347 L 806 286.87803943922296 L 807 285.3045951165168 L 808 283.73328197993237 L 809 282.1641287260645 L 810 280.59716401206254 L 811 279.03241645510684 L 812 277.46991463188624 L 813 275.9096870780762 L 814 274.3517622878177 L 815 272.7961687131966 L 816 271.2429347637244 L 817 269.692088805819 L 818 268.14365916228724 L 819 266.5976741118068 L 820 265.05416188841036 L 821 263.51315068097017 L 822 261.97466863268255 L 823 260.43874384055425 L 824 258.90540435488947 L 825 257.37467817877734 L 826 255.84659326758086 L 827 254.3211775284258 L 828 252.79845881969146 L 829 251.27846495050187 L 830 249.7612236802177 L 831 248.2467627179295 L 832 246.73510972195157 L 833 245.2262922993168 L 834 243.7203380052725 L 835 242.21727434277756 L 836 240.71712876199942 L 837 239.21992865981318 L 838 237.7257013793014 L 839 236.23447420925444 L 840 234.74627438367222 L 841 233.26112908126686 L 842 231.7790654249663 L 843 230.30011048141895 L 844 228.82429126049942 L 845 227.3516347148152 L 846 225.88216773921434 L 847 224.41591717029453 L 848 222.95290978591277 L 849 221.49317230469634 L 850 220.036731385555 L 851 218.58361362719384 L 852 217.13384556762796 L 853 215.68745368369733 L 854 214.24446439058354 L 855 212.8049040413273 L 856 211.36879892634713 L 857 209.93617527295936 L 858 208.50705924489893 L 859 207.08147694184174 L 860 205.65945439892795 L 861 204.24101758628646 L 862 202.82619240856064 L 863 201.4150047044352 L 864 200.00748024616468 L 865 198.60364473910207 L 866 197.20352382122988 L 867 195.80714306269186 L 868 194.41452796532576 L 869 193.02570396219792 L 870 191.6406964171386 L 871 190.2595306242788 L 872 188.88223180758828 L 873 187.50882512041508 L 874 186.13933564502588 L 875 184.77378839214808 L 876 183.4122083005131 L 877 182.05462023640075 L 878 180.7010489931853 L 879 179.35151929088246 L 880 178.0060557756981 L 881 176.66468301957804 L 882 175.3274255197595 L 883 173.9943076983233 L 884 172.66535390174835 L 885 171.34058840046657 L 886 170.02003538841984 L 887 168.70371898261837 L 888 167.39166322269975 L 889 166.08389207049035 L 890 164.78042940956755 L 891 163.48129904482354 L 892 162.18652470203057 L 893 160.89613002740765 L 894 159.61013858718903 L 895 158.32857386719326 L 896 157.05145927239445 L 897 155.77881812649517 L 898 154.51067367150003 L 899 153.24704906729156 L 900 151.98796739120706 L 901 150.73345163761715 L 902 149.48352471750593 L 903 148.2382094580525 L 904 146.997528602214 L 905 145.76150480831046 L 906 144.53016064961076 L 907 143.30351861392052 L 908 142.0816011031714 L 909 140.86443043301193 L 910 139.6520288324 L 911 138.4444184431968 L 912 137.24162131976271 L 913 136.04365942855418 L 914 134.8505546477228 L 915 133.6623287667157 L 916 132.4790034858775 L 917 131.30060041605418 L 918 130.12714107819824 L 919 128.95864690297577 L 920 127.79513923037501 L 921 126.63663930931665 L 922 125.48316829726565 L 923 124.33474725984536 L 924 123.19139717045198 L 925 122.05313890987208 L 926 120.91999326590104 L 927 119.79198093296372 L 928 118.66912251173602 L 929 117.55143850876908 L 930 116.43894933611455 L 931 115.331675310952 L 932 114.22963665521752 L 933 113.13285349523494 L 934 112.04134586134768 L 935 110.95513368755343 L 936 109.87423681113967 L 937 108.79867497232192 L 938 107.72846781388256 L 939 106.66363488081277 L 940 105.60419561995502 L 941 104.55016937964842 L 942 103.50157540937488 L 943 102.45843285940788 L 944 101.42076078046256 L 945 100.38857812334817 L 946 99.36190373862127 L 947 98.34075637624215 L 948 97.32515468523212 L 949 96.31511721333288 L 950 95.3106624066678 L 951 94.31180860940526 L 952 93.31857406342323 L 953 92.33097690797655 L 954 91.34903517936544 L 955 90.37276681060604 L 956 89.40218963110306 L 957 88.43732136632394 L 958 87.47817963747559 L 959 86.5247819611821 L 960 85.57714574916491 L 961 84.63528830792507 L 962 83.69922683842708 L 963 82.76897843578456 L 964 81.84456008894824 L 965 80.92598868039573 L 966 80.0132809858228 L 967 79.1064536738379 L 968 78.2055233056567 L 969 77.31050633480021 L 970 76.42141910679413 L 971 75.53827785887052 L 972 74.66109871967103 L 973 73.78989770895248 L 974 72.92469073729427 L 975 72.06549360580777 L 976 71.21232200584774 L 977 70.36519151872596 L 978 69.52411761542635 L 979 68.68911565632254 L 980 67.86020089089754 L 981 67.03738845746506 L 982 66.22069338289305 L 983 65.4101305823292 L 984 64.60571485892876 L 985 63.807460903584115 L 986 63.01538329465632 L 987 62.229496497708965 L 988 61.44981486524415 L 989 60.67635263644013 L 990 59.909123936891376 L 991 59.14814277835069 L 992 58.39342305847299 L 993 57.64497856056198 L 994 56.90282295331798 L 995 56.16696979058867 L 996 55.43743251112119 L 997 54.71422443831693 L 998 53.9973587799883 L 999 53.2868486281173 L 1000 52.58270695861654 L 1001 51.88494663109225 L 1002 51.19358038860935 L 1003 50.50862085745888 L 1004 49.83008054692732 L 1005 49.15797184906802 L 1006 48.49230703847513 L 1007 47.83309827205932 L 1008 47.180357588825586 L 1009 46.53409690965373 L 1010 45.8943280370803 L 1011 45.26106265508338 L 1012 44.63431232886887 L 1013 44.01408850465958 L 1014 43.4004025094859 L 1015 42.793265550979186 L 1016 42.19268871716696 L 1017 41.59868297627048 L 1018 41.011259176504154 L 1019 40.43042804587799 L 1020 39.85620019200098 L 1021 39.28858610188803 L 1022 38.72759614176789 L 1023 38.173240556894086 L 1024 37.62552947135788 L 1025 37.08447288790359 L 1026 36.550080687745094 L 1027 36.02236263038611 L 1028 35.50132835344186 L 1029 34.986987372462806 L 1030 34.4793490807611 L 1031 33.97842274923886 L 1032 33.48421752621908 L 1033 32.99674243727827 L 1034 32.51600638508188 L 1035 32.04201814922152 L 1036 31.57478638605471 L 1037 31.114319628546923 L 1038 30.660626286115416 L 1039 30.213714644476056 L 1040 29.773592865491594 L 1041 29.34026898702291 L 1042 28.91375092278213 L 1043 28.494046462187953 L 1044 28.081163270223726 L 1045 27.675108887297085 L 1046 27.2758907291024 L 1047 26.8835160864856 L 1048 26.497992125310418 L 1049 26.119325886328227 L 1050 25.74752428504894 L 1051 25.382594111614935 L 1052 25.02454203067697 L 1053 24.673374581272583 L 1054 24.32909817670634 L 1055 23.9917191044334 L 1056 23.661243525943746 L 1057 23.337677476650583 L 1058 23.02102686577939 L 1059 22.71129747626054 L 1060 22.40849496462323 L 1061 22.112624860892538 L 1062 21.82369256848824 L 1063 21.541703364126192 L 1064 21.26666239772186 L 1065 20.998574692296472 L 1066 20.737445143885168 L 1067 20.48327852144746 L 1068 20.23607946678038 L 1069 19.995852494433507 L 1070 19.76260199162664 L 1071 19.536332218169605 L 1072 19.317047306384552 L 1073 19.104751261030344 L 1074 18.89944795922952 L 1075 18.70114115039746 L 1076 18.50983445617402 L 1077 18.325531370357112 L 1078 18.14823525883918 L 1079 17.977949359545562 L 1080 17.8146767823755 L 1081 17.658420509145174 L 1082 17.50918339353342 L 1083 17.366968161029376 L 1084 17.231777408883033 L 1085 17.103613606057593 L 1086 16.982479093184224 L 1087 16.868376082519717 L 1088 16.761306657905777 L 1089 16.66127277473106 L 1090 16.56827625989547 L 1091 16.482318811776793 L 1092 16.403402000199662 L 1093 16.33152726640685 L 1094 16.26669592303307 L 1095 16.208909154080857 L 1096 16.158168014899104 L 1097 16.114473432163607 L 1098 16.07782620386024 L 1099 16.048226999270526 L 1100 16.025676358959004 L 1101 16.010174694763805 L 1102 16.001722289788916 L 1103 16.000319298399006 L 1104 16.005965746216532 L 1105 16.018661530121676 L 1106 16.038406418253658 L 1107 16.065200050015335 L 1108 16.099041936079573 L 1109 16.13993145839845 L 1110 16.187867870214404 L 1111 16.24285029607381 L 1112 16.304877731842964 L 1113 16.373949044726544 L 1114 16.450062973288254 L 1115 16.53321812747373 L 1116 16.623412988636233 L 1117 16.72064590956387 L 1118 16.82491511451036 L 1119 16.936218699226856 L 1120 17.054554630997018 L 1121 17.179920748674135 L 1122 17.31231476272046 L 1123 17.451734255249107 L 1124 17.598176680068264 L 1125 17.7516393627277 L 1126 17.912119500567314 L 1127 18.079614162768735 L 1128 18.25412029040865 L 1129 18.43563469651457 L 1130 18.624154066123253 L 1131 18.819674956341032 L 1132 19.022193796406896 L 1133 19.23170688775747 L 1134 19.44821040409488 L 1135 19.671700391456227 L 1136 19.90217276828622 L 1137 20.13962332551131 L 1138 20.384047726616984 L 1139 20.635441507726455 L 1140 20.893800077682613 L 1141 21.159118718131936 L 1142 21.431392583609977 L 1143 21.710616701630784 L 1144 21.99678597277699 L 1145 22.289895170793272 L 1146 22.58993894268184 L 1147 22.89691180879987 L 1148 23.210808162960006 L 1149 23.531622272532502 L 1150 23.859348278549817 L 1151 24.193980195813992 L 1152 24.53551191300545 L 1153 24.88393719279503 L 1154 25.23924967195768 L 1155 25.60144286148875 L 1156 25.970510146722575 L 1157 26.346444787453038 L 1158 26.729239918056805 L 1159 27.11888854761878 L 1160 27.515383560059774 L 1161 27.918717714266222 L 1162 28.328883644222685 L 1163 28.7458738591464 L 1164 29.16968074362387 L 1165 29.600296557750085 L 1166 30.0377134372697 L 1167 30.481923393721104 L 1168 30.932918314581684 L 1169 31.39068996341655 L 1170 31.855229980028582 L 1171 32.32652988061119 L 1172 32.80458105790342 L 1173 33.28937478134702 L 1174 33.78090219724584 L 1175 34.27915432892752 L 1176 34.78412207690769 L 1177 35.29579621905566 L 1178 35.814167410763446 L 1179 36.33922618511576 L 1180 36.870962953063724 L 1181 37.40936800359901 L 1182 37.95443150393203 L 1183 38.50614349967111 L 1184 39.064493915004334 L 1185 39.62947255288367 L 1186 40.20106909521098 L 1187 40.77927310302675 L 1188 41.36407401670033 L 1189 41.95546115612325 L 1190 42.55342372090399 L 1191 43.15795079056522 L 1192 43.769031324743366 L 1193 44.38665416339006 L 1194 45.01080802697618 L 1195 45.64148151669781 L 1196 46.27866311468398 L 1197 46.92234118420788 L 1198 47.57250396989832 L 1199 48.22913959795545 L 1200 48.89223607636694 L 1201 49.561781295126934 L 1202 50.237763026457685 L 1203 50.920168925032726 L 1204 51.60898652820208 L 1205 52.304203256220035 L 1206 53.00580641247495 L 1207 53.71378318372092 L 1208 54.42812064031199 L 1209 55.14880573643836 L 1210 55.87582531036418 L 1211 56.6091660846684 L 1212 57.348814666487215 L 1213 58.09475754775826 L 1214 58.84698110546776 L 1215 59.605471601898955 L 1216 60.37021518488342 L 1217 61.14119788805351 L 1218 61.91840563109798 L 1219 62.701824220018636 L 1220 63.49143934738993 L 1221 64.28723659261993 L 1222 65.0892014222141 L 1223 65.89731919004032 L 1224 66.71157513759647 L 1225 67.53195439428015 L 1226 68.35844197766005 L 1227 69.19102279374965 L 1228 70.02968163728286 L 1229 70.8744031919918 L 1230 71.72517203088631 L 1231 72.58197261653595 L 1232 73.44478930135358 L 1233 74.31360632788113 L 1234 75.1884078290775 L 1235 76.06917782860825 L 1236 76.95590024113727 L 1237 77.84855887262086 L 1238 78.74713742060305 L 1239 79.65161947451378 L 1240 80.56198851596815 L 1241 81.47822791906856 L 1242 82.40032095070785 L 1243 83.32825077087534 L 1244 84.26200043296416 L 1245 85.20155288408068 L 1246 86.14689096535602 L 1247 87.09799741225964 L 1248 88.05485485491414 L 1249 89.01744581841291 L 1250 89.98575272313923 L 1251 90.95975788508701 L 1252 91.93944351618421 L 1253 92.92479172461725 L 1254 93.91578451515801 L 1255 94.9124037894926 L 1256 95.91463134655146 L 1257 96.92244888284222 L 1258 97.93583799278395 L 1259 98.95478016904235 L 1260 99.97925680286943 L 1261 101.00924918444196 L 1262 102.04473850320375 L 1263 103.0857058482091 L 1264 104.1321322084683 L 1265 105.18399847329431 L 1266 106.24128543265249 L 1267 107.30397377751092 L 1268 108.3720441001932 L 1269 109.44547689473296 L 1270 110.52425255722994 L 1271 111.60835138620814 L 1272 112.69775358297557 L 1273 113.79243925198574 L 1274 114.89238840120129 L 1275 115.9975809424588 L 1276 117.10799669183581 L 1277 118.22361537001927 L 1278 119.34441660267629 L 1279 120.47037992082574 L 1280 121.6014847612123 L 1281 122.73771046668219 L 1282 123.87903628656005 L 1283 125.02544137702813 L 1284 126.17690480150702 L 1285 127.3334055310379 L 1286 128.49492244466637 L 1287 129.6614343298287 L 1288 130.83291988273885 L 1289 132.00935770877754 L 1290 133.19072632288317 L 1291 134.377004149944 L 1292 135.56816952519227 L 1293 136.7642006946 L 1294 137.9650758152759 L 1295 139.17077295586472 L 1296 140.3812700969474 L 1297 141.59654513144346 L 1298 142.81657586501473 L 1299 144.04134001647049 L 1300 145.27081521817456 L 1301 146.5049790164537 L 1302 147.7438088720077 L 1303 148.98728216032117 L 1304 150.23537617207643 L 1305 151.4880681135685 L 1306 152.74533510712112 L 1307 154.00715419150498 L 1308 155.27350232235653 L 1309 156.54435637259928 L 1310 157.81969313286595 L 1311 159.0994893119223 L 1312 160.38372153709264 L 1313 161.67236635468655 L 1314 162.96540023042738 L 1315 164.26279954988175 L 1316 165.56454061889121 L 1317 166.87059966400497 L 1318 168.1809528329129 L 1319 169.49557619488317 L 1320 170.81444574119766 L 1321 172.13753738559123 L 1322 173.46482696469127 L 1323 174.79629023845902 L 1324 176.1319028906325 L 1325 177.47164052917012 L 1326 178.81547868669676 L 1327 180.16339282095012 L 1328 181.51535831522912 L 1329 182.8713504788435 L 1330 184.23134454756476 L 1331 185.5953156840782 L 1332 186.96323897843678 L 1333 188.33508944851596 L 1334 189.7108420404699 L 1335 191.09047162918907 L 1336 192.473953018759 L 1337 193.86126094292064 L 1338 195.2523700655316 L 1339 196.64725498102894 L 1340 198.04589021489306 L 1341 199.44825022411305 L 1342 200.85430939765314 L 1343 202.26404205692043 L 1344 203.67742245623384 L 1345 205.09442478329427 L 1346 206.51502315965607 L 1347 207.9391916411996 L 1348 209.36690421860507 L 1349 210.7981348178276 L 1350 212.23285730057322 L 1351 213.67104546477643 L 1352 215.11267304507865 L 1353 216.55771371330786 L 1354 218.0061410789595 L 1355 219.45792868967834 L 1356 220.9130500317417 L 1357 222.3714785305435 L 1358 223.83318755107976 L 1359 225.29815039843498 L 1360 226.7663403182695 L 1361 228.23773049730838 L 1362 229.71229406383085 L 1363 231.1900040881613 L 1364 232.6708335831608 L 1365 234.1547555047202 L 1366 235.64174275225398 L 1367 237.13176816919503 L 1368 238.62480454349088 L 1369 240.12082460810038 L 1370 241.6198010414919 L 1371 243.12170646814215 L 1372 244.6265134590362 L 1373 246.13419453216846 L 1374 247.64472215304446 L 1375 249.15806873518406 L 1376 250.67420664062405 L 1377 252.19310818042476 L 1378 253.7147456151745 L 1379 255.23909115549642 L 1380 256.766116962556 L 1381 258.2957951485696 L 1382 259.82809777731364 L 1383 261.36299686463485 L 1384 262.90046437896126 L 1385 264.4404722418144 L 1386 265.98299232832164 L 1387 267.5279964677302 L 1388 269.0754564439216 L 1389 270.62534399592676 L 1390 272.17763081844225 L 1391 273.73228856234726 L 1392 275.2892888352213 L 1393 276.8486032018626 L 1394 278.41020318480776 L 1395 279.97406026485135 L 1396 281.5401458815672 L 1397 283.1084314338296 L 1398 284.678888280336 L 1399 286.2514877401299 L 1400 287.82620109312455 L 1401 289.4029995806277 L 1402 290.98185440586656 L 1403 292.5627367345139 L 1404 294.1456176952146 L 1405 295.7304683801128 L 1406 297.31725984538014 L 1407 298.9059631117439 L 1408 300.49654916501663 L 1409 302.088988956626 L 1410 303.6832534041449 L 1411 305.2793133918233 L 1412 306.8771397711192 L 1413 308.47670336123144 L 1414 310.0779749496325 L 1415 311.6809252926022 L 1416 313.2855251157612 L 1417 314.89174511460635 L 1418 316.49955595504537 L 1419 318.10892827393286 L 1420 319.71983267960627 L 1421 321.332239752423 L 1422 322.9461200452974 L 1423 324.56144408423876 L 1424 326.1781823688895 L 1425 327.7963053730639 L 1426 329.4157835452874 L 1427 331.03658730933626 L 1428 332.6586870647776 L 1429 334.28205318751037 L 1430 335.9066560303058 L 1431 337.53246592334926 L 1432 339.159453174782 L 1433 340.78758807124336 L 1434 342.4168408784139 L 1435 344.0471818415567 L 1436 345.6785811860635 L 1437 347.3110091179962 L 1438 348.9444358246322 L 1439 350.57883147500826 L 1440 352.2141662204655 L 1441 353.85041019519457 L 1442 355.4875335167811 L 1443 357.1255062867514 L 1444 358.7642985911181 L 1445 360.40388050092736 L 1446 362.04422207280464 L 1447 363.68529334950176 L 1448 365.32706436044424 L 1449 366.96950512227846 L 1450 368.6125856394192 L 1451 370.2562759045976 L 1452 371.90054589940894 L 1453 373.5453655948612 L 1454 375.1907049519232 L 1455 376.8365339220731 L 1456 378.4828224478477 L 1457 380.1295404633907 L 1458 381.7766578950023 L 1459 383.4241446616882 L 1460 385.07197067570894 L 1461 386.72010584312955 L 1462 388.36852006436897 L 1463 390.0171832347498 L 1464 391.6660652450483 L 1465 393.31513598204384 L 1466 394.9643653290694 L 1467 396.61372316656104 L 1468 398.2631793726084 L 1469 399.9127038235046 L 1470 401.56226639429633 L 1471 403.2118369593341 L 1472 404.86138539282257 L 1473 406.5108815693705 L 1474 408.1602953645409 L 1475 409.80959665540155 L 1476 411.4587553210746 L 1477 413.1077412432871 L 1478 414.7565243069208 L 1479 416.40507440056234 L 1480 418.05336141705294 L 1481 419.7013552540384 L 1482 421.34902581451865 L 1483 422.99634300739785 L 1484 424.6432767480334 L 1485 426.28979695878564 L 1486 427.9358735695673 L 1487 429.5814765183923 L 1488 431.22657575192505 L 1489 432.87114122602924 L 1490 434.51514290631644 L 1491 436.1585507686947 L 1492 437.8013347999172 L 1493 439.443464998129 L 1494 441.08491137341707 L 1495 442.72564394835655 L 1496 444.3656327585585 L 1497 446.0048478532172 L 1498 447.64325929565734 L 1499 449.2808371638804 L 1500 450.9175515511113 L 1501 452.5533725663445 L 1502 454.18827033489003 L 1503 455.82221499891904 L 1504 457.45517671800894 L 1505 459.0871256696885 L 1506 460.7180320499824 L 1507 462.34786607395586 L 1508 463.976597976258 L 1509 465.6041980116661 L 1510 467.23063645562826 L 1511 468.85588360480665 L 1512 470.47990977761975 L 1513 472.1026853147846 L 1514 473.72418057985817 L 1515 475.3443659597791 L 1516 476.9632118654079 L 1517 478.58068873206787 L 1518 480.19676702008474 L 1519 481.8114172153261 L 1520 483.42460982974075 L 1521 485.0363154018968 L 1522 486.6465044975201 L 1523 488.2551477100315 L 1524 489.8622156610841 L 1525 491.4676790010997 L 1526 493.0715084098048 L 1527 494.6736745967659 L 1528 496.274148301925 L 1529 497.87290029613314 L 1530 499.469901381685 L 1531 501.06512239285155 L 1532 502.6585341964129 L 1533 504.2501076921907 L 1534 505.83981381357876 L 1535 507.4276235280749 L 1536 509.01350783781027 L 1537 510.59743778007953 L 1538 512.1793844278695 L 1539 513.7593188903877" stroke-linecap="round" stroke-linejoin="round" stroke-miterlimit="10" stroke-width="16"/></g></svg>