<svg version="1.1" xmlns="http://www.w3.org/2000/svg" xmlns:xlink="http://www.w3.org/1999/xlink" width="1560" height="804"><defs/><g><path fill="none" stroke="#02063B" paint-order="fill stroke markers" d=" M 44 482.530469323042 L 45 470.1919309769339 L 46 457.58710459968177 L 47 444.76521176854294 L 48 431.77632170063197 L 49 418.6711557336992 L 50 405.5008892603924 L 51 392.3169518894435 L 52 379.17082661414713 L 53 366.1138487723737 L 54 353.1970055831734 L 55 340.47073704277705 L 56 327.9847389574902 L 57 315.78776888263315 L 58 303.9274557253305 L 59 292.45011375464856 L 60 281.4005617453655 L 61 270.8219479616148 L 62 260.7555816638377 L 63 251.24077179700475 L 64 242.31467349002713 L 65 234.0121429657733 L 66 226.36560142826468 L 67 219.40490845856772 L 68 213.1572454137689 L 69 207.64700928435687 L 70 202.89571742449692 L 71 198.92192352722319 L 72 195.74114517266452 L 73 193.36580323222623 L 74 191.80517336535289 L 75 191.06534979827686 L 76 191.14922152619525 L 77 192.05646103180536 L 78 193.78352556425293 L 79 196.32367097349822 L 80 199.6669780460778 L 81 203.80039123942063 L 82 208.70776966346259 L 83 214.36995011047668 L 84 220.7648218869891 L 85 227.86741315556404 L 86 235.64998844929463 L 87 244.08215697820748 L 88 253.1309913046473 L 89 262.76115592421615 L 90 272.9350452501621 L 91 283.61293046239047 L 92 294.7531146476565 L 93 306.3120956251188 L 94 318.24473582142485 L 95 330.504438531969 L 96 343.04332988002665 L 97 355.8124457632183 L 98 368.7619230572818 L 99 381.8411943305052 L 100 394.9991853084655 L 101 408.18451431797746 L 102 421.3456929314275 L 103 434.43132702798204 L 104 447.39031748652906 L 105 460.17205972665306 L 106 472.72664131843806 L 107 485.00503688943866 L 108 496.95929956771033 L 109 508.5427482133179 L 110 519.7101497071884 L 111 530.4178955854729 L 112 540.6241723296645 L 113 550.2891246474935 L 114 559.3750111069909 L 115 567.8463515159717 L 116 575.6700654714276 L 117 582.8156015377914 L 118 589.2550565496399 L 119 594.9632845729573 L 120 599.9179950994699 L 121 604.0998400906034 L 122 607.4924895311598 L 123 610.0826951976769 L 124 611.8603423924582 L 125 612.8184894412498 L 126 612.9533948003308 L 127 612.264531667161 L 128 610.7545900375335 L 129 608.4294662011991 L 130 605.2982397169807 L 131 601.37313795729 L 132 596.6694883605007 L 133 591.2056585776295 L 134 585.0029847470512 L 135 578.0856881773357 L 136 570.4807807635565 L 137 562.2179595064176 L 138 553.3294905461023 L 139 543.8500831636857 L 140 533.8167542421346 L 141 523.2686837161727 L 142 512.2470615754731 L 143 500.79492701863023 L 144 488.95700038601063 L 145 476.7795085277807 L 146 464.3100042890461 L 147 451.59718081700925 L 148 438.69068141527146 L 149 425.64090568779494 L 150 412.4988127295276 L 151 399.31572213222813 L 152 386.1431135825582 L 153 373.0324258350079 L 154 360.0348558446601 L 155 347.20115884417646 L 156 334.5814501457003 L 157 322.22500944163477 L 158 310.180088368499 L 159 298.49372208532003 L 160 287.211545602343 L 161 276.3776155772931 L 162 266.0342382750699 L 163 256.2218043626883 L 164 246.97863118458815 L 165 238.34081313422413 L 166 230.3420807062319 L 167 223.01366877956838 L 168 216.3841946459776 L 169 210.47954626007927 L 170 205.32278114745964 L 171 200.93403636552767 L 172 197.33044986873682 L 173 194.52609358523964 L 174 192.53191846630932 L 175 191.35571172310958 L 176 191.00206641780156 L 177 191.47236352773442 L 178 192.7647665527583 L 179 194.87422868671817 L 180 197.79251252512384 L 181 201.50822223203815 L 182 206.00684804057258 L 183 211.27082291321625 L 184 217.2795911407416 L 185 224.00968861180894 L 186 231.43483443981924 L 187 239.52603358921368 L 188 248.25169010046713 L 189 257.5777304716339 L 190 267.4677367146438 L 191 277.8830885667659 L 192 288.7831143019082 L 193 300.1252495528378 L 194 311.8652035241237 L 195 323.95713194674533 L 196 336.3538160989821 L 197 349.006847194511 L 198 361.8668154176814 L 199 374.88350286778757 L 200 388.0060796588967 L 201 401.18330240946506 L 202 414.36371434664704 L 203 427.49584624389126 L 204 440.5284174071693 L 205 453.41053592498804 L 206 466.09189740021543 L 207 478.5229813876743 L 208 490.65524477042123 L 209 502.44131131957954 L 210 513.8351566974989 L 211 524.7922881818089 L 212 535.2699184085484 L 213 545.2271324559051 L 214 554.6250476161106 L 215 563.4269652315814 L 216 571.598514002392 L 217 579.1077842054651 L 218 585.9254523013575 L 219 592.0248954420543 L 220 597.3822954326204 L 221 601.9767317407418 L 222 605.7902631909575 L 223 608.8079980245644 L 224 611.0181520516177 L 225 612.4120946679392 L 226 612.984382557443 L 227 612.7327809481676 L 228 611.6582723390129 L 229 609.765052663103 L 230 607.060514902757 L 231 603.5552202200513 L 232 599.2628567157082 L 233 594.2001859773543 L 234 588.3869776258811 L 235 581.8459321154969 L 236 574.6025920889405 L 237 566.6852426340064 L 238 558.1248008308834 L 239 548.9546950216175 L 240 539.2107342731516 L 241 528.9309685436862 L 242 518.1555400984055 L 243 506.9265267547921 L 244 495.28777756964985 L 245 483.28474160947496 L 246 470.96429047282464 L 247 458.3745352577275 L 248 445.5646386888751 L 249 432.5846231382346 L 250 419.48517528875624 L 251 406.31744820396153 L 252 393.1328615763246 L 253 379.9829009344736 L 254 366.9189165933032 L 255 353.9919231320938 L 256 341.2524001836712 L 257 328.7500953125207 L 258 316.53382975161236 L 259 304.6513077565309 L 260 293.14893032137894 L 261 282.07161398388746 L 262 271.4626154272977 L 263 261.36336256393844 L 264 251.81329276011505 L 265 242.84969883403807 L 266 234.50758342816619 L 267 226.81952232463638 L 268 219.8155372375319 L 269 213.52297857873128 L 270 207.96641865513504 L 271 203.16755571433336 L 272 199.14512921341353 L 273 195.9148466417808 L 274 193.4893221837488 L 275 191.8780274604194 L 276 191.08725454320518 L 277 191.12009138342518 L 278 191.97640975392102 L 279 193.6528657497813 L 280 196.14291284621874 L 281 199.43682746260922 L 282 203.5217469328661 L 283 208.38171973387622 L 284 213.99776777585595 L 285 220.34796051138588 L 286 227.40750057372918 L 287 235.148820610018 L 288 243.54169093117633 L 289 252.55333755820922 L 290 262.14857020388905 L 291 272.2899196900744 L 292 282.93778426404856 L 293 294.0505842425166 L 294 305.58492437937866 L 295 317.49576332323755 L 296 329.7365895029118 L 297 342.2596027541258 L 298 355.01590097812857 L 299 367.9556711033428 L 300 381.02838360434305 L 301 394.18298981857157 L 302 407.368121290273 L 303 420.5322903632148 L 304 433.62409123888295 L 305 446.59240071502506 L 306 459.3865778206612 L 307 471.95666156799183 L 308 484.2535660489859 L 309 496.22927211480123 L 310 507.83701488953346 L 311 519.0314663860552 L 312 529.7689125108358 L 313 540.0074237665418 L 314 549.7070189858256 L 315 558.8298214569293 L 316 567.340206831433 L 317 575.2049422365731 L 318 582.3933160488996 L 319 588.8772578225078 L 320 594.6314479035294 L 321 599.633416302839 L 322 603.8636304408803 L 323 607.3055714219718 L 324 609.9457985402403 L 325 611.7740017652904 L 326 612.7830420026525 L 327 612.9689789717929 L 328 612.3310865928266 L 329 610.8718558218422 L 330 608.5969849237728 L 331 605.5153572207923 L 332 601.6390064031337 L 333 596.9830695377852 L 334 591.565727958568 L 335 585.4081362684168 L 336 578.5343397311078 L 337 570.9711803750188 L 338 562.7481921755821 L 339 553.8974857257429 L 340 544.453622844781 L 341 534.4534816151461 L 342 523.9361123743347 L 343 512.9425852241585 L 344 501.51582965287537 L 345 489.70046689645625 L 346 477.5426356936138 L 347 465.0898121150152 L 348 452.39062417024195 L 349 439.49466191645325 L 350 426.452283810274 L 351 413.31442005909935 L 352 400.13237373972476 L 353 386.957620460929 L 354 373.84160735232336 L 355 360.83555216441175 L 356 347.99024326437075 L 357 335.35584130856284 L 358 322.98168336624684 L 359 310.91609025937794 L 360 299.2061778708325 L 361 287.8976731578932 L 362 277.03473558946 L 363 266.65978470426853 L 364 256.81333446349936 L 365 247.5338350446268 L 366 238.85752269429844 L 367 230.81827822656751 L 368 223.44749471903899 L 369 216.77395492357363 L 370 210.8237188702576 L 371 205.6200221035429 L 372 201.1831849479434 L 373 197.53053315760252 L 374 194.67633025959407 L 375 192.63172185515427 L 376 191.4046920963474 L 377 191.00003250812293 L 378 191.41932327751312 L 379 192.66092708303637 L 380 194.71999548840267 L 381 197.5884878755536 L 382 201.25520284310358 L 383 205.7058219475728 L 384 210.92296561660237 L 385 216.8862610158127 L 386 223.57242160428555 L 387 230.95533806800813 L 388 239.0061802761854 L 389 247.69350986228417 L 390 256.98340299018116 L 391 266.8395828260176 L 392 277.22356119845875 L 393 288.0947888941794 L 394 299.4108140016741 L 395 311.1274476850633 L 396 323.1989367405518 L 397 335.57814226171 L 398 348.21672371589534 L 399 361.06532771299726 L 400 374.0737807293699 L 401 387.1912850343677 L 402 400.36661705439684 L 403 413.5483273998738 L 404 426.68494177399083 L 405 439.725161978743 L 406 452.6180662332942 L 407 465.313308022441 L 408 477.7613126986775 L 409 489.9134710701328 L 410 501.72232921842493 L 411 513.1417738051967 L 412 524.1272121437153 L 413 534.6357463323592 L 414 544.6263407700064 L 415 554.0599823991788 L 416 562.8998330511962 L 417 571.111373298437 L 418 578.6625372519643 L 419 585.523837778136 L 420 591.6684816452306 L 421 597.0724741504437 L 422 601.7147128186889 L 423 605.5770698073117 L 424 608.6444626949265 L 425 610.9049133779502 L 426 612.3495948448394 L 427 612.9728656453826 L 428 612.7722919204418 L 429 611.7486569061206 L 430 609.9059578752438 L 431 607.2513905280928 L 432 603.7953208933502 L 433 599.5512448489787 L 434 594.535735421108 L 435 588.7683780667207 L 436 582.2716941928632 L 437 575.0710532110326 L 438 567.1945734701677 L 439 558.6730124550985 L 440 549.5396466792256 L 441 539.8301417404481 L 442 529.5824130477665 L 443 518.8364777624222 L 444 507.63429853173955 L 445 496.0196196258854 L 446 484.0377961174306 L 447 471.73561677076236 L 448 459.16112133296036 L 449 446.36341293961243 L 450 433.3924663681212 L 451 420.2989328872674 L 452 407.13394246508966 L 453 393.94890410745313 L 454 380.7953051069819 L 455 367.7245099862833 L 456 354.787559920586 L 457 342.03497342304314 L 458 329.5165490710199 L 459 317.28117104371404 L 460 305.3766182304828 L 461 293.84937765530196 L 462 282.7444629459324 L 463 272.10523855666685 L 464 261.9732504310639 L 465 252.38806376592734 L 466 243.3871085100598 L 467 235.00553320111314 L 468 227.2760677113014 L 469 220.22889543795026 L 470 213.89153543797624 L 471 208.28873496655845 L 472 203.44237283963682 L 473 199.37137399760374 L 474 196.09163560381728 L 475 193.6159649665181 L 476 191.95402952656497 L 477 191.11231910628518 L 478 191.09412056685719 L 479 191.89950497318796 L 480 193.52532731640616 L 481 195.96523879505446 L 482 199.20971160702337 L 483 203.2460761554144 L 484 208.0585705230452 L 485 213.62840202239846 L 486 219.93382058066467 L 487 226.95020367331108 L 488 234.65015247451282 L 489 243.0035988489817 L 490 251.97792276739077 L 491 261.538079686891 L 492 271.64673739930095 L 493 282.26442181258096 L 494 293.3496710963177 L 495 304.8591975892848 L 496 316.74805683683326 L 497 328.9698230980254 L 498 341.4767706371595 L 499 354.2200600917464 L 500 367.1499291891748 L 501 380.2158870673211 L 502 393.36691144028515 L 503 406.5516478393251 L 504 419.71861015095857 L 505 432.8163816691344 L 506 445.7938158763689 L 507 458.60023616980254 L 508 471.1856337522494 L 509 483.50086291547996 L 510 495.4978329531602 L 511 507.1296959540305 L 512 518.3510297419967 L 513 529.1180152487555 L 514 539.3886076263186 L 515 549.1227004312444 L 516 558.2822822394412 L 517 566.8315850799648 L 518 574.7372241081797 L 519 581.9683279728631 L 520 588.4966593681703 L 521 594.2967252997103 L 522 599.345876634143 L 523 603.6243965435601 L 524 607.1155774992769 L 525 609.8057865143729 L 526 611.6845183802154 L 527 612.7444366890735 L 528 612.9814024826334 L 529 612.3944904145425 L 530 610.9859923638666 L 531 608.7614084853515 L 532 605.7294257314362 L 533 601.9018839298898 L 534 597.2937295495371 L 535 591.922957334618 L 536 585.8105400356962 L 537 578.980346511517 L 538 571.4590485216248 L 539 563.2760165737129 L 540 554.4632052324195 L 541 545.0550283374362 L 542 535.0882246182013 L 543 524.6017142299467 L 544 513.636446771325 L 545 502.23524137710353 L 546 490.44261951035844 L 547 478.30463110711503 L 548 465.86867475233254 L 549 453.18331258944454 L 550 440.29808068622776 L 551 427.2632955975178 L 552 414.12985788013907 L 553 400.94905332731975 L 554 387.7723526987668 L 555 374.6512107284507 L 556 361.6368651949705 L 557 348.7801368391248 L 558 336.1312309100067 L 559 323.73954111458033 L 560 311.65345673631214 L 561 299.92017367605473 L 562 288.5855101530638 L 563 277.6937277858326 L 564 267.2873587514189 L 565 257.40703969820356 L 566 248.09135306064877 L 567 239.3766763957166 L 568 231.29704032928774 L 569 223.88399566729584 L 570 217.16649019050536 L 571 211.17075561404715 L 572 205.92020515313243 L 573 201.43534209494825 L 574 197.73367973375989 L 575 194.82967298187137 L 576 192.73466192350256 L 577 191.45682753200276 L 578 191.00115972332486 L 579 191.36943787051038 L 580 192.5602238552757 L 581 194.56886768383347 L 582 197.38752564501846 L 583 201.00519093981217 L 584 205.40773666265713 L 585 210.57797096672098 L 586 216.49570419769043 L 587 223.13782773393916 L 588 230.4784042252009 L 589 238.4887688773671 L 590 247.13764138789438 L 591 256.39124809471673 L 592 266.2134538616731 L 593 276.5659031854406 L 594 287.4081699729544 L 595 298.69791540443595 L 596 310.3910532655781 L 597 322.4419221032685 L 598 334.803463532587 L 599 347.4274059987915 L 600 360.2644532767065 L 601 373.26447697142686 L 602 386.376712268628 L 603 399.54995617007864 L 604 412.7327674402537 L 605 425.8736674832579 L 606 438.9213413656413 L 607 451.82483820011583 L 608 464.5337701076803 L 609 476.9985089812094 L 610 489.17038028214984 L 611 501.0018531135519 L 612 512.4467258272048 L 613 523.4603064400843 L 614 533.99958715559 L 615 544.0234123080703 L 616 553.4926390748169 L 617 562.3702903279489 L 618 570.6216990293061 L 619 578.2146436044918 L 620 585.1194737674302 L 621 591.3092263040999 L 622 596.759730363307 L 623 601.4497018433424 L 624 605.3608265059426 L 625 608.477831492999 L 626 610.7885449667419 L 627 612.2839436405059 L 628 612.9581880144718 L 629 612.8086451787883 L 630 611.8358990950285 L 631 610.0437483158323 L 632 607.4391911516404 L 633 604.0323983424407 L 634 599.8366733412472 L 635 594.8684003644 L 636 589.146980411552 L 637 582.6947555051794 L 638 575.5369214454627 L 639 567.7014294212258 L 640 559.2188768611426 L 641 550.1223879514317 L 642 540.4474842866191 L 643 530.2319461584707 L 644 519.5156650247626 L 645 508.3404877339914 L 646 496.7500531143264 L 647 484.7896215649199 L 648 472.50589831501674 L 649 459.9468510410336 L 650 447.1615225538094 L 651 434.199839287478 L 652 421.1124163378121 L 653 407.9503598113564 L 654 394.76506725717627 L 655 381.6080269605279 L 656 368.5306168822064 L 657 355.58390402870845 L 658 342.8184450366647 L 659 330.2840887502558 L 660 318.02978156254244 L 661 306.103376280848 L 662 294.55144526257004 L 663 283.41909855112146 L 664 272.7498077221759 L 665 262.5852361280955 L 666 252.96507620343124 L 667 243.92689446681575 L 668 235.50598482451147 L 669 227.73523074846256 L 670 220.6449768670403 L 671 214.26291046991878 L 672 208.61395338980128 L 673 203.72016468319686 L 674 199.60065449027675 L 675 196.27150941018598 L 676 193.74572968321795 L 677 192.03317842515426 L 678 191.14054311200874 L 679 191.07130946557666 L 680 191.82574784176566 L 681 193.40091217486193 L 682 195.79065148185347 L 683 198.98563388188745 L 684 202.97338303706496 L 685 207.73832687227366 L 686 213.2618583838078 L 687 219.52240829931952 L 688 226.49552930536575 L 689 234.15399151364406 L 690 242.46788879312373 L 691 251.4047555528474 L 692 260.92969351936915 L 693 271.00550801376517 L 694 281.5928531960594 L 695 292.65038570988617 L 696 304.1349261274124 L 697 316.0016275640791 L 698 328.2041508047259 L 699 340.69484525723436 L 700 353.4249350270709 L 701 366.3447093861107 L 702 379.4037168919674 L 703 392.5509623997961 L 704 405.73510619724226 L 705 418.9046644849202 L 706 432.00821041954777 L 707 444.9945749346686 L 708 457.81304655476197 L 709 470.4135694224693 L 710 482.74693876564584 L 711 494.764993040943 L 712 506.42080200360454 L 713 517.6688499690679 L 714 528.4652135507383 L 715 538.7677331798737 L 716 548.5361777377984 L 717 557.7324016575603 L 718 566.3204938815536 L 719 574.2669180934306 L 720 581.540643676699 L 721 588.1132668886153 L 722 593.9591217761922 L 723 599.0553804011965 L 724 603.3821419827583 L 725 606.9225106094952 L 726 609.6626612176844 L 727 611.5918935778407 L 728 612.7026740788835 L 729 612.9906651467275 L 730 612.4547421824154 L 731 611.0969979536542 L 732 608.9227344226013 L 733 605.9404420418156 L 734 602.1617665992225 L 735 597.601463741561 L 736 592.2773413538987 L 737 586.2101900202224 L 738 579.4237018366516 L 739 571.9443778943112 L 740 563.8014247931369 L 741 555.0266405907279 L 742 545.6542906316126 L 743 535.7209737418111 L 744 525.2654793112033 L 745 514.3286358217908 L 746 502.9531514133494 L 747 491.1834471090563 L 748 479.06548335234584 L 749 466.64658053236104 L 750 453.97523419884703 L 751 441.1009256880668 L 752 428.0739288992423 L 753 414.94511397605345 L 754 401.7657486598161 L 755 388.5872980900492 L 756 375.4612238342062 L 757 362.4387829313555 L 758 349.57082773453993 L 759 336.90760733342637 L 760 324.49857133268563 L 761 312.3921767523448 L 762 300.63569880416094 L 763 289.27504628293065 L 764 278.3545822936291 L 765 267.9169510144345 L 766 258.00291117212475 L 767 248.6511768801216 L 768 239.8982664607063 L 769 231.77835984175272 L 770 224.32316508484024 L 771 217.56179456595194 L 772 211.52065129226946 L 773 206.2233257989948 L 774 201.69050402881544 L 775 197.93988655374062 L 776 194.98611945474653 L 777 192.84073712914358 L 778 191.51211724900162 L 779 191.00544804651986 L 780 191.3227080540912 L 781 192.4626583781755 L 782 194.42084753715235 L 783 197.1896288442616 L 784 200.75819026775144 L 785 205.1125966516311 L 786 210.23584413215664 L 787 216.10792653755516 L 788 222.7059135116973 L 789 230.00404005664726 L 790 237.97380714442835 L 791 246.58409300511738 L 792 255.80127465669023 L 793 265.5893592020469 L 794 275.91012438050495 L 795 286.7232678249087 L 796 297.9865644415113 L 797 309.65603129806163 L 798 321.6860993762138 L 799 334.0297915175684 L 800 346.63890586847106 L 801 359.46420410721885 L 802 372.45560371865355 L 803 385.5623735653109 L 804 398.7333319914273 L 805 411.9170466862098 L 806 425.06203552590944 L 807 438.11696761041253 L 808 451.03086370930725 L 809 463.7532953346873 L 810 476.2345816633182 L 811 488.42598353918856 L 812 500.27989379887157 L 813 511.75002317647926 L 814 522.791581062255 L 815 533.3614504089464 L 816 543.4183561029521 L 817 552.9230261427565 L 818 561.8383449952562 L 819 570.1294985311216 L 820 577.7641099732277 L 821 584.712366327275 L 822 590.9471348008954 L 823 596.4440687566242 L 824 601.1817027850002 L 825 605.1415365265286 L 826 608.3081069151901 L 827 610.6690485613822 L 828 612.2151420385011 L 829 612.9403498846054 L 830 612.8418401785756 L 831 611.9199975987057 L 832 610.1784219205424 L 833 607.6239139598389 L 834 604.2664490155148 L 835 600.1191379163272 L 836 595.1981758233651 L 837 589.5227789882921 L 838 583.1151097142945 L 839 576.0001898127618 L 840 568.2058028936489 L 841 559.7623858710733 L 842 550.7029101078176 L 843 541.0627526628627 L 844 530.8795581447297 L 845 520.1930917100897 L 846 509.04508378167736 L 847 497.4790670918836 L 848 485.540206688367 L 849 473.2751235655093 L 850 460.7317126104301 L 851 447.95895557447744 L 852 435.00672980053724 L 853 421.9256134530765 L 854 408.76668801149356 L 855 395.58133879803415 L 856 382.4210543192079 L 857 369.33722520427176 L 858 356.38094352592304 L 859 343.6028032868488 L 860 331.0527028512278 L 861 318.77965009268655 L 862 306.83157101960137 L 863 295.25512262506135 L 864 284.09551069230895 L 865 273.3963132671237 L 866 263.19931048648584 L 867 253.54432142803597 L 868 244.4690486174287 L 869 236.00893080077677 L 870 228.19700455710603 L 871 221.0637752912212 L 872 214.63709811075304 L 873 208.94206905255916 L 874 204.00092708323703 L 875 199.8329672564354 L 876 196.45446536608284 L 877 193.87861438976051 L 878 192.11547297040727 L 879 191.1719261375341 L 880 191.0516584213312 L 881 191.7551394646567 L 882 193.27962218909104 L 883 195.61915352221945 L 884 198.7645976442526 L 885 202.70367166320702 L 886 207.42099357933566 L 887 212.8981423515077 L 888 219.1137298309798 L 889 226.0434842816595 L 890 233.660345160715 L 891 241.9345687894159 L 892 250.83384450156217 L 893 260.32342081594413 L 894 270.36624114013296 L 895 280.92308847568097 L 896 291.9527385596616 L 897 303.4121208445335 L 898 315.25648668770737 L 899 327.4395840940373 L 900 339.9138383288723 L 901 352.63053769637696 L 902 365.540023757661 L 903 378.5918852459206 L 904 391.7351549213566 L 905 404.918508597155 L 906 418.0904655593381 L 907 431.19958959785123 L 908 444.1946898638617 L 909 457.0250207689285 L 910 469.640480145439 L 911 481.99180489450134 L 912 494.03076335729105 L 913 505.71034365864716 L 914 516.9849372874381 L 915 527.8105171968222 L 916 538.1448097289226 L 917 547.9474596925576 L 918 557.1801879493976 L 919 565.8069408931821 L 920 573.7940312382797 L 921 581.1102695678181 L 922 587.7270861276895 L 923 593.6186423908288 L 924 598.7619319561088 L 925 603.1368703878446 L 926 606.7263736450848 L 927 609.5164247944258 L 928 611.4961287458373 L 929 612.657754797755 L 930 612.9967668253053 L 931 612.5118409937752 L 932 611.2048709281597 L 933 609.0809603185954 L 934 606.1484029905607 L 935 602.4186505176641 L 936 597.9062675034949 L 937 592.6288747071575 L 938 586.6070802345844 L 939 579.8643990643234 L 940 572.4271612220496 L 941 564.3244089623786 L 942 555.5877833594842 L 943 546.2514007493801 L 944 536.3517195063581 L 945 525.9273976738173 L 946 515.019142005431 L 947 503.6695490061457 L 948 491.9229385937399 L 949 479.8251810304942 L 950 467.4235178007987 L 951 454.76637713416744 L 952 441.90318489403813 L 953 428.88417157083364 L 954 415.7601761329717 L 955 402.58244750178096 L 956 389.4024444255603 L 957 376.2716345342676 L 958 363.2412933595265 L 959 350.3623041047724 L 960 337.6849589474323 L 961 325.25876264904775 L 962 313.13223924024106 L 963 301.3527425354135 L 964 289.96627121711384 L 965 279.0172892121674 L 966 268.54855206099296 L 967 258.600939958133 L 968 249.21329811596814 L 969 240.4222850749947 L 970 232.2622295530083 L 971 224.76499639219546 L 972 217.95986212760687 L 973 211.87340066291452 L 974 206.52937949988655 L 975 201.9486669268015 L 976 198.1491505282291 L 977 195.14566733439534 L 978 192.94994588289703 L 979 191.57056041901342 L 980 191.0128974134618 L 981 191.2791345283448 L 982 192.36823211342627 L 983 194.27593726594344 L 984 196.99480043810095 L 985 200.51420452739578 L 986 204.82040633617513 L 987 209.8965902385293 L 988 215.722933844951 L 989 222.27668540834196 L 990 229.5322526690988 L 991 237.4613027923388 L 992 246.032873007014 L 993 255.2134915148693 L 994 264.9673081970987 L 995 275.2562346082916 L 996 286.0400927109975 L 997 297.27677177010185 L 998 308.9223927943462 L 999 320.9314798828493 L 1000 333.25713780752744 L 1001 345.8512351379564 L 1002 358.6645921935769 L 1003 371.6471730892951 L 1004 384.74828112454315 L 1005 397.91675675280965 L 1006 411.1011773585742 L 1007 424.2500580615205 L 1008 437.31205276389227 L 1009 450.2361546559059 L 1010 462.97189539625157 L 1011 475.4695421898855 L 1012 487.68029199353066 L 1013 499.5564620905164 L 1014 511.05167629076624 L 1015 522.1210460288281 L 1016 532.7213456527617 L 1017 542.8111812193839 L 1018 552.3511521367317 L 1019 561.30400502253 L 1020 569.6347791778526 L 1021 577.3109431079031 L 1022 584.3025215568063 L 1023 590.5822125603403 L 1024 596.1254940595228 L 1025 600.910719658727 L 1026 604.9192031543928 L 1027 608.1352915042518 L 1028 610.5464259521228 L 1029 612.1431910695856 L 1030 612.9193515230277 L 1031 612.8718764224883 L 1032 612.0009511572191 L 1033 610.3099766717429 L 1034 607.8055561852384 L 1035 604.4974694061102 L 1036 600.3986343424372 L 1037 595.525056857427 L 1038 589.8957681668633 L 1039 583.5327505226145 L 1040 576.4608513724119 L 1041 568.7076863310967 L 1042 560.3035313422363 L 1043 551.2812044512114 L 1044 541.6759376514517 L 1045 531.525239304256 L 1046 520.868747669443 L 1047 509.74807611879555 L 1048 498.20665063673437 L 1049 486.28954024277823 L 1050 474.0432809979868 L 1051 461.51569428263883 L 1052 448.7557000547648 L 1053 435.8131258187582 L 1054 422.7385120500369 L 1055 409.58291483556843 L 1056 396.397706500943 L 1057 383.2343750025412 L 1058 370.14432286816634 L 1059 357.1786664712736 L 1060 344.38803642262496 L 1061 331.8223798588386 L 1062 319.5307653998885 L 1063 307.5611915371938 L 1064 295.96039920053715 L 1065 284.77368923573397 L 1066 274.0447455057989 L 1067 263.8154643063959 L 1068 254.12579076169993 L 1069 245.01356283954215 L 1070 236.51436359495506 L 1071 228.6613822191042 L 1072 221.485284436207 L 1073 215.01409275453568 L 1074 209.2730770391224 L 1075 204.284655833477 L 1076 200.06830881565426 L 1077 196.6405007305282 L 1078 194.01461709531537 L 1079 192.20091192941695 L 1080 191.20646771269202 L 1081 191.0351677285257 L 1082 191.68768089969018 L 1083 193.16145917621603 L 1084 195.45074748547262 L 1085 198.54660620560344 L 1086 202.43694607455845 L 1087 207.10657539840332 L 1088 212.53725937455954 L 1089 218.70779129831786 L 1090 225.59407537456667 L 1091 233.169220811356 L 1092 241.40364682786483 L 1093 250.26519816671706 L 1094 259.7192706595734 L 1095 269.72894635566826 L 1096 280.2551376856175 L 1097 291.25674009754016 L 1098 302.6907925694543 L 1099 314.51264537114787 L 1100 326.67613442042045 L 1101 339.1337615528356 L 1102 351.83688000103695 L 1103 364.73588435933357 L 1104 377.7804042917475 L 1105 390.919501227098 L 1106 404.1018672730318 L 1107 417.27602557224486 L 1108 430.3905313185082 L 1109 443.3941726475358 L 1110 456.23617061821824 L 1111 468.8663775033014 L 1112 481.23547261518786 L 1113 493.29515490216687 L 1114 504.99833156298735 L 1115 516.299301943239 L 1116 527.1539359954302 L 1117 537.5198466058781 L 1118 547.3565551154818 L 1119 556.6256493880185 L 1120 565.2909338087146 L 1121 573.318570627346 L 1122 580.677212093929 L 1123 587.3381228710132 L 1124 593.2752922445584 L 1125 598.4655356952179 L 1126 602.8885854333889 L 1127 606.5271695444982 L 1128 609.3670794354582 L 1129 611.3972253189193 L 1130 612.6096795186522 L 1131 612.9997074269537 L 1132 612.5657859931885 L 1133 611.3096096712694 L 1134 609.2360838028512 L 1135 606.3533054620763 L 1136 602.672531836673 L 1137 598.2081362688796 L 1138 592.9775521278493 L 1139 587.0012047327172 L 1140 580.3024315921662 L 1141 572.9073912719552 L 1142 564.8449612462794 L 1143 556.1466251318514 L 1144 546.8463497450516 L 1145 536.9804524622382 L 1146 526.5874594011681 L 1147 515.7079549773327 L 1148 504.3844234226838 L 1149 492.6610828856162 L 1150 480.58371276004544 L 1151 468.1994749178537 L 1152 455.55672954278964 L 1153 442.70484628498565 L 1154 429.6940114735305 L 1155 416.5750321399286 L 1156 403.3991376177289 L 1157 390.21777949307375 L 1158 377.0824306873563 L 1159 364.04438445656376 L 1160 351.1545540922107 L 1161 338.46327410602487 L 1162 326.0201036747565 L 1163 313.87363311265335 L 1164 302.0712941273236 L 1165 290.6591745999325 L 1166 279.6818386130129 L 1167 269.18215242867666 L 1168 259.2011170967781 L 1169 249.7777083466922 L 1170 240.94872438792527 L 1171 232.74864221389424 L 1172 225.20948297000533 L 1173 218.36068691176644 L 1174 212.22899844121937 L 1175 206.8383616706223 L 1176 202.20982692120367 L 1177 198.36146852210842 L 1178 195.3083142305294 L 1179 193.06228654863708 L 1180 191.63215616646383 L 1181 191.02350771254697 L 1182 191.23871794607385 L 1183 192.27694647568808 L 1184 194.1341390411998 L 1185 196.803043345385 L 1186 200.27323737405092 L 1187 204.53117009377846 L 1188 209.56021436841763 L 1189 215.34073188769858 L 1190 221.85014985441273 L 1191 229.06304913070286 L 1192 236.95126349925255 L 1193 245.483989651762 L 1194 254.62790747520762 L 1195 264.3473101661706 L 1196 274.6042436651398 L 1197 285.3586548663021 L 1198 296.5685480240637 L 1199 308.19014874553733 L 1200 320.17807492861016 L 1201 332.48551397808137 L 1202 345.06440560784444 L 1203 357.8656295152758 L 1204 370.8391971949658 L 1205 383.934447142762 L 1206 397.10024268785935 L 1207 410.2851716804048 L 1208 423.43774725484263 L 1209 436.50660888502233 L 1210 449.4407229459543 L 1211 462.1895819990232 L 1212 474.7034020224549 L 1213 486.93331681685606 L 1214 498.8315688266773 L 1215 510.35169563244517 L 1216 521.448711385516 L 1217 532.0792824768527 L 1218 542.2018967538395 L 1219 551.777025624351 L 1220 560.7672784150576 L 1221 569.1375483812045 L 1222 576.8551497976996 L 1223 583.8899455961694 L 1224 590.2144650495671 L 1225 595.8040110447732 L 1226 600.6367565242938 L 1227 604.6938297204529 L 1228 607.9593878492417 L 1229 610.420678976051 L 1230 612.0680918117027 L 1231 612.8951932443285 L 1232 612.8987534605343 L 1233 612.0787585577517 L 1234 610.4384105985282 L 1235 607.9841151065409 L 1236 604.7254560531633 L 1237 600.6751584322631 L 1238 595.8490385693727 L 1239 590.2659423592768 L 1240 583.9476716731964 L 1241 576.9188992229484 L 1242 569.207072214534 L 1243 560.8423051673863 L 1244 551.8572623178168 L 1245 542.2870300658712 L 1246 532.1689799636888 L 1247 521.5426227803902 L 1248 510.4494542133699 L 1249 498.9327928484863 L 1250 487.0376110019103 L 1251 474.8103591041936 L 1252 462.2987843123312 L 1253 449.551744058135 L 1254 436.61901526100854 L 1255 423.5510999501417 L 1256 410.3990280551673 L 1257 397.21415813537834 L 1258 384.0479768256528 L 1259 370.95189778224625 L 1260 357.97706091356446 L 1261 345.17413267991554 L 1262 332.59310824206676 L 1263 320.28311623121147 L 1264 308.29222690271575 L 1265 296.66726442280003 L 1266 285.4536240211718 L 1267 274.69509472362535 L 1268 264.43368835683293 L 1269 254.70947549306075 L 1270 245.56042897544174 L 1271 237.02227563483578 L 1272 229.12835677731974 L 1273 221.90949798710085 L 1274 215.3938887532699 L 1275 209.6069723904496 L 1276 204.57134668319569 L 1277 200.30667564213152 L 1278 196.82961271640775 L 1279 194.15373576233938 L 1280 192.28949402216782 L 1281 191.2441673199933 L 1282 191.0218376342176 L 1283 191.62337315750574 L 1284 193.0464249065123 L 1285 195.285435894611 L 1286 198.33166283180856 L 1287 202.1732102671051 L 1288 206.7950770399757 L 1289 212.1792148595811 L 1290 218.30459878295744 L 1291 225.1473093169683 L 1292 232.68062582341372 L 1293 240.87513086255052 L 1294 249.69882506756494 L 1295 259.11725210141515 L 1296 269.09363320809024 L 1297 279.5890108328651 L 1298 290.5624007507182 L 1299 301.970952108853 L 1300 313.7701147583613 L 1301 325.9138132216011 L 1302 338.35462661595113 L 1303 351.0439738313422 L 1304 363.93230323845285 L 1305 376.96928618676105 L 1306 390.10401353684773 L 1307 403.28519445949655 L 1308 416.4613567252845 L 1309 429.58104770253607 L 1310 442.5930352787491 L 1311 455.44650792089766 L 1312 468.09127309338095 L 1313 480.477953258801 L 1314 492.55817869618915 L 1315 504.28477638373164 L 1316 515.6119542084102 L 1317 526.4954797832232 L 1318 536.8928531737107 L 1319 546.7634728592888 L 1320 556.0687942813182 L 1321 564.7724803587819 L 1322 572.8405433838079 L 1323 580.2414777429417 L 1324 586.9463829458922 L 1325 592.9290764813283 L 1326 598.1661960590249 L 1327 602.6372908391064 L 1328 606.3249012921391 L 1329 609.2146273782195 L 1330 611.2951847788219 L 1331 612.5584489618216 L 1332 612.9994869076178 L 1333 612.6165763724707 L 1334 611.4112126138256 L 1335 609.3881025513649 L 1336 606.5551463865877 L 1337 602.9234067526916 L 1338 598.5070655152269 L 1339 593.3233683922156 L 1340 587.3925576099906 L 1341 580.737792857736 L 1342 573.3850608493963 L 1343 565.3630738461139 L 1344 556.7031575354647 L 1345 547.4391287053177 L 1346 537.6071631900026 L 1347 527.2456546044507 L 1348 516.3950644179503 L 1349 505.0977639529749 L 1350 493.39786892607566 L 1351 481.34106717695266 L 1352 468.9744402584182 L 1353 456.346279583941 L 1354 443.5058978507096 L 1355 430.5034364746056 L 1356 417.3896697890475 L 1357 404.21580677230514 L 1358 391.0332910775357 L 1359 377.89360014641863 L 1360 364.8480441908481 L 1361 351.94756582765314 L 1362 339.24254114876913 L 1363 326.78258300367713 L 1364 314.61634726228806 L 1365 302.7913428148123 L 1366 291.35374605055983 L 1367 280.34822054012807 L 1368 269.81774262511493 L 1369 259.80343359642416 L 1370 250.34439911650472 L 1371 241.47757651257533 L 1372 233.23759053715267 L 1373 225.6566181591334 L 1374 218.76426291341934 L 1375 212.5874392997473 L 1376 207.15026768214338 L 1377 202.4739800994178 L 1378 198.57683735450755 L 1379 195.47405770643198 L 1380 193.17775744331666 L 1381 191.69690356854775 L 1382 191.03727878481575 L 1383 191.20145891278494 L 1384 192.18880283256914 L 1385 193.99545498729094 L 1386 196.61436043894884 L 1387 200.0352924177992 L 1388 204.24489225767334 L 1389 209.2267215612827 L 1390 214.96132639180885 L 1391 221.42631324011035 L 1392 228.59643647089644 L 1393 236.44369690639306 L 1394 244.9374511625325 L 1395 254.04453131071256 L 1396 263.7293743978479 L 1397 273.9541613189409 L 1398 284.678964499877 L 1399 295.86190381374774 L 1400 307.45931012184946 L 1401 319.4258958007359 L 1402 331.71493158941814 L 1403 344.2784290661294 L 1404 357.06732804208434 L 1405 370.0316881404668 L 1406 383.12088381253255 L 1407 396.28380202929355 L 1408 409.4690418768024 L 1409 422.6251152756213 L 1410 435.70064804067044 L 1411 448.64458049632134 L 1412 461.4063668633373 L 1413 473.9361726390601 L 1414 486.18506920007565 L 1415 498.1052248674421 L 1416 509.650091688372 L 1417 520.7745872049921 L 1418 531.4352705003765 L 1419 541.5905118343974 L 1420 551.2006552069696 L 1421 560.2281732138822 L 1422 568.6378135905088 L 1423 576.3967368711467 L 1424 583.4746446264277 L 1425 589.8438977780357 L 1426 595.4796245287172 L 1427 600.3598174861164 L 1428 604.4654196011718 L 1429 607.7803985854846 L 1430 610.2918095170625 L 1431 611.9898453899623 L 1432 612.8678754104386 L 1433 612.9224708900515 L 1434 612.1534186346215 L 1435 610.5637217767481 L 1436 608.1595880486416 L 1437 604.9504055410611 L 1438 600.9487060430217 L 1439 596.170116105426 L 1440 590.6332960197177 L 1441 584.3598669498423 L 1442 577.3743265020651 L 1443 569.7039530623427 L 1444 561.3786992748097 L 1445 552.4310750773443 L 1446 542.8960207509567 L 1447 532.8107704787395 L 1448 522.2147069471793 L 1449 511.14920755760875 L 1450 499.65748284834046 L 1451 487.78440775843893 L 1452 475.576346392044 L 1453 463.0809709675366 L 1454 450.34707565854586 L 1455 437.4243860537455 L 1456 424.3633649794941 L 1457 411.21501544357824 L 1458 398.0306814695584 L 1459 384.8618475994557 L 1460 371.75993784771725 L 1461 358.77611489154015 L 1462 345.96108028171193 L 1463 333.36487645413956 L 1464 321.03669131520854 L 1465 309.02466616406076 L 1466 297.37570770185175 L 1467 286.1353048620864 L 1468 275.3473511773072 L 1469 265.0539733757888 L 1470 255.29536687756578 L 1471 246.10963883217764 L 1472 237.5326593110652 L 1473 229.59792123570938 L 1474 222.3364095884894 L 1475 215.77648041698993 L 1476 209.94375010424184 L 1477 204.8609953372949 L 1478 200.548064164742 L 1479 197.02179849051439 L 1480 194.2959683066072 L 1481 192.38121792155522 L 1482 191.28502439463605 L 1483 191.0116683381136 L 1484 191.56221720153866 L 1485 192.93452110338146 L 1486 195.12322122627282 L 1487 198.11977074307148 L 1488 201.91246819204113 L 1489 206.48650317080802 L 1490 211.8240141706653 L 1491 217.90415832538227 L 1492 224.70319280215114 L 1493 232.19456751684078 L 1494 240.34902881150722 L 1495 249.13473368930192 L 1496 258.51737416069284 L 1497 268.4603112154296 L 1498 278.9247178970943 L 1499 289.86973092153545 L 1500 301.252610247118 L 1501 313.0289059736714 L 1502 325.1526319183986 L 1503 337.5764451909355 L 1504 350.25183106632494 L 1505 363.12929243397934 L 1506 376.15854308283815 L 1507 389.28870406794624 L 1508 402.4685023916447 L 1509 415.64647122352983 L 1510 428.7711508773243 L 1511 441.7912897598507 L 1512 454.6560445074064 L 1513 467.3151785280105 L 1514 479.7192581742205 L 1515 491.8198457804677 L 1516 503.56968881110464 L 1517 514.9229043805458 L 1518 525.8351584249533 L 1519 536.2638388258084 L 1520 546.1682218093215 L 1521 555.5096309718978 L 1522 564.2515883106653 L 1523 572.3599566692958 L 1524 579.8030730428695 L 1525 586.551872221232 L 1526 592.5800002880171 L 1527 597.8639175321274 L 1528 602.3829903698013 L 1529 606.119571918317 L 1530 609.0590709066909 L 1531 611.1900086542794 L 1532 612.5040638947805 L 1533 612.9961052706012 L 1534 612.6642113706988 L 1535 611.5096782336497 L 1536 609.5370142866468 L 1537 606.7539227401878 L 1538 603.171271507203 L 1539 598.8030507640876" stroke-linecap="round" stroke-linejoin="round" stroke-miterlimit="10" stroke-width="16"/></g></svg>