<svg version="1.1" xmlns="http://www.w3.org/2000/svg" xmlns:xlink="http://www.w3.org/1999/xlink" width="1560" height="804"><defs/><g><path fill="none" stroke="#02063B" paint-order="fill stroke markers" d=" M 20 409.9390437393399 L 21 410.3349551588037 L 22 410.73071435855695 L 23 411.1263141109241 L 24 411.52174719114174 L 25 411.91700637749017 L 26 412.3120844514256 L 27 412.70697419771193 L 28 413.1016684045523 L 29 413.49615986372095 L 30 413.89044137069504 L 31 414.2845057247859 L 32 414.67834572927075 L 33 415.0719541915239 L 34 415.46532392314856 L 35 415.8584477401076 L 36 416.251318462855 L 37 416.64392891646713 L 38 417.0362719307734 L 39 417.4283403404876 L 40 417.8201269853384 L 41 418.2116247102003 L 42 418.6028263652245 L 43 418.99372480596895 L 44 419.3843128935294 L 45 419.77458349466946 L 46 420.1645294819509 L 47 420.55414373386384 L 48 420.94341913495686 L 49 421.3323485759668 L 50 421.72092495394895 L 51 422.1091411724063 L 52 422.49699014141936 L 53 422.8844647777758 L 54 423.27155800509956 L 55 423.65826275398024 L 56 424.044571962102 L 57 424.43047857437284 L 58 424.8159755430533 L 59 425.201055827885 L 60 425.5857123962196 L 61 425.96993822314687 L 62 426.35372629162305 L 63 426.7370695925993 L 64 427.1199611251494 L 65 427.5023938965976 L 66 427.88436092264647 L 67 428.2658552275044 L 68 428.6468698440131 L 69 429.02739781377454 L 70 429.40743218727846 L 71 429.7869660240288 L 72 430.1659923926709 L 73 430.54450437111785 L 74 430.9224950466769 L 75 431.2999575161758 L 76 431.6768848860888 L 77 432.0532702726627 L 78 432.42910680204216 L 79 432.8043876103958 L 80 433.17910584404103 L 81 433.55325465956975 L 82 433.92682722397274 L 83 434.2998167147649 L 84 434.67221632010967 L 85 435.04401923894346 L 86 435.4152186810998 L 87 435.7858078674335 L 88 436.1557800299442 L 89 436.5251284119003 L 90 436.89384626796215 L 91 437.26192686430517 L 92 437.629363478743 L 93 437.9961494008503 L 94 438.362277932085 L 95 438.727742385911 L 96 439.09253608791994 L 97 439.4566523759536 L 98 439.82008460022485 L 99 440.1828261234398 L 100 440.54487032091845 L 101 440.90621058071616 L 102 441.266840303744 L 103 441.6267529038896 L 104 441.98594180813706 L 105 442.34440045668737 L 106 442.702122303078 L 107 443.0591008143025 L 108 443.4153294709297 L 109 443.7708017672231 L 110 444.1255112112592 L 111 444.4794513250466 L 112 444.83261564464385 L 113 445.18499772027775 L 114 445.53659111646107 L 115 445.88738941211005 L 116 446.2373862006617 L 117 446.5865750901909 L 118 446.93494970352685 L 119 447.28250367836995 L 120 447.6292306674076 L 121 447.97512433843036 L 122 448.3201783744475 L 123 448.6643864738023 L 124 449.0077423502874 L 125 449.3502397332593 L 126 449.69187236775304 L 127 450.03263401459634 L 128 450.3725184505237 L 129 450.71151946828996 L 130 451.0496308767835 L 131 451.38684650113964 L 132 451.7231601828531 L 133 452.05856577989084 L 134 452.3930571668037 L 135 452.72662823483876 L 136 453.05927289205067 L 137 453.39098506341287 L 138 453.7217586909287 L 139 454.05158773374194 L 140 454.3804661682471 L 141 454.70838798819955 L 142 455.03534720482503 L 143 455.36133784692913 L 144 455.6863539610065 L 145 456.0103896113491 L 146 456.33343888015526 L 147 456.65549586763717 L 148 456.97655469212896 L 149 457.296609490194 L 150 457.61565441673196 L 151 457.93368364508575 L 152 458.2506913671476 L 153 458.5666717934655 L 154 458.88161915334854 L 155 459.19552769497267 L 156 459.50839168548555 L 157 459.8202054111112 L 158 460.13096317725456 L 159 460.44065930860523 L 160 460.7492881492413 L 161 461.05684406273264 L 162 461.36332143224365 L 163 461.66871466063617 L 164 461.9730181705713 L 165 462.27622640461163 L 166 462.57833382532243 L 167 462.8793349153731 L 168 463.1792241776374 L 169 463.47799613529463 L 170 463.7756453319289 L 171 464.07216633162926 L 172 464.3675537190887 L 173 464.6618020997031 L 174 464.9549060996701 L 175 465.2468603660866 L 176 465.5376595670471 L 177 465.82729839174067 L 178 466.11577155054835 L 179 466.4030737751392 L 180 466.6891998185671 L 181 466.9741444553662 L 182 467.2579024816464 L 183 467.5404687151885 L 184 467.8218379955389 L 185 468.10200518410346 L 186 468.3809651642419 L 187 468.6587128413608 L 188 468.9352431430068 L 189 469.2105510189592 L 190 469.4846314413225 L 191 469.7574794046176 L 192 470.0290899258738 L 193 470.29945804471936 L 194 470.5685788234726 L 195 470.83644734723146 L 196 471.1030587239638 L 197 471.3684080845964 L 198 471.63249058310413 L 199 471.89530139659814 L 200 472.1568357254143 L 201 472.4170887932005 L 202 472.67605584700425 L 203 472.93373215735915 L 204 473.1901130183714 L 205 473.4451937478059 L 206 473.6989696871714 L 207 473.951436201806 L 208 474.2025886809614 L 209 474.4524225378874 L 210 474.7009332099154 L 211 474.94811615854195 L 212 475.1939668695117 L 213 475.43848085289954 L 214 475.6816536431928 L 215 475.9234807993728 L 216 476.16395790499587 L 217 476.40308056827405 L 218 476.6408444221554 L 219 476.87724512440354 L 220 477.1122783576772 L 221 477.3459398296088 L 222 477.5782252728831 L 223 477.80913044531496 L 224 478.03865112992685 L 225 478.2667831350258 L 226 478.49352229428024 L 227 478.7188644667957 L 228 478.9428055371907 L 229 479.1653414156718 L 230 479.38646803810826 L 231 479.6061813661065 L 232 479.82447738708345 L 233 480.0413521143401 L 234 480.25680158713436 L 235 480.4708218707533 L 236 480.68340905658476 L 237 480.8945592621893 L 238 481.1042686313706 L 239 481.31253333424604 L 240 481.5193495673167 L 241 481.72471355353684 L 242 481.92862154238287 L 243 482.13106980992166 L 244 482.33205465887875 L 245 482.5315724187059 L 246 482.72961944564787 L 247 482.9261921228093 L 248 483.1212868602206 L 249 483.31490009490335 L 250 483.50702829093575 L 251 483.6976679395168 L 252 483.88681555903065 L 253 484.07446769511006 L 254 484.2606209206996 L 255 484.44527183611797 L 256 484.62841706912053 L 257 484.81005327496047 L 258 484.9901771364501 L 259 485.16878536402135 L 260 485.34587469578594 L 261 485.5214418975949 L 262 485.69548376309757 L 263 485.8679971138003 L 264 486.0389787991243 L 265 486.2084256964635 L 266 486.37633471124116 L 267 486.5427027769666 L 268 486.70752685529146 L 269 486.8708039360646 L 270 487.0325310373876 L 271 487.1927052056691 L 272 487.35132351567836 L 273 487.5083830705992 L 274 487.6638810020828 L 275 487.81781447029965 L 276 487.970180663992 L 277 488.1209768005249 L 278 488.27020012593687 L 279 488.41784791499066 L 280 488.56391747122257 L 281 488.70840612699186 L 282 488.85131124352955 L 283 488.99263021098653 L 284 489.1323604484812 L 285 489.2704994041467 L 286 489.4070445551772 L 287 489.54199340787466 L 288 489.67534349769346 L 289 489.8070923892863 L 290 489.937237676548 L 291 490.0657769826598 L 292 490.1927079601326 L 293 490.31802829085007 L 294 490.4417356861105 L 295 490.5638278866693 L 296 490.6843026627796 L 297 490.8031578142334 L 298 490.9203911704014 L 299 491.0360005902731 L 300 491.1499839624955 L 301 491.26233920541176 L 302 491.3730642670994 L 303 491.48215712540747 L 304 491.58961578799375 L 305 491.695438292361 L 306 491.79962270589283 L 307 491.902167125889 L 308 492.00306967960006 L 309 492.10232852426185 L 310 492.19994184712885 L 311 492.29590786550733 L 312 492.3902248267881 L 313 492.48289100847825 L 314 492.5739047182329 L 315 492.6632642938858 L 316 492.75096810348 L 317 492.8370145452973 L 318 492.9214020478878 L 319 493.0041290700986 L 320 493.08519410110165 L 321 493.16459566042164 L 322 493.2423322979629 L 323 493.3184025940359 L 324 493.3928051593831 L 325 493.4655386352047 L 326 493.5366016931829 L 327 493.60599303550646 L 328 493.6737113948945 L 329 493.73975553461935 L 330 493.8041242485294 L 331 493.86681636107096 L 332 493.92783072730987 L 333 493.9871662329523 L 334 494.044821794365 L 335 494.1007963585956 L 336 494.15508890339095 L 337 494.2076984372167 L 338 494.2586239992749 L 339 494.3078646595216 L 340 494.3554195186839 L 341 494.4012877082764 L 342 494.4454683906171 L 343 494.4879607588425 L 344 494.52876403692244 L 345 494.5678774796745 L 346 494.60530037277715 L 347 494.64103203278324 L 348 494.6750718071322 L 349 494.70741907416203 L 350 494.73807324312077 L 351 494.7670337541771 L 352 494.79430007843064 L 353 494.81987171792167 L 354 494.8437482056402 L 355 494.8659291055345 L 356 494.8864140125189 L 357 494.90520255248146 L 358 494.9222943822906 L 359 494.9376891898015 L 360 494.95138669386165 L 361 494.9633866443162 L 362 494.9736888220122 L 363 494.98229303880305 L 364 494.9891991375515 L 365 494.9944069921328 L 366 494.9979165074369 L 367 494.9997276193701 L 368 494.99984029485654 L 369 494.9982545318383 L 370 494.99497035927595 L 371 494.98998783714774 L 372 494.9833070564485 L 373 494.974928139188 L 374 494.964851238389 L 375 494.95307653808385 L 376 494.93960425331176 L 377 494.9244346301145 L 378 494.90756794553204 L 379 494.8890045075974 L 380 494.8687446553312 L 381 494.84678875873533 L 382 494.82313721878614 L 383 494.79779046742715 L 384 494.7707489675614 L 385 494.7420132130427 L 386 494.7115837286666 L 387 494.6794610701611 L 388 494.6456458241762 L 389 494.61013860827336 L 390 494.5729400709141 L 391 494.53405089144843 L 392 494.49347178010197 L 393 494.4512034779633 L 394 494.4072467569706 L 395 494.36160241989705 L 396 494.31427130033654 L 397 494.26525426268836 L 398 494.2145522021415 L 399 494.16216604465797 L 400 494.1080967469564 L 401 494.052345296494 L 402 493.9949127114491 L 403 493.93580004070213 L 404 493.87500836381656 L 405 493.8125387910193 L 406 493.7483924631804 L 407 493.6825705517921 L 408 493.6150742589475 L 409 493.5459048173187 L 410 493.4750634901341 L 411 493.40255157115547 L 412 493.32837038465425 L 413 493.2525212853875 L 414 493.1750056585729 L 415 493.09582491986373 L 416 493.01498051532286 L 417 492.9324739213963 L 418 492.8483066448865 L 419 492.7624802229245 L 420 492.67499622294196 L 421 492.58585624264265 L 422 492.4950619099732 L 423 492.40261488309335 L 424 492.30851685034565 L 425 492.2127695302247 L 426 492.1153746713457 L 427 492.01633405241256 L 428 491.9156494821854 L 429 491.81332279944746 L 430 491.7093558729716 L 431 491.60375060148624 L 432 491.49650891364035 L 433 491.38763276796874 L 434 491.2771241528558 L 435 491.1649850864994 L 436 491.05121761687434 L 437 490.9358238216942 L 438 490.8188058083741 L 439 490.700165713992 L 440 490.5799057052494 L 441 490.4580279784322 L 442 490.33453475937023 L 443 490.2094283033968 L 444 490.0827108953075 L 445 489.9543848493184 L 446 489.8244525090238 L 447 489.6929162473534 L 448 489.5597784665293 L 449 489.42504159802144 L 450 489.28870810250385 L 451 489.1507804698093 L 452 489.0112612188842 L 453 488.87015289774223 L 454 488.7274580834179 L 455 488.58317938191976 L 456 488.4373194281824 L 457 488.2898808860185 L 458 488.1408664480705 L 459 487.9902788357607 L 460 487.8381207992423 L 461 487.6843951173487 L 462 487.5291045975431 L 463 487.37225207586675 L 464 487.2138404168877 L 465 487.0538725136482 L 466 486.89235128761163 L 467 486.7292796886098 L 468 486.5646606947884 L 469 486.39849731255305 L 470 486.2307925765141 L 471 486.06154954943156 L 472 485.8907713221588 L 473 485.7184610135863 L 474 485.5446217705846 L 475 485.3692567679471 L 476 485.1923692083315 L 477 485.013962322202 L 478 484.8340393677698 L 479 484.65260363093375 L 480 484.4696584252205 L 481 484.2852070917237 L 482 484.0992529990432 L 483 483.9117995432235 L 484 483.7228501476916 L 485 483.53240826319455 L 486 483.3404773677366 L 487 483.1470609665153 L 488 482.9521625918579 L 489 482.7557858031565 L 490 482.5579341868034 L 491 482.35861135612515 L 492 482.157820951317 L 493 481.95556663937606 L 494 481.7518521140347 L 495 481.5466810956928 L 496 481.34005733134984 L 497 481.1319845945366 L 498 480.92246668524615 L 499 480.71150742986435 L 500 480.4991106811004 L 501 480.2852803179158 L 502 480.07002024545415 L 503 479.85333439496947 L 504 479.6352267237544 L 505 479.4157012150682 L 506 479.19476187806373 L 507 478.9724127477143 L 508 478.74865788474017 L 509 478.5235013755339 L 510 478.29694733208646 L 511 478.06899989191135 L 512 477.8396632179697 L 513 477.6089414985938 L 514 477.3768389474109 L 515 477.1433598032658 L 516 476.9085083301442 L 517 476.672288817094 L 518 476.4347055781476 L 519 476.19576295224283 L 520 475.95546530314357 L 521 475.7138170193605 L 522 475.4708225140704 L 523 475.2264862250361 L 524 474.9808126145251 L 525 474.73380616922805 L 526 474.48547140017695 L 527 474.2358128426627 L 528 473.9848350561525 L 529 473.73254262420613 L 530 473.4789401543926 L 531 473.22403227820587 L 532 472.96782365098034 L 533 472.7103189518057 L 534 472.45152288344156 L 535 472.19144017223164 L 536 471.9300755680174 L 537 471.6674338440511 L 538 471.403519796909 L 539 471.13833824640335 L 540 470.8718940354948 L 541 470.60419203020354 L 542 470.3352371195206 L 543 470.06503421531886 L 544 469.7935882522628 L 545 469.5209041877187 L 546 469.2469870016642 L 547 468.9718416965969 L 548 468.69547329744375 L 549 468.4178868514684 L 550 468.1390874281797 L 551 467.8590801192388 L 552 467.5778700383663 L 553 467.2954623212487 L 554 467.0118621254448 L 555 466.7270746302914 L 556 466.44110503680855 L 557 466.15395856760506 L 558 465.8656404667825 L 559 465.5761559998399 L 560 465.28551045357733 L 561 464.9937091359995 L 562 464.70075737621875 L 563 464.40666052435756 L 564 464.1114239514513 L 565 463.8150530493496 L 566 463.51755323061826 L 567 463.2189299284402 L 568 462.91918859651645 L 569 462.61833470896613 L 570 462.31637376022707 L 571 462.01331126495495 L 572 461.70915275792277 L 573 461.40390379391994 L 574 461.0975699476506 L 575 460.7901568136318 L 576 460.4816700060916 L 577 460.1721151588662 L 578 459.8614979252972 L 579 459.54982397812853 L 580 459.2370990094025 L 581 458.92332873035616 L 582 458.60851887131685 L 583 458.29267518159736 L 584 457.9758034293915 L 585 457.65790940166795 L 586 457.3389989040654 L 587 457.01907776078605 L 588 456.6981518144891 L 589 456.3762269261846 L 590 456.0533089751258 L 591 455.7294038587023 L 592 455.404517492332 L 593 455.07865580935317 L 594 454.7518247609161 L 595 454.4240303158746 L 596 454.09527846067647 L 597 453.76557519925484 L 598 453.43492655291794 L 599 453.1033385602396 L 600 452.7708172769486 L 601 452.4373687758183 L 602 452.1029991465557 L 603 451.76771449569003 L 604 451.43152094646155 L 605 451.09442463870954 L 606 450.75643172876005 L 607 450.4175483893138 L 608 450.0777808093332 L 609 449.7371351939292 L 610 449.3956177642484 L 611 449.053234757359 L 612 448.70999242613715 L 613 448.3658970391527 L 614 448.02095488055465 L 615 447.6751722499564 L 616 447.3285554623208 L 617 446.9811108478448 L 618 446.6328447518436 L 619 446.2837635346351 L 620 445.9338735714237 L 621 445.5831812521835 L 622 445.2316929815422 L 623 444.8794151786636 L 624 444.5263542771305 L 625 444.1725167248276 L 626 443.81790898382303 L 627 443.46253753025115 L 628 443.1064088541935 L 629 442.7495294595608 L 630 442.39190586397405 L 631 442.0335445986453 L 632 441.67445220825863 L 633 441.31463525085053 L 634 440.95410029769 L 635 440.5928539331588 L 636 440.23090275463096 L 637 439.8682533723525 L 638 439.50491240932047 L 639 439.14088650116224 L 640 438.7761822960142 L 641 438.41080645440024 L 642 438.04476564911033 L 643 437.6780665650785 L 644 437.3107158992608 L 645 436.942720360513 L 646 436.5740866694681 L 647 436.2048215584135 L 648 435.83493177116816 L 649 435.46442406295927 L 650 435.09330520029914 L 651 434.72158196086133 L 652 434.34926113335723 L 653 433.9763495174116 L 654 433.6028539234389 L 655 433.22878117251855 L 656 432.8541380962704 L 657 432.4789315367302 L 658 432.1031683462245 L 659 431.7268553872453 L 660 431.3499995323251 L 661 430.97260766391116 L 662 430.59468667423977 L 663 430.2162434652106 L 664 429.83728494826045 L 665 429.457818044237 L 666 429.0778496832727 L 667 428.6973868046578 L 668 428.31643635671406 L 669 427.9350052966674 L 670 427.5531005905212 L 671 427.1707292129289 L 672 426.78789814706676 L 673 426.4046143845061 L 674 426.02088492508585 L 675 425.6367167767847 L 676 425.2521169555927 L 677 424.8670924853839 L 678 424.48165039778735 L 679 424.09579773205905 L 680 423.70954153495325 L 681 423.32288886059393 L 682 422.93584677034573 L 683 422.5484223326853 L 684 422.16062262307173 L 685 421.772454723818 L 686 421.383925723961 L 687 420.99504271913247 L 688 420.6058128114291 L 689 420.2162431092832 L 690 419.82634072733265 L 691 419.4361127862909 L 692 419.04556641281704 L 693 418.6547087393858 L 694 418.26354690415684 L 695 417.87208805084487 L 696 417.48033932858897 L 697 417.088307891822 L 698 416.69600090013995 L 699 416.3034255181713 L 700 415.910588915446 L 701 415.51749826626474 L 702 415.12416074956764 L 703 414.7305835488035 L 704 414.33677385179834 L 705 413.9427388506242 L 706 413.54848574146786 L 707 413.1540217244993 L 708 412.75935400374027 L 709 412.3644897869328 L 710 411.9694362854074 L 711 411.57420071395154 L 712 411.1787902906778 L 713 410.78321223689187 L 714 410.3874737769611 L 715 409.9915821381821 L 716 409.5955445506491 L 717 409.1993682471216 L 718 408.80306046289263 L 719 408.4066284356564 L 720 408.01007940537596 L 721 407.61342061415144 L 722 407.2166593060872 L 723 406.81980272716015 L 724 406.42285812508686 L 725 406.0258327491917 L 726 405.628733850274 L 727 405.23156868047585 L 728 404.83434449314973 L 729 404.4370685427259 L 730 404.0397480845799 L 731 403.6423903749002 L 732 403.2450026705555 L 733 402.84759222896236 L 734 402.45016630795254 L 735 402.0527321656406 L 736 401.655297060291 L 737 401.25786825018605 L 738 400.860452993493 L 739 400.4630585481315 L 740 400.0656921716413 L 741 399.66836112104926 L 742 399.2710726527374 L 743 398.87383402230984 L 744 398.47665248446066 L 745 398.0795352928411 L 746 397.6824896999275 L 747 397.28552295688837 L 748 396.8886423134524 L 749 396.4918550177757 L 750 396.09516831630975 L 751 395.69858945366866 L 752 395.30212567249725 L 753 394.90578421333873 L 754 394.5095723145021 L 755 394.11349721193056 L 756 393.71756613906865 L 757 393.3217863267309 L 758 392.92616500296907 L 759 392.53070939294065 L 760 392.1354267187767 L 761 391.7403241994501 L 762 391.3454090506433 L 763 390.95068848461705 L 764 390.55616971007856 L 765 390.16185993204954 L 766 389.7677663517349 L 767 389.3738961663913 L 768 388.9802565691955 L 769 388.5868547491129 L 770 388.19369789076677 L 771 387.80079317430636 L 772 387.4081477752763 L 773 387.01576886448527 L 774 386.6236636078752 L 775 386.2318391663903 L 776 385.8403026958461 L 777 385.44906134679934 L 778 385.0581222644168 L 779 384.667492588345 L 780 384.27717945257984 L 781 383.8871899853365 L 782 383.4975313089187 L 783 383.1082105395893 L 784 382.71923478744 L 785 382.3306111562613 L 786 381.94234674341317 L 787 381.55444863969524 L 788 381.16692392921715 L 789 380.77977968926956 L 790 380.3930229901944 L 791 380.00666089525635 L 792 379.62070046051315 L 793 379.2351487346874 L 794 378.85001275903727 L 795 378.4652995672284 L 796 378.081016185205 L 797 377.69716963106185 L 798 377.3137669149161 L 799 376.930815038779 L 800 376.5483209964283 L 801 376.16629177328036 L 802 375.7847343462628 L 803 375.4036556836867 L 804 375.02306274511955 L 805 374.64296248125834 L 806 374.26336183380243 L 807 373.8842677353266 L 808 373.5056871091547 L 809 373.12762686923315 L 810 372.7500939200047 L 811 372.3730951562822 L 812 371.99663746312285 L 813 371.6207277157023 L 814 371.2453727791892 L 815 370.8705795086199 L 816 370.496354748773 L 817 370.1227053340445 L 818 369.7496380883231 L 819 369.3771598248654 L 820 369.0052773461714 L 821 368.6339974438607 L 822 368.26332689854786 L 823 367.89327247971903 L 824 367.5238409456081 L 825 367.1550390430733 L 826 366.7868735074741 L 827 366.4193510625482 L 828 366.05247842028837 L 829 365.6862622808204 L 830 365.32070933228044 L 831 364.95582625069284 L 832 364.5916196998484 L 833 364.22809633118254 L 834 363.86526278365375 L 835 363.50312568362256 L 836 363.14169164473043 L 837 362.7809672677788 L 838 362.4209591406089 L 839 362.061673837981 L 840 361.7031179214547 L 841 361.34529793926896 L 842 360.9882204262224 L 843 360.63189190355433 L 844 360.276318878825 L 845 359.92150784579746 L 846 359.5674652843185 L 847 359.2141976602005 L 848 358.86171142510335 L 849 358.51001301641645 L 850 358.15910885714146 L 851 357.8090053557747 L 852 357.45970890619014 L 853 357.11122588752295 L 854 356.76356266405253 L 855 356.4167255850866 L 856 356.0707209848453 L 857 355.72555518234515 L 858 355.38123448128397 L 859 355.0377651699256 L 860 354.69515352098523 L 861 354.3534057915146 L 862 354.0125282227879 L 863 353.6725270401878 L 864 353.33340845309147 L 865 352.99517865475775 L 866 352.6578438222134 L 867 352.3214101161408 L 868 351.985883680765 L 869 351.651270643742 L 870 351.3175771160463 L 871 350.98480919185994 L 872 350.6529729484604 L 873 350.3220744461104 L 874 349.99211972794666 L 875 349.66311481986986 L 876 349.3350657304345 L 877 349.0079784507391 L 878 348.6818589543167 L 879 348.35671319702607 L 880 348.0325471169428 L 881 347.70936663425067 L 882 347.38717765113375 L 883 347.0659860516686 L 884 346.7457977017166 L 885 346.42661844881707 L 886 346.10845412208045 L 887 345.79131053208164 L 888 345.4751934707541 L 889 345.16010871128395 L 890 344.8460620080046 L 891 344.5330590962917 L 892 344.22110569245814 L 893 343.91020749365003 L 894 343.60037017774243 L 895 343.2915994032357 L 896 342.98390080915203 L 897 342.67728001493276 L 898 342.3717426203355 L 899 342.0672942053319 L 900 341.7639403300058 L 901 341.4616865344518 L 902 341.1605383386737 L 903 340.86050124248413 L 904 340.56158072540387 L 905 340.26378224656185 L 906 339.96711124459534 L 907 339.6715731375508 L 908 339.3771733227848 L 909 339.08391717686555 L 910 338.7918100554746 L 911 338.5008572933091 L 912 338.2110642039843 L 913 337.92243607993663 L 914 337.634978192327 L 915 337.3486957909445 L 916 337.0635941041104 L 917 336.77967833858304 L 918 336.49695367946225 L 919 336.2154252900952 L 920 335.93509831198156 L 921 335.6559778646799 L 922 335.37806904571426 L 923 335.1013769304809 L 924 334.82590657215553 L 925 334.5516630016013 L 926 334.27865122727667 L 927 334.0068762351441 L 928 333.7363429885789 L 929 333.46705642827857 L 930 333.19902147217266 L 931 332.93224301533303 L 932 332.666725929884 L 933 332.40247506491414 L 934 332.1394952463869 L 935 331.877791277053 L 936 331.61736793636265 L 937 331.35822998037804 L 938 331.10038214168674 L 939 330.843829129315 L 940 330.58857562864205 L 941 330.33462630131424 L 942 330.08198578516027 L 943 329.83065869410603 L 944 329.5806496180907 L 945 329.33196312298287 L 946 329.08460375049685 L 947 328.8385760181102 L 948 328.5938844189808 L 949 328.3505334218652 L 950 328.10852747103655 L 951 327.86787098620385 L 952 327.628568362431 L 953 327.39062397005654 L 954 327.154042154614 L 955 326.91882723675224 L 956 326.6849835121569 L 957 326.4525152514718 L 958 326.22142670022083 L 959 325.9917220787304 L 960 325.76340558205266 L 961 325.5364813798887 L 962 325.3109536165122 L 963 325.08682641069424 L 964 324.86410385562743 L 965 324.6427900188518 L 966 324.4228889421801 L 967 324.20440464162414 L 968 323.9873411073214 L 969 323.77170230346223 L 970 323.5574921682172 L 971 323.3447146136657 L 972 323.13337352572387 L 973 322.92347276407406 L 974 322.71501616209423 L 975 322.5080075267879 L 976 322.3024506387146 L 977 322.09834925192104 L 978 321.89570709387215 L 979 321.6945278653834 L 980 321.49481524055307 L 981 321.296572866695 L 982 321.09980436427213 L 983 320.9045133268306 L 984 320.7107033209336 L 985 320.5183778860967 L 986 320.3275405347229 L 987 320.1381947520387 L 988 319.9503439960303 L 989 319.7639916973807 L 990 319.57914125940647 L 991 319.3957960579964 L 992 319.2139594415492 L 993 319.0336347309126 L 994 318.8548252193227 L 995 318.6775341723439 L 996 318.501764827809 L 997 318.3275203957603 L 998 318.15480405839094 L 999 317.9836189699868 L 1000 317.81396825686875 L 1001 317.6458550173357 L 1002 317.47928232160797 L 1003 317.3142532117712 L 1004 317.15077070172083 L 1005 316.98883777710705 L 1006 316.8284573952803 L 1007 316.6696324852371 L 1008 316.51236594756676 L 1009 316.3566606543984 L 1010 316.20251944934836 L 1011 316.0499451474683 L 1012 315.8989405351938 L 1013 315.7495083702936 L 1014 315.6016513818191 L 1015 315.45537227005457 L 1016 315.3106737064677 L 1017 315.167558333661 L 1018 315.02602876532353 L 1019 314.88608758618307 L 1020 314.7477373519588 L 1021 314.610980589315 L 1022 314.4758197958145 L 1023 314.34225743987344 L 1024 314.21029596071577 L 1025 314.0799377683291 L 1026 313.95118524342047 L 1027 313.8240407373728 L 1028 313.6985065722023 L 1029 313.5745850405157 L 1030 313.45227840546835 L 1031 313.3315889007234 L 1032 313.2125187304103 L 1033 313.0950700690852 L 1034 312.9792450616907 L 1035 312.8650458235171 L 1036 312.75247444016344 L 1037 312.64153296749964 L 1038 312.53222343162884 L 1039 312.42454782885045 L 1040 312.3185081256236 L 1041 312.21410625853144 L 1042 312.1113441342454 L 1043 312.0102236294909 L 1044 311.91074659101247 L 1045 311.8129148355405 L 1046 311.71673014975784 L 1047 311.62219429026726 L 1048 311.52930898355925 L 1049 311.4380759259806 L 1050 311.3484967837035 L 1051 311.2605731926948 L 1052 311.17430675868644 L 1053 311.089699057146 L 1054 311.0067516332479 L 1055 310.92546600184534 L 1056 310.8458436474424 L 1057 310.7678860241671 L 1058 310.6915945557448 L 1059 310.6169706354721 L 1060 310.5440156261916 L 1061 310.47273086026684 L 1062 310.40311763955805 L 1063 310.3351772353983 L 1064 310.2689108885703 L 1065 310.2043198092839 L 1066 310.1414051771537 L 1067 310.08016814117775 L 1068 310.0206098197165 L 1069 309.96273130047234 L 1070 309.90653364046966 L 1071 309.8520178660357 L 1072 309.79918497278175 L 1073 309.74803592558504 L 1074 309.6985716585708 L 1075 309.65079307509575 L 1076 309.60470104773106 L 1077 309.56029641824665 L 1078 309.51757999759593 L 1079 309.4765525659009 L 1080 309.4372148724376 L 1081 309.39956763562304 L 1082 309.3636115430016 L 1083 309.32934725123243 L 1084 309.296775386078 L 1085 309.2658965423921 L 1086 309.23671128410916 L 1087 309.209220144234 L 1088 309.18342362483224 L 1089 309.1593221970207 L 1090 309.1369163009593 L 1091 309.1162063458426 L 1092 309.0971927098927 L 1093 309.0798757403519 L 1094 309.0642557534769 L 1095 309.05033303453246 L 1096 309.0381078377866 L 1097 309.02758038650575 L 1098 309.0187508729508 L 1099 309.01161945837345 L 1100 309.00618627301344 L 1101 309.00245141609594 L 1102 309.00041495582997 L 1103 309.000076929407 L 1104 309.00143734300036 L 1105 309.0044961717651 L 1106 309.00925335983834 L 1107 309.0157088203405 L 1108 309.0238624353767 L 1109 309.033714056039 L 1110 309.04526350240917 L 1111 309.0585105635618 L 1112 309.0734549975684 L 1113 309.09009653150144 L 1114 309.10843486143995 L 1115 309.1284696524742 L 1116 309.15020053871285 L 1117 309.1736271232887 L 1118 309.1987489783665 L 1119 309.2255656451505 L 1120 309.2540766338931 L 1121 309.28428142390334 L 1122 309.316179463557 L 1123 309.3497701703061 L 1124 309.38505293069 L 1125 309.4220271003463 L 1126 309.4606920040227 L 1127 309.50104693558933 L 1128 309.5430911580518 L 1129 309.5868239035644 L 1130 309.6322443734442 L 1131 309.6793517381858 L 1132 309.72814513747625 L 1133 309.778623680211 L 1134 309.8307864445099 L 1135 309.88463247773427 L 1136 309.9401607965042 L 1137 309.99737038671645 L 1138 310.05626020356317 L 1139 310.11682917155065 L 1140 310.1790761845194 L 1141 310.2430001056639 L 1142 310.3085997675537 L 1143 310.3758739721546 L 1144 310.4448214908504 L 1145 310.51544106446573 L 1146 310.5877314032886 L 1147 310.6616911870943 L 1148 310.7373190651691 L 1149 310.81461365633555 L 1150 310.89357354897703 L 1151 310.974197301064 L 1152 311.05648344018005 L 1153 311.140430463549 L 1154 311.2260368380623 L 1155 311.31330100030686 L 1156 311.40222135659377 L 1157 311.4927962829874 L 1158 311.58502412533494 L 1159 311.67890319929677 L 1160 311.7744317903771 L 1161 311.8716081539553 L 1162 311.9704305153179 L 1163 312.0708970696907 L 1164 312.17300598227206 L 1165 312.2767553882662 L 1166 312.3821433929173 L 1167 312.4891680715442 L 1168 312.59782746957535 L 1169 312.7081196025848 L 1170 312.8200424563281 L 1171 312.9335939867794 L 1172 313.04877212016845 L 1173 313.16557475301886 L 1174 313.28399975218616 L 1175 313.404044954897 L 1176 313.52570816878864 L 1177 313.64898717194865 L 1178 313.77387971295593 L 1179 313.9003835109217 L 1180 314.0284962555309 L 1181 314.15821560708474 L 1182 314.2895391965432 L 1183 314.4224646255684 L 1184 314.55698946656844 L 1185 314.6931112627414 L 1186 314.8308275281208 L 1187 314.9701357476204 L 1188 315.1110333770806 L 1189 315.2535178433147 L 1190 315.3975865441556 L 1191 315.5432368485041 L 1192 315.690466096376 L 1193 315.8392715989515 L 1194 315.9896506386238 L 1195 316.14160046904897 L 1196 316.2951183151959 L 1197 316.45020137339725 L 1198 316.6068468114004 L 1199 316.7650517684193 L 1200 316.92481335518687 L 1201 317.08612865400727 L 1202 317.24899471880974 L 1203 317.4134085752022 L 1204 317.57936722052534 L 1205 317.7468676239079 L 1206 317.9159067263217 L 1207 318.0864814406374 L 1208 318.2585886516814 L 1209 318.4322252162921 L 1210 318.6073879633779 L 1211 318.7840736939745 L 1212 318.9622791813039 L 1213 319.14200117083294 L 1214 319.3232363803329 L 1215 319.50598149993937 L 1216 319.6902331922129 L 1217 319.8759880921994 L 1218 320.06324280749254 L 1219 320.25199391829466 L 1220 320.44223797748 L 1221 320.63397151065715 L 1222 320.827191016233 L 1223 321.021892965476 L 1224 321.21807380258156 L 1225 321.41572994473586 L 1226 321.61485778218236 L 1227 321.8154536782868 L 1228 322.0175139696044 L 1229 322.2210349659462 L 1230 322.4260129504467 L 1231 322.6324441796317 L 1232 322.84032488348674 L 1233 323.04965126552577 L 1234 323.26041950286066 L 1235 323.47262574627086 L 1236 323.686266120274 L 1237 323.9013367231962 L 1238 324.1178336272437 L 1239 324.33575287857457 L 1240 324.55509049737054 L 1241 324.7758424779103 L 1242 324.99800478864205 L 1243 325.2215733722575 L 1244 325.446544145766 L 1245 325.67291300056866 L 1246 325.90067580253395 L 1247 326.1298283920729 L 1248 326.36036658421506 L 1249 326.59228616868495 L 1250 326.8255829099791 L 1251 327.06025254744327 L 1252 327.29629079535005 L 1253 327.5336933429777 L 1254 327.77245585468836 L 1255 328.0125739700073 L 1256 328.2540433037028 L 1257 328.4968594458661 L 1258 328.741017961992 L 1259 328.98651439305945 L 1260 329.2333442556136 L 1261 329.4815030418474 L 1262 329.7309862196838 L 1263 329.98178923285866 L 1264 330.233907501004 L 1265 330.48733641973155 L 1266 330.7420713607168 L 1267 330.9981076717837 L 1268 331.25544067698956 L 1269 331.5140656767103 L 1270 331.7739779477264 L 1271 332.0351727433092 L 1272 332.2976452933076 L 1273 332.5613908042349 L 1274 332.8264044593568 L 1275 333.09268141877897 L 1276 333.3602168195356 L 1277 333.62900577567825 L 1278 333.89904337836504 L 1279 334.1703246959502 L 1280 334.4428447740745 L 1281 334.716598635755 L 1282 334.9915812814769 L 1283 335.267787689284 L 1284 335.54521281487087 L 1285 335.82385159167495 L 1286 336.10369893096885 L 1287 336.38474972195354 L 1288 336.6669988318516 L 1289 336.9504411060008 L 1290 337.23507136794854 L 1291 337.52088441954606 L 1292 337.80787504104376 L 1293 338.096037991186 L 1294 338.3853680073074 L 1295 338.67585980542856 L 1296 338.9675080803526 L 1297 339.2603075057623 L 1298 339.554252734317 L 1299 339.84933839775067 L 1300 340.14555910696953 L 1301 340.44290945215073 L 1302 340.74138400284124 L 1303 341.04097730805665 L 1304 341.3416838963811 L 1305 341.643498276067 L 1306 341.9464149351354 L 1307 342.2504283414766 L 1308 342.5555329429512 L 1309 342.86172316749156 L 1310 343.16899342320346 L 1311 343.4773380984683 L 1312 343.78675156204565 L 1313 344.09722816317577 L 1314 344.4087622316833 L 1315 344.7213480780803 L 1316 345.0349799936707 L 1317 345.34965225065406 L 1318 345.6653591022303 L 1319 345.982094782705 L 1320 346.29985350759426 L 1321 346.61862947373055 L 1322 346.9384168593686 L 1323 347.25920982429193 L 1324 347.58100250991924 L 1325 347.90378903941144 L 1326 348.2275635177793 L 1327 348.5523200319906 L 1328 348.8780526510785 L 1329 349.20475542624985 L 1330 349.5324223909936 L 1331 349.8610475611898 L 1332 350.1906249352192 L 1333 350.5211484940725 L 1334 350.8526122014604 L 1335 351.18501000392376 L 1336 351.5183358309445 L 1337 351.852583595056 L 1338 352.1877471919545 L 1339 352.5238205006106 L 1340 352.86079738338094 L 1341 353.1986716861205 L 1342 353.5374372382947 L 1343 353.87708785309223 L 1344 354.2176173275382 L 1345 354.55901944260717 L 1346 354.9012879633368 L 1347 355.24441663894186 L 1348 355.58839920292814 L 1349 355.93322937320715 L 1350 356.27890085221065 L 1351 356.62540732700575 L 1352 356.97274246941015 L 1353 357.3208999361078 L 1354 357.66987336876485 L 1355 358.0196563941453 L 1356 358.3702426242279 L 1357 358.72162565632266 L 1358 359.0737990731876 L 1359 359.42675644314625 L 1360 359.7804913202048 L 1361 360.13499724417017 L 1362 360.49026774076754 L 1363 360.84629632175904 L 1364 361.20307648506207 L 1365 361.5606017148678 L 1366 361.9188654817607 L 1367 362.27786124283716 L 1368 362.63758244182554 L 1369 362.99802250920555 L 1370 363.35917486232836 L 1371 363.72103290553684 L 1372 364.0835900302859 L 1373 364.4468396152634 L 1374 364.8107750265107 L 1375 365.17538961754434 L 1376 365.5406767294768 L 1377 365.9066296911386 L 1378 366.27324181920005 L 1379 366.64050641829317 L 1380 367.008416781134 L 1381 367.37696618864504 L 1382 367.74614791007815 L 1383 368.1159552031374 L 1384 368.48638131410206 L 1385 368.8574194779501 L 1386 369.22906291848165 L 1387 369.60130484844274 L 1388 369.9741384696495 L 1389 370.34755697311186 L 1390 370.7215535391584 L 1391 371.09612133756036 L 1392 371.4712535276569 L 1393 371.8469432584799 L 1394 372.22318366887856 L 1395 372.59996788764556 L 1396 372.97728903364185 L 1397 373.3551402159227 L 1398 373.73351453386334 L 1399 374.1124050772852 L 1400 374.49180492658184 L 1401 374.87170715284554 L 1402 375.25210481799377 L 1403 375.63299097489585 L 1404 376.0143586674999 L 1405 376.3962009309598 L 1406 376.7785107917626 L 1407 377.16128126785543 L 1408 377.54450536877346 L 1409 377.9281760957674 L 1410 378.3122864419313 L 1411 378.69682939233047 L 1412 379.0817979241298 L 1413 379.46718500672154 L 1414 379.8529836018545 L 1415 380.23918666376164 L 1416 380.6257871392896 L 1417 381.0127779680269 L 1418 381.40015208243324 L 1419 381.78790240796826 L 1420 382.1760218632212 L 1421 382.56450336003974 L 1422 382.95333980365973 L 1423 383.3425240928347 L 1424 383.7320491199656 L 1425 384.12190777123044 L 1426 384.51209292671433 L 1427 384.90259746053954 L 1428 385.2934142409956 L 1429 385.6845361306696 L 1430 386.0759559865763 L 1431 386.4676666602888 L 1432 386.8596609980692 L 1433 387.2519318409991 L 1434 387.6444720251101 L 1435 388.037274381515 L 1436 388.4303317365386 L 1437 388.82363691184884 L 1438 389.21718272458753 L 1439 389.610961987502 L 1440 390.00496750907587 L 1441 390.3991920936609 L 1442 390.7936285416079 L 1443 391.18826964939865 L 1444 391.58310820977715 L 1445 391.9781370118815 L 1446 392.3733488413752 L 1447 392.76873648057943 L 1448 393.1642927086044 L 1449 393.5600103014816 L 1450 393.9558820322953 L 1451 394.351900671315 L 1452 394.74805898612703 L 1453 395.1443497417671 L 1454 395.540765700852 L 1455 395.9372996237119 L 1456 396.3339442685229 L 1457 396.7306923914387 L 1458 397.12753674672337 L 1459 397.5244700868834 L 1460 397.92148516280037 L 1461 398.3185747238628 L 1462 398.71573151809923 L 1463 399.1129482923102 L 1464 399.51021779220076 L 1465 399.90753276251314 L 1466 400.3048859471592 L 1467 400.7022700893528 L 1468 401.09967793174246 L 1469 401.49710221654385 L 1470 401.89453568567245 L 1471 402.29197108087584 L 1472 402.6894011438666 L 1473 403.08681861645454 L 1474 403.48421624067953 L 1475 403.8815867589439 L 1476 404.2789229141449 L 1477 404.6762174498075 L 1478 405.07346311021666 L 1479 405.47065264055 L 1480 405.8677787870102 L 1481 406.2648342969574 L 1482 406.66181191904207 L 1483 407.0587044033368 L 1484 407.4555045014692 L 1485 407.8522049667541 L 1486 408.2487985543258 L 1487 408.6452780212707 L 1488 409.04163612675916 L 1489 409.43786563217805 L 1490 409.8339593012628 L 1491 410.22990990022953 L 1492 410.6257101979075 L 1493 411.02135296587045 L 1494 411.4168309785694 L 1495 411.81213701346417 L 1496 412.2072638511553 L 1497 412.60220427551604 L 1498 412.99695107382416 L 1499 413.39149703689344 L 1500 413.78583495920554 L 1501 414.17995763904156 L 1502 414.5738578786134 L 1503 414.9675284841955 L 1504 415.360962266256 L 1505 415.7541520395881 L 1506 416.14709062344133 L 1507 416.53977084165257 L 1508 416.9321855227772 L 1509 417.3243275002201 L 1510 417.7161896123664 L 1511 418.1077647027125 L 1512 418.4990456199965 L 1513 418.8900252183289 L 1514 419.28069635732334 L 1515 419.67105190222657 L 1516 420.06108472404907 L 1517 420.4507876996951 L 1518 420.84015371209296 L 1519 421.2291756503247 L 1520 421.61784640975617 L 1521 422.00615889216687 L 1522 422.39410600587917 L 1523 422.7816806658884 L 1524 423.1688757939918 L 1525 423.5556843189178 L 1526 423.94209917645554 L 1527 424.3281133095835 L 1528 424.7137196685985 L 1529 425.0989112112445 L 1530 425.48368090284123 L 1531 425.8680217164124 L 1532 426.2519266328145 L 1533 426.6353886408646 L 1534 427.0184007374685 L 1535 427.4009559277486 L 1536 427.7830472251719 L 1537 428.1646676516772 L 1538 428.54581023780275 L 1539 428.92646802281365" stroke-linecap="round" stroke-linejoin="round" stroke-miterlimit="10" stroke-width="16"/></g></svg>