<svg xmlns="http://www.w3.org/2000/svg" xmlns:xlink="http://www.w3.org/1999/xlink" version="1.1" width="1560" height="804"><defs/><g><path fill="none" stroke="#02063B" paint-order="fill stroke markers" d=" M 44 736.122989483084 L 45 726.5438228369667 L 46 716.2288682084926 L 47 705.2015110979247 L 48 693.48675212542 L 49 681.1111503509933 L 50 668.1027630612707 L 51 654.491082159546 L 52 640.3069673033515 L 53 625.5825759411343 L 54 610.3512904066486 L 55 594.6476422363571 L 56 578.5072338814234 L 57 561.9666579917828 L 58 545.063414455292 L 59 527.8358253800355 L 60 510.32294821254175 L 61 492.5644871888788 L 62 474.6007033193843 L 63 456.4723231111087 L 64 438.2204462349076 L 65 419.8864523465189 L 66 401.51190727287434 L 67 383.1384687763315 L 68 364.80779211047746 L 69 346.56143558161824 L 70 328.4407663300626 L 71 310.48686654480787 L 72 292.74044032424933 L 73 275.2417213940783 L 74 258.0303818915827 L 75 241.14544242314906 L 76 224.62518359888176 L 77 208.50705924489893 L 78 192.8276114900696 L 79 177.62238791970054 L 80 162.92586098399667 L 81 148.7713498440104 L 82 135.19094483226422 L 83 122.21543469930589 L 84 109.87423681113967 L 85 98.19533045578476 L 86 87.20519341016563 L 87 76.92874191114635 L 88 67.38927416680338 L 89 58.60841753600283 L 90 50.606079496037864 L 91 43.4004025094859 L 92 37.00772289261096 L 93 31.44253377856262 L 94 26.717452259337335 L 95 22.843190780998953 L 96 19.82853285700753 L 97 17.68031315471859 L 98 16.403402000199662 L 99 16.000694336493666 L 100 16.473103160362484 L 101 17.81955745239088 L 102 20.037004605142897 L 103 23.120417343866563 L 104 27.062805124055387 L 105 31.855229980028582 L 106 37.486826788597 L 107 43.94482790187578 L 108 51.21459209339622 L 109 59.27963775189238 L 110 68.12168024750832 L 111 77.72067338570872 L 112 88.05485485491414 L 113 99.10079556482162 L 114 110.83345276355504 L 115 123.22622681322122 L 116 136.2510214951521 L 117 149.8783077081131 L 118 164.07719041506428 L 119 178.81547868669676 L 120 194.05975868294368 L 121 209.77546940701032 L 122 225.92698106017212 L 123 242.47767581970368 L 124 259.3900308568012 L 125 276.6257034062843 L 126 294.1456176952146 L 127 311.91005353334793 L 128 329.87873636457414 L 129 348.0109285751857 L 130 366.2655218519633 L 131 384.6011303806945 L 132 402.97618467382375 L 133 421.34902581451865 L 134 439.6779999034852 L 135 457.92155249440566 L 136 476.03832280390594 L 137 493.98723748245703 L 138 511.7276037336244 L 139 529.2192015705472 L 140 546.4223750004909 L 141 563.2981219307404 L 142 579.8081825920113 L 143 595.9151262789019 L 144 611.582436210739 L 145 626.7745923204244 L 146 641.4571517835833 L 147 655.5968271054526 L 148 669.1615615884642 L 149 682.1206020094351 L 150 694.44456834159 L 151 706.1055203633498 L 152 717.077021002872 L 153 727.3341962747315 L 154 736.8537916728592 L 155 745.6142248918835 L 156 753.5956347573522 L 157 760.7799262538989 L 158 767.1508115492713 L 159 772.6938469212123 L 160 777.3964655034763 L 161 781.24800577674 L 162 784.2397357398152 L 163 786.3648727063635 L 164 787.6185986822322 L 165 787.9980712885456 L 166 787.5024302057914 L 167 786.1327991242902 L 168 783.8922831966254 L 169 780.7859619978126 L 170 776.8208780091643 L 171 772.0060206519622 L 172 766.3523059071337 L 173 759.8725515671376 L 174 752.5814481761669 L 175 744.4955257245521 L 176 735.6331161728713 L 177 726.0143118907336 L 178 715.6609201044594 L 179 704.5964134569306 L 180 692.8458767917001 L 181 680.4359502820084 L 182 667.3947690336418 L 183 653.7518992985608 L 184 639.5382714439129 L 185 624.7861098283996 L 186 609.5288597449721 L 187 593.8011115954971 L 188 577.6385224692904 L 189 561.077735303318 L 190 544.1562958073351 L 191 526.9125673423093 L 192 509.38564394510956 L 193 491.61526169664666 L 194 473.64170863440665 L 195 455.5057334136177 L 196 437.24845292413323 L 197 418.911259072467 L 198 400.53572494033176 L 199 382.16351053242465 L 200 363.8362683271459 L 201 345.5955488443805 L 202 327.4827064444354 L 203 309.53880557169805 L 204 291.80452765557715 L 205 274.32007887979285 L 206 257.12509902912154 L 207 240.25857162024283 L 208 223.75873552044746 L 209 207.6629982545713 L 210 192.00785119670326 L 211 176.82878683894046 L 212 162.16021832475377 L 213 148.03540142939335 L 214 134.4863591642163 L 215 121.54380917586906 L 216 109.23709410492035 L 217 97.59411506183545 L 218 86.64126837110359 L 219 76.40338572693844 L 220 66.90367789622053 L 221 58.1636820963173 L 222 50.20321316708373 L 223 43.04031864774231 L 224 36.69123786049033 L 225 31.17036509359815 L 226 26.490216967466893 L 227 22.661404057632467 L 228 19.69260683904912 L 229 17.590556006192628 L 230 16.360017213597928 L 231 16.003780271428468 L 232 16.522652820571125 L 233 17.915458501597243 L 234 20.179039621739946 L 235 23.308264313842756 L 236 27.29603817104737 L 237 32.13332033084487 L 238 37.809143972022866 L 239 44.31064117804385 L 240 51.623072110479484 L 241 59.72985842636547 L 242 68.61262086371312 L 243 78.25122090996535 L 244 88.62380645892955 L 245 99.70686135267624 L 246 111.47525869608427 L 247 123.90231782316215 L 248 136.95986478599093 L 249 150.6182962291587 L 250 164.84664650486522 L 251 179.6126578765432 L 252 194.8828536518321 L 253 210.62261407910182 L 254 226.7962548354578 L 255 243.36710792828364 L 256 260.297604826906 L 257 277.54936163591 L 258 295.08326611700545 L 259 312.8595663621491 L 260 330.83796091689777 L 261 348.9776901496558 L 262 367.23762865968075 L 263 385.57637851433964 L 264 403.95236310423485 L 265 422.32392140341614 L 266 440.6494024209771 L 267 458.88725962990094 L 268 476.99614515907206 L 269 494.9350035349023 L 270 512.6631647600566 L 271 530.1404365182407 L 272 547.3271952960209 L 273 564.1844762150834 L 274 580.6740613712726 L 275 596.7585664801306 L 276 612.4015256324999 L 277 627.5674739680351 L 278 642.222028079193 L 279 656.3319639634107 L 280 669.8652923467437 L 281 682.7913312081985 L 282 695.0807753403287 L 283 706.7057627883964 L 284 717.6399380174712 L 285 727.8585116642546 L 286 737.3383167381676 L 287 746.0578611442829 L 288 753.9973764090257 L 289 761.1388624981746 L 290 767.4661286255518 L 291 772.96482995989 L 292 777.6225001466455 L 293 781.4285795710359 L 294 784.37443929822 L 295 786.4534006363464 L 296 787.660750278118 L 297 787.9937509865447 L 298 787.4516478006559 L 299 786.0356697471079 L 300 783.7490270538015 L 301 780.5969038718288 L 302 776.5864465222506 L 303 771.7267472943478 L 304 766.0288238320813 L 305 759.5055941554931 L 306 752.1718473736789 L 307 744.0442101557289 L 308 735.1411090356555 L 309 725.4827286367633 L 310 715.0909659101769 L 311 703.9893804912733 L 312 692.2031412865654 L 313 679.7589694121359 L 314 666.6850776129863 L 315 653.011106300647 L 316 638.7680563540587 L 317 623.9882188360774 L 318 608.7051017849454 L 319 592.9533542467018 L 320 576.7686877207626 L 321 560.1877951967648 L 322 543.2482679662314 L 323 525.9885103976508 L 324 508.4476528681975 L 325 490.6654630494842 L 326 472.6822557484734 L 327 454.5388015079553 L 328 436.27623417380624 L 329 417.93595763858514 L 330 399.55955197289614 L 331 381.18867915732886 L 332 362.86498862870013 L 333 344.6300228547276 L 334 326.5251231512246 L 335 308.59133595533217 L 336 290.86931976728476 L 337 273.39925297168486 L 338 256.2207427472696 L 339 239.37273527168435 L 340 222.89342742484146 L 341 206.82018019104584 L 342 191.1894339562173 L 343 176.0366258922432 L 344 161.3961096157629 L 345 147.30107730352955 L 346 133.7834844409245 L 347 120.87397737422981 L 348 108.60182383091427 L 349 96.99484656543837 L 350 86.07936028103313 L 351 75.88011197044517 L 352 66.4202248109093 L 353 57.721145740548195 L 354 49.802596835048234 L 355 42.68253059484971 L 356 36.37708924422083 L 357 30.900568134491095 L 358 26.265383334413286 L 359 22.482043481132564 L 360 19.559125955579873 L 361 17.503257436303272 L 362 16.31909887582549 L 363 16.009334933587468 L 364 16.574667889435773 L 365 18.013816051451784 L 366 20.32351666173372 L 367 23.498533293542607 L 368 27.53166772304246 L 369 32.41377624871791 L 370 38.133790421475624 L 371 44.67874213842441 L 372 52.0337930434485 L 373 60.18226816791588 L 374 69.10569373525385 L 375 78.78383904368388 L 376 89.19476233216056 L 377 100.31486052553072 L 378 112.11892274613302 L 379 124.58018747051904 L 380 137.67040320171355 L 381 151.3598925194617 L 382 165.61761936325084 L 383 180.41125939556716 L 384 195.70727328586372 L 385 211.470982749094 L 386 227.66664916642057 L 387 244.25755460985468 L 388 261.2060850871318 L 389 278.47381581809634 L 390 296.02159834925385 L 391 313.8096493090086 L 392 331.7976406023399 L 393 349.94479084045213 L 394 368.20995779810573 L 395 386.5517316890177 L 396 404.92852904786093 L 397 423.29868700602003 L 398 441.62055774736496 L 399 459.8526029298996 L 400 477.9534878592155 L 401 495.8821752002478 L 402 513.5980180148737 L 403 531.060851914425 L 404 548.2310861181902 L 405 565.0697932114649 L 406 581.5387973996541 L 407 597.6007610583436 L 408 613.2192693831171 L 409 628.3589129472067 L 410 642.9853679798075 L 411 657.065474183046 L 412 670.5673099111993 L 413 683.4602645416965 L 414 695.7151078738474 L 415 707.3040563979537 L 416 718.2008362845593 L 417 728.3807429510383 L 418 737.8206970704723 L 419 746.4992968958354 L 420 754.3968667808642 L 421 761.4955017876048 L 422 767.7791082795076 L 423 773.2334404080392 L 424 777.8461324100899 L 425 781.6067266429543 L 426 784.5066972933266 L 427 786.5394697065577 L 428 787.7004352923516 L 429 787.9869619731091 L 430 787.3984001512308 L 431 785.936084181848 L 432 783.6033293476466 L 433 780.4054243426399 L 434 776.3496192819305 L 435 771.4451092646461 L 436 765.7030135273162 L 437 759.1363502349453 L 438 751.7600069669443 L 439 743.5907069648244 L 440 734.6469712181806 L 441 724.9490764749175 L 442 714.5190092709181 L 443 703.380416083372 L 444 691.5585497207787 L 445 679.0802120711624 L 446 665.9736933382993 L 447 652.268707903717 L 448 637.9963269598755 L 449 623.188908067262 L 450 607.8800217951006 L 451 592.1043756119973 L 452 575.8977351990658 L 453 559.2968433639392 L 454 542.3393367394813 L 455 525.063660456078 L 456 507.50898098094297 L 457 489.71509732204663 L 458 471.72235079798577 L 459 453.5715335783549 L 460 435.303796201973 L 461 416.9605542826359 L 462 398.5833946139041 L 463 380.2139808858024 L 464 361.893959227183 L 465 343.6648637879031 L 466 325.5680225748746 L 467 307.6444637554704 L 468 289.93482264070974 L 469 272.4792495591066 L 470 255.31731883004372 L 471 238.48793904304233 L 472 222.02926484633937 L 473 205.9786104447569 L 474 190.37236500298522 L 475 175.2459101460541 L 476 160.63353974405513 L 477 146.5683821629561 L 478 133.082325157784 L 479 120.20594357845278 L 480 107.96843005213839 L 481 96.39752879935281 L 482 85.51947273376669 L 483 75.3589239883841 L 484 65.93891800290527 L 485 57.2808112990387 L 486 49.404233062165304 L 487 42.32704063912388 L 488 36.06527905301226 L 489 30.633144626789885 L 490 26.04295279815136 L 491 22.30511019864099 L 492 19.428091060307338 L 493 17.418418003388524 L 494 16.280647248584785 L 495 16.01735828744455 L 496 16.62914803428214 L 497 18.11462947288652 L 498 20.470434801088572 L 499 23.691223066057546 L 500 27.76969227301697 L 501 32.69659593992748 L 502 38.460764060604106 L 503 45.049128428743074 L 504 52.446752265443195 L 505 60.63686408305301 L 506 69.60089570856945 L 507 79.31852438038243 L 508 89.76771882292729 L 509 100.92478919478623 L 510 112.76444079699951 L 511 125.25983141982164 L 512 138.3826321979093 L 513 152.1030918359738 L 514 166.39010405928815 L 515 181.21127813613103 L 516 196.5330123122754 L 517 212.32056999105217 L 518 228.53815848625567 L 519 245.14901016936267 L 520 262.1154658270864 L 521 279.39906004028234 L 522 296.9606083906406 L 523 314.7602962974526 L 524 332.7577692830487 L 525 350.9122244622596 L 526 369.1825030484835 L 527 387.52718366663294 L 528 405.9046762614081 L 529 424.2733163879926 L 530 442.5914596714012 L 531 460.81757622032615 L 532 478.91034478143246 L 533 496.82874642064087 L 534 514.5321575190085 L 535 531.9804418723734 L 536 549.1340416859597 L 537 565.9540672576388 L 538 582.4023851465399 L 539 598.4417046270937 L 540 614.0356622325245 L 541 629.1489041961108 L 542 643.7471666033094 L 543 657.7973530730258 L 544 671.2676097919166 L 545 684.1273977316118 L 546 696.3475618851267 L 547 707.9003973654969 L 548 718.759712216782 L 549 728.9008867950324 L 550 738.3009295845989 L 551 746.9385293232372 L 552 754.794103317835 L 553 761.8498418412216 L 554 768.0897485094054 L 555 773.4996765477001 L 556 778.0673608635179 L 557 781.782445853115 L 558 784.6365088792493 L 559 786.6230793665234 L 560 787.7376534711178 L 561 787.9777042916594 L 562 787.3426875980733 L 563 785.8340430654325 L 564 783.4551910100043 L 565 780.2115246348974 L 566 776.1103978028866 L 567 771.1611083641382 L 568 765.3748770766329 L 569 758.7648221670784 L 570 751.3459295899833 L 571 743.1350190523226 L 572 734.1507058808187 L 573 724.4133588182918 L 574 713.9450538447624 L 575 702.7695241279973 L 576 690.9121062169725 L 577 678.3996826002357 L 578 665.2606207594001 L 579 651.5247088559478 L 580 637.2230881971343 L 581 622.3881826341271 L 582 607.0536250524245 L 583 591.2541811212196 L 584 575.0256704745786 L 585 558.4048855031283 L 586 541.429507940363 L 587 524.1380234326815 L 588 506.56963428683747 L 589 488.7641705926162 L 590 470.7619999222365 L 591 452.60393581120115 L 592 434.33114522808455 L 593 415.9850552430361 L 594 397.607259106595 L 595 379.2394219517506 L 596 360.9231863330347 L 597 342.7000778168021 L 598 324.6114108367407 L 599 306.69819502804853 L 600 289.00104225264033 L 601 271.5600745261495 L 602 254.4148330554973 L 603 237.6041885932325 L 604 221.16625331188968 L 605 205.13829439815893 L 606 189.5566495627609 L 607 174.45664465757903 L 608 159.87251358682275 L 609 145.83732069379454 L 610 132.38288579922147 L 611 119.53971206110009 L 612 107.33691681960732 L 613 95.80216558386098 L 614 84.96160931019278 L 615 74.83982511413217 L 616 65.4597605505158 L 617 56.842681588048094 L 618 49.00812439626134 L 619 41.97385105418198 L 620 35.75580928111759 L 621 30.368096280862346 L 622 25.82292678128624 L 623 22.130605341774583 L 624 19.299502991294844 L 625 17.336038250058266 L 626 16.24466257780216 L 627 16.02785028168455 L 628 16.686092906669955 L 629 18.21789812112587 L 630 20.619793100155334 L 631 23.886332398995364 L 632 28.010110298630934 L 633 32.98177759563566 L 634 38.79006279817395 L 635 45.421797680109876 L 636 52.86194713528852 L 637 61.093643264305 L 638 70.09822361648264 L 639 79.85527350035886 L 640 90.34267226675576 L 641 101.53664345950563 L 642 113.41180872012654 L 643 125.94124532425246 L 644 139.09654721935556 L 645 152.8478894253945 L 646 167.16409565237547 L 647 182.01270898152953 L 648 197.36006544986174 L 649 213.17137037124417 L 650 229.41077722102318 L 651 246.0414689052969 L 652 263.0257412306143 L 653 280.32508838485796 L 654 297.90029023551256 L 655 315.7115012474013 L 656 333.7183408183019 L 657 351.87998482763567 L 658 370.1552581906789 L 659 388.5027282084597 L 660 406.880798501704 L 661 425.24780331586925 L 662 443.5621019834622 L 663 461.78217332947486 L 664 479.8667098059267 L 665 497.7747111420698 L 666 515.465577297959 L 667 532.8992005106388 L 668 550.0360562242677 L 669 566.8372926980256 L 670 583.2648190886547 L 671 599.2813918079316 L 672 614.8506989592926 L 673 629.9374426621765 L 674 644.5074190774424 L 675 658.527595952452 L 676 671.9661875099678 L 677 684.7927265111432 L 678 696.9781333291623 L 679 708.4947818769924 L 680 719.316562239721 L 681 729.4189398695387 L 682 738.7790112091104 L 683 747.3755556172772 L 684 755.189083479321 L 685 762.2018803927625 L 686 768.3980473284747 L 687 773.7635366760993 L 688 778.2861840920125 L 689 781.9557360776652 L 690 784.7638732257476 L 691 786.7042290814984 L 692 787.7724045763796 L 693 787.9659780014051 L 694 787.2845104975061 L 695 785.7295470504889 L 696 783.3046129883268 L 697 780.0152059887309 L 698 775.8687836151146 L 699 770.8747464092162 L 700 765.0444165787027 L 701 758.3910123280848 L 702 750.9296178911218 L 703 742.6771493326797 L 704 733.6523161975474 L 705 723.8755790931906 L 706 713.3691033025723 L 707 702.1567085322488 L 708 690.2638149096233 L 709 677.7173853518378 L 710 664.54586443691 L 711 650.779113915759 L 712 636.4483450112626 L 713 621.586047657899 L 714 606.2259168423292 L 715 590.4027762119836 L 716 574.1524991247895 L 717 557.5119273190511 L 718 540.5187873878946 L 719 523.2116052475827 L 720 505.6296187936873 L 721 487.8126889430607 L 722 469.80120926336883 L 723 451.63601439498524 L 724 433.3582874729524 L 725 415.0094667588113 L 726 396.63115169406626 L 727 378.265008588187 L 728 359.95267615505566 L 729 341.73567111193296 L 730 323.6552940550523 L 731 305.75253582514785 L 732 288.06798457528686 L 733 270.64173375161033 L 734 253.51329119568857 L 735 236.7214895744857 L 736 220.30439834108154 L 737 204.29923742568442 L 738 188.74229285263698 L 739 173.6688344747451 L 740 159.11303601138076 L 741 145.10789757171494 L 742 131.6851708386596 L 743 118.87528708320804 L 744 106.70728817230764 L 745 95.20876072674463 L 746 84.4057735782539 L 747 74.3228186677049 L 748 64.98275551830164 L 749 56.40675940973546 L 750 48.61427337073951 L 751 41.622964098928946 L 752 35.44868190782239 L 753 30.105424791887003 L 754 25.605306691045428 L 755 21.958530026619997 L 756 19.173362570957295 L 757 17.256118703191135 L 758 16.211145093625873 L 759 16.040810849203467 L 760 16.74550214239514 L 761 18.323621335691712 L 762 20.771590603679158 L 763 24.08386004449028 L 764 28.252920262235648 L 765 33.26931939189825 L 766 39.12168452807947 L 767 45.796747509033764 L 768 53.27937499751056 L 769 61.55260279023656 L 770 70.5976742782189 L 771 80.39408297071202 L 772 90.91961898639966 L 773 102.15041940643312 L 774 114.0610223751217 L 775 126.62442482567081 L 776 139.8121437000422 L 777 153.59428052419818 L 778 167.93958919227117 L 779 182.8155468060293 L 780 198.18842740901732 L 781 214.02337844818254 L 782 230.2844997896927 L 783 246.93492510973442 L 784 263.93690547584345 L 785 281.25189492919685 L 786 298.8406378739205 L 787 316.6632580752056 L 788 334.6793490645456 L 789 352.8480657470473 L 790 371.12821700321507 L 791 389.4783590751793 L 792 407.8568895257367 L 793 426.22214155709554 L 794 444.53247847558004 L 795 462.7463880880401 L 796 480.822576816044 L 797 498.7200633143967 L 798 516.3982713818227 L 799 533.817121953089 L 800 550.9371239640748 L 801 567.7194638837572 L 802 584.1260937101056 L 803 600.1198172304481 L 804 615.6643743506684 L 805 630.7245233021242 L 806 645.2661205398376 L 807 659.2561981508874 L 808 672.663038597439 L 809 685.4562466250259 L 810 697.6068181729903 L 811 709.087206130916 L 812 719.8713827919141 L 813 729.9348988612289 L 814 739.2549388863267 L 815 747.8103729828526 L 816 755.5818047391363 L 817 762.5516151906835 L 818 768.7040027649198 L 819 774.0250191056579 L 820 778.5026006960403 L 821 782.1265962082878 L 822 784.8887895182345 L 823 786.7829183324714 L 824 787.8046883858783 L 825 787.9517831773446 L 826 787.2238692216141 L 827 785.6225968053453 L 828 783.1515962456706 L 829 779.8164696597415 L 830 775.6247782639136 L 831 770.5860252313739 L 832 764.7116341470621 L 833 758.0149231087513 L 834 750.5110745329777 L 835 742.2171007343063 L 836 733.1518053559334 L 837 723.3357407391072 L 838 712.791161327973 L 839 701.541973215529 L 840 689.6136799450287 L 841 677.0333246897551 L 842 663.8294289422156 L 843 650.0319278517686 L 844 635.6721023573072 L 845 620.7825082688103 L 846 605.3969024586108 L 847 589.5501663296454 L 848 573.2782267342659 L 849 556.6179745228286 L 850 539.6071809067978 L 851 522.2844118259039 L 852 504.6889405135769 L 853 486.8606584588016 L 854 468.83998496633944 L 855 450.667775520273 L 856 432.3852291587109 L 857 414.0337950695638 L 858 395.65507861923646 L 859 377.2907470271981 L 860 358.98243490036594 L 861 340.7716498413823 L 862 322.6996783448706 L 863 304.80749219494686 L 864 287.13565557622684 L 865 269.7242331089467 L 866 252.61269901662868 L 867 235.83984763230447 L 868 219.44370544610695 L 869 203.46144489371446 L 870 187.92930008102056 L 871 172.8824846361727 L 872 158.35511187514402 L 873 144.38011746190983 L 874 130.98918473849614 L 875 118.21267289425873 L 876 106.07954813717527 L 877 94.6173180232604 L 878 83.85196909292642 L 879 73.80790795573557 L 880 64.507905957059 L 881 55.97304755214083 L 882 48.22268250456534 L 883 41.27438201754171 L 884 35.143898897429665 L 885 29.845131839837734 L 886 25.3900939192676 L 887 21.78888535372306 L 888 19.04967060605452 L 889 17.178659873931167 L 890 16.18009501042451 L 891 16.056239907109045 L 892 16.807375361492518 L 893 18.43179844040685 L 894 20.925826340804235 L 895 24.283804739208506 L 896 28.498120610884484 L 897 33.559219489674945 L 898 39.45562712935816 L 899 46.17397551743613 L 900 53.6990331823539 L 901 62.01373972546571 L 902 71.09924449942719 L 903 80.93494934536108 L 904 91.49855529186561 L 905 102.76611311002483 L 906 114.71207760979479 L 907 127.30936555464683 L 908 140.5294170632132 L 909 154.34226035867073 L 910 168.71657971912768 L 911 183.6197864748971 L 912 199.01809289176126 L 913 214.87658877265451 L 914 231.1593206041688 L 915 247.8293730683714 L 916 264.84895273521147 L 917 282.1794737456954 L 918 299.7816452916532 L 919 317.6155606936867 L 920 335.6407878754288 L 921 353.8164610289112 L 922 372.10137326330823 L 923 390.45407002692116 L 924 408.83294309068964 L 925 427.19632488007085 L 926 445.50258294149097 L 927 463.7102143291721 L 928 481.7779396983193 L 929 499.6647968914118 L 930 517.3302338053423 L 931 534.7342003289455 L 932 551.8372391423959 L 933 568.6005751727031 L 934 584.9862035024137 L 935 600.9569755322988 L 936 616.4766832026045 L 937 631.5101410820007 L 938 646.023266138046 L 939 659.9831550083907 L 940 673.3581585974596 L 941 686.1179538295662 L 942 698.2336123957127 L 943 709.6776663382835 L 944 720.4241703248797 L 945 730.4487604701696 L 946 739.7287095723445 L 947 748.2429786389903 L 948 755.9722645855429 L 949 762.8990439981758 L 950 769.0076128619335 L 951 774.2841221640056 L 952 778.7166092914581 L 953 782.2950251522077 L 954 785.0112569577784 L 955 786.859146616167 L 956 787.8345046931354 L 957 787.935119910264 L 958 787.1607641582425 L 959 785.5131930140267 L 960 782.9961417606892 L 961 779.6153169189928 L 962 775.3783833098757 L 963 770.2949466771935 L 964 764.3765319100971 L 965 757.6365569144424 L 966 750.0903021924403 L 967 741.7548761995472 L 968 732.649176557108 L 969 722.7938472087001 L 970 712.2112316173238 L 971 700.9253221095165 L 972 688.9617054812745 L 973 676.3475049890582 L 974 663.1113188574441 L 975 649.2831554427814 L 976 634.8943651999053 L 977 619.9775696060865 L 978 604.5665872034208 L 979 588.6963569272657 L 980 572.402858894617 L 981 555.7230328319393 L 982 538.6946943274608 L 983 521.3564490977218 L 984 503.7476054628296 L 985 485.9080852287665 L 986 467.87833317887856 L 987 449.69922537965647 L 988 431.41197650877484 L 989 413.0580464154239 L 990 394.67904612480174 L 991 376.3166434998955 L 992 358.01246877436296 L 993 339.8080201707677 L 994 321.74456981806014 L 995 303.8630701816886 L 996 286.20406121839045 L 997 268.80757846624397 L 998 251.71306227826747 L 999 234.95926840543174 L 1000 218.58418013172326 L 1001 202.62492216054295 L 1002 187.117676447592 L 1003 172.09760017114232 L 1004 157.5987460255889 L 1005 143.65398501906367 L 1006 130.29493195006864 L 1007 117.55187373215296 L 1008 105.45370072906462 L 1009 94.02784125611402 L 1010 83.30019939619291 L 1011 73.29509627145217 L 1012 64.03521490379626 L 1013 55.541548789166484 L 1014 47.833354302247415 L 1015 40.928107039458666 L 1016 34.84146219924901 L 1017 29.587219089479447 L 1018 25.17728984239534 L 1019 21.62167240808634 L 1020 18.928427887686667 L 1021 17.103662257683766 L 1022 16.151512526786064 L 1023 16.074137356721224 L 1024 16.87171216823765 L 1025 18.542428743399853 L 1026 21.082499325080676 L 1027 24.48616520435803 L 1028 28.74570977634238 L 1029 33.85147603484387 L 1030 39.7918884662044 L 1031 46.55347929266941 L 1032 54.12091900579969 L 1033 62.4770511206861 L 1034 71.60293107220156 L 1035 81.47786916507192 L 1036 92.07947748043063 L 1037 103.38372063247084 L 1038 115.36497026016838 L 1039 127.99606313048508 L 1040 141.24836272137736 L 1041 155.09182414493577 L 1042 169.49506226352523 L 1043 184.42542284443397 L 1044 199.84905659177903 L 1045 215.730995887758 L 1046 232.035234069336 L 1047 248.72480706056115 L 1048 265.7618771755127 L 1049 283.10781890181096 L 1050 300.7233064702835 L 1051 318.56840301217784 L 1052 336.6026511018507 L 1053 354.78516447963636 L 1054 373.07472074691606 L 1055 391.42985482330516 L 1056 409.8089529539902 L 1057 428.1703470541772 L 1058 446.47240917666977 L 1059 464.6736458884929 L 1060 482.7327923425105 L 1061 500.60890583084847 L 1062 518.2614586079386 L 1063 535.6504297728251 L 1064 552.7363960023383 L 1065 569.4806209295156 L 1066 585.8451429645497 L 1067 601.7928613592474 L 1068 617.2876203197937 L 1069 632.2942909772073 L 1070 646.7788510295696 L 1071 660.7084618755426 L 1072 674.0515430642322 L 1073 686.777843892664 L 1074 698.8585119885254 L 1075 710.2661587226717 L 1076 720.9749213031399 L 1077 730.9605214098415 L 1078 740.2003202370522 L 1079 748.6733698188614 L 1080 756.3604605212636 L 1081 763.2441645931791 L 1082 769.308875677706 L 1083 774.5408441939893 L 1084 778.9282085095253 L 1085 782.4610218321989 L 1086 785.1312747611112 L 1087 786.93291344505 L 1088 787.8618533074538 L 1089 787.9159883067371 L 1090 787.0951957109942 L 1091 785.4013363762497 L 1092 782.8382505276273 L 1093 779.4117490530026 L 1094 775.1296003288762 L 1095 770.0015126083338 L 1096 764.0391120110309 L 1097 757.2559161650847 L 1098 749.6673035606557 L 1099 741.290478684668 L 1100 732.1444330157485 L 1101 722.2499019677763 L 1102 711.6293178796984 L 1103 700.3067591581482 L 1104 688.307895688213 L 1105 675.659930636062 L 1106 662.3915387754331 L 1107 648.5328014777408 L 1108 634.1151385132534 L 1109 619.171236817895 L 1110 603.7349763872305 L 1111 587.8413534655781 L 1112 571.5264012044584 L 1113 554.827107970188 L 1114 537.7813334858977 L 1115 520.4277229980344 L 1116 502.8056196619667 L 1117 484.9549753453557 L 1118 466.91626005144764 L 1119 448.73037016771997 L 1120 430.4385357478098 L 1121 412.0822270370157 L 1122 393.7030604532069 L 1123 375.34270423638145 L 1124 357.0427839806927 L 1125 338.8447882632032 L 1126 320.7899745832335 L 1127 302.9192758256403 L 1128 285.27320746000015 L 1129 267.89177568617697 L 1130 250.8143867344352 L 1131 234.0797575258136 L 1132 217.7258278952215 L 1133 201.78967457634272 L 1134 186.3074271432761 L 1135 171.31418609956017 L 1136 156.84394330022639 L 1137 142.92950488732072 L 1138 129.60241691362984 L 1139 116.89289382318123 L 1140 104.82974995072601 L 1141 93.44033419544235 L 1142 82.75046801702285 L 1143 72.78438689466196 L 1144 63.564685381717425 L 1145 55.11226588056411 L 1146 47.44629125382329 L 1147 40.58414137935978 L 1148 34.54137374758352 L 1149 29.331688190351485 L 1150 24.966895821465982 L 1151 21.45689225915811 L 1152 18.80963519128943 L 1153 17.031126334113424 L 1154 16.12539782551636 L 1155 16.09450308357276 L 1156 16.938512151149894 L 1157 18.65551153710942 L 1158 21.241608554470872 L 1159 24.690940145696402 L 1160 28.995686175096864 L 1161 34.14608715821129 L 1162 40.13046638798005 L 1163 46.935256407530346 L 1164 54.54502976957809 L 1165 62.942534012683666 L 1166 72.10873077509655 L 1167 82.02283895747661 L 1168 92.66238183667548 L 1169 104.00323802372066 L 1170 116.0196961505199 L 1171 128.68451316125407 L 1172 141.9689760763552 L 1173 155.84296708898643 L 1174 170.27503184650038 L 1175 185.23245076200806 L 1176 200.68131319445203 L 1177 216.58659432893907 L 1178 232.91223458308906 L 1179 249.62122135935294 L 1180 266.6756729579298 L 1181 284.03692446010206 L 1182 301.6656153872017 L 1183 319.5217789365523 L 1184 337.5649325919949 L 1185 355.7541699036525 L 1186 374.0482532287719 L 1187 392.40570722347064 L 1188 410.7849128733437 L 1189 429.1442018498355 L 1190 447.4419509783706 L 1191 465.63667660415786 L 1192 483.6871286416388 L 1193 501.5523840944445 L 1194 519.1919398337502 L 1195 536.5658044247723 L 1196 553.6345887931385 L 1197 570.3595955256604 L 1198 586.702906602972 L 1199 602.6274693651944 L 1200 618.0971805157043 L 1201 633.076967972534 L 1202 647.5328703818943 L 1203 661.4321141134773 L 1204 674.7431875630541 L 1205 687.4359125938413 L 1206 699.4815129547363 L 1207 710.8526795202426 L 1208 721.5236322042379 L 1209 731.4701784071601 L 1210 740.6697678641572 L 1211 749.1015437698006 L 1212 756.7463900635032 L 1213 763.5869747683955 L 1214 769.607789285443 L 1215 774.7951835536846 L 1216 779.1373969969109 L 1217 782.6245851865917 L 1218 785.2488421606313 L 1219 787.0042183473279 L 1220 787.8867340539191 L 1221 787.8943884891244 L 1222 787.027164299227 L 1223 785.2870276074191 L 1224 782.6779235563146 L 1225 779.205767363737 L 1226 774.8784309120635 L 1227 769.7057249015213 L 1228 763.6993766079094 L 1229 756.8730032951555 L 1230 749.2420813430082 L 1231 740.823911159828 L 1232 731.637577960058 L 1233 721.7039084952607 L 1234 711.0454238368591 L 1235 699.6862883175836 L 1236 687.6522547474342 L 1237 674.9706060283056 L 1238 661.670093299701 L 1239 647.7808707557072 L 1240 633.3344272810718 L 1241 618.3635150613218 L 1242 602.9020753287949 L 1243 586.9851614129528 L 1244 570.6488592693734 L 1245 553.9302056676671 L 1246 536.8671042237222 L 1247 519.4982394667222 L 1248 501.86298913567936 L 1249 484.0013349044017 L 1250 465.9537717372111 L 1251 447.76121608099885 L 1252 429.46491310167636 L 1253 411.1063431754154 L 1254 392.7271278465891 L 1255 374.3689354657075 L 1256 356.07338672119363 L 1257 337.88196027925926 L 1258 319.83589874572317 L 1259 301.97611516305494 L 1260 284.34310025454437 L 1261 266.97683062596946 L 1262 249.9166781328171 L 1263 233.20132061856089 L 1264 216.86865422638988 L 1265 200.9557074831286 L 1266 185.49855735020788 L 1267 170.53224743193474 L 1268 156.0907085265702 L 1269 142.2066817002637 L 1270 128.9116440583182 L 1271 116.23573738200412 L 1272 104.20769979277964 L 1273 92.85480059877966 L 1274 82.20277847134912 L 1275 72.27578309172242 L 1276 63.096320400201705 L 1277 54.685201571909545 L 1278 47.06149583484347 L 1279 40.24248723715624 L 1280 34.24363546171776 L 1281 29.07854077676035 L 1282 24.75891320210195 L 1283 21.294545960827406 L 1284 18.69329327662831 L 1285 16.961052567140314 L 1286 16.101751073637843 L 1287 16.11733695740992 L 1288 17.007774882994397 L 1289 18.771046098288537 L 1290 21.403153011354505 L 1291 24.898128253538403 L 1292 29.248048208365333 L 1293 34.44305097552416 L 1294 40.47135872923326 L 1295 47.3193044202759 L 1296 54.971362761192836 L 1297 63.41018542435597 L 1298 72.61664037315552 L 1299 82.56985523709591 L 1300 93.24726463250187 L 1301 104.62466132150894 L 1302 116.67625109339997 L 1303 129.3747112438158 L 1304 142.6912525192988 L 1305 156.59568438671815 L 1306 171.05648347957901 L 1307 186.04086506608968 L 1308 201.5148573768925 L 1309 217.4433786240171 L 1310 233.79031653637037 L 1311 250.51861023151884 L 1312 267.5903342380724 L 1313 284.9667844782561 L 1314 302.60856601565524 L 1315 320.4756823692788 L 1316 338.52762619136956 L 1317 356.7234711034662 L 1318 375.02196448242563 L 1319 393.38162098613293 L 1320 411.76081660677505 L 1321 430.1178830385342 L 1322 448.4112021456668 L 1323 466.5993003168835 L 1324 484.6409424920306 L 1325 502.49522564796854 L 1326 520.1216715316739 L 1327 537.4803184302991 L 1328 554.5318117702012 L 1329 571.2374933394544 L 1330 587.5594889316521 L 1331 603.4607942122135 L 1332 618.9053586126039 L 1333 633.8581670621908 L 1334 648.2853193725123 L 1335 662.154107093911 L 1336 675.4330876703561 L 1337 688.0921557242691 L 1338 700.1026113098019 L 1339 711.4372249797681 L 1340 722.0702995187685 L 1341 731.9777282024972 L 1342 741.1370494511996 L 1343 749.5274977533234 L 1344 757.1300507439612 L 1345 763.9274723313051 L 1346 769.9043517733749 L 1347 775.0471386164058 L 1348 779.3441734157019 L 1349 782.7857141692798 L 1350 785.3639584044101 L 1351 787.073060866953 L 1352 787.9091467734011 L 1353 787.8703205955725 L 1354 786.9566703580515 L 1355 785.1702674386235 L 1356 782.5151618721588 L 1357 778.9973731685984 L 1358 774.6248766658487 L 1359 769.4075854485341 L 1360 763.3573278735884 L 1361 756.4878207536606 L 1362 748.8146382591028 L 1363 740.3551766090679 L 1364 731.1286146317439 L 1365 721.15587028318 L 1366 710.4595532232324 L 1367 699.0639135561842 L 1368 686.9947868522402 L 1369 674.2795355745227 L 1370 660.9469870444153 L 1371 647.0273680858239 L 1372 632.5522364965848 L 1373 617.5544095023365 L 1374 602.0678893551284 L 1375 586.1277862453601 L 1376 569.7702387018899 L 1377 553.0323316607207 L 1378 535.9520123880944 L 1379 518.5680044485075 L 1380 500.919719912777 L 1381 483.0471700051303 L 1382 464.99087439198075 L 1383 446.79176931793734 L 1384 428.49111479740395 L 1385 410.1304010721118 L 1386 391.75125454674884 L 1387 373.39534341583214 L 1388 355.10428319586515 L 1389 336.91954237692266 L 1390 318.88234840753967 L 1391 301.03359422612994 L 1392 283.41374555073406 L 1393 266.06274913736985 L 1394 249.0199422149142 L 1395 232.3239633019229 L 1396 216.0126646074766 L 1397 200.12302621473515 L 1398 184.69107224169935 L 1399 169.75178916933166 L 1400 155.3390465221037 L 1401 141.4855200808738 L 1402 128.22261780212978 L 1403 115.58040861161447 L 1404 103.58755423368785 L 1405 92.27124421104196 L 1406 81.6571342620457 L 1407 71.76928811552563 L 1408 62.6301229547833 L 1409 54.26035859458926 L 1410 46.678970506355085 L 1411 39.90314679797535 L 1412 33.94824924590415 L 1413 28.827778467767416 L 1414 24.553343314505526 L 1415 21.13463455141732 L 1416 18.57940288779531 L 1417 16.893441404936937 L 1418 16.08057242238897 L 1419 16.14263883219354 L 1420 17.079499920785622 L 1421 18.88903168800988 L 1422 21.567131662536895 L 1423 25.107728202765088 L 1424 29.50279426210915 L 1425 34.742365587483334 L 1426 40.81456330970815 L 1427 47.70562087463901 L 1428 55.39991525393356 L 1429 63.880002364732604 L 1430 73.12665661792795 L 1431 83.118914505362 L 1432 93.83412212715791 L 1433 105.24798655138244 L 1434 117.33463088966295 L 1435 130.0666529638446 L 1436 143.4151874307239 L 1437 157.34997122395077 L 1438 171.83941216481054 L 1439 186.85066058627325 L 1440 202.3496838079778 L 1441 218.30134329323437 L 1442 234.66947431320813 L 1443 251.41696793760275 L 1444 268.50585516601495 L 1445 285.89739300914295 L 1446 303.5521523247902 L 1447 321.4301072094467 L 1448 339.49072574284736 L 1449 357.6930618796897 L 1450 375.99584828028685 L 1451 394.3575898696147 L 1452 412.73665791266836 L 1453 431.09138439287244 L 1454 449.3801564794933 L 1455 467.5615108699921 L 1456 485.59422779334284 L 1457 503.43742446126157 L 1458 521.0506477553924 L 1459 538.3939659404243 L 1460 555.4280591951239 L 1461 572.1143087561009 L 1462 588.4148844721238 L 1463 604.2928305705868 L 1464 619.7121494416047 L 1465 634.6378832498399 L 1466 649.036193188966 L 1467 662.8744361991742 L 1468 676.1212389737224 L 1469 688.7465690867939 L 1470 700.7218030813451 L 1471 712.0197913626555 L 1472 722.6149197503976 L 1473 732.4831675497021 L 1474 741.6021620095728 L 1475 749.9512290451446 L 1476 757.5114401088488 L 1477 764.2656551041748 L 1478 770.1985612447658 L 1479 775.2967077707176 L 1480 779.548536443413 L 1481 782.9444077497244 L 1482 785.4766227561942 L 1483 787.1394405636283 L 1484 787.9290913225539 L 1485 787.8437847800133 L 1486 786.8837143383281 L 1487 785.0510566166281 L 1488 782.3499665161391 L 1489 778.7865678004205 L 1490 774.3689392118979 L 1491 769.1070961561886 L 1492 763.0129679957179 L 1493 756.100371004122 L 1494 748.3849770427535 L 1495 739.8842780302831 L 1496 730.6175462859965 L 1497 720.605790836636 L 1498 709.8717097858928 L 1499 698.4396388544953 L 1500 686.3354962076153 L 1501 673.5867236946106 L 1502 660.222224634374 L 1503 646.272298287296 L 1504 631.7685711624638 L 1505 616.7439253157565 L 1506 601.2324238014581 L 1507 585.2692334463463 L 1508 568.8905451214171 L 1509 552.1334916919054 L 1510 535.0360638316963 L 1511 517.6370238929292 L 1512 499.975818026146 L 1513 482.09248675011906 L 1514 464.0275741741843 L 1515 445.82203607886237 L 1516 427.5171470631343 L 1517 409.15440696896343 L 1518 390.77544679510453 L 1519 372.4219343135944 L 1520 354.13547960283904 L 1521 335.9575407115549 L 1522 317.92932966732985 L 1523 300.0917190429817 L 1524 282.48514929247796 L 1525 265.14953706658537 L 1526 248.12418471600384 L 1527 231.44769118723931 L 1528 215.1578645131665 L 1529 199.2916360967568 L 1530 183.8849769822041 L 1531 168.97281630335266 L 1532 154.58896209425973 L 1533 140.76602464149926 L 1534 127.53534255188771 L 1535 114.92691170331557 L 1536 102.96931723973893 L 1537 91.6896687644927 L 1538 81.11353887890363 L 1539 71.26490520547475" stroke-linecap="round" stroke-linejoin="round" stroke-miterlimit="10" stroke-width="16"/></g></svg>