<svg xmlns="http://www.w3.org/2000/svg" xmlns:xlink="http://www.w3.org/1999/xlink" version="1.1" width="1560" height="804"><defs/><g><path fill="none" stroke="#02063B" paint-order="fill stroke markers" d=" M 44 686.8906555069365 L 45 691.7537738876933 L 46 696.5137433976791 L 47 701.1688695447974 L 48 705.7174951599318 L 49 710.1580009868793 L 50 714.4888062587854 L 51 718.7083692608785 L 52 722.8151878793019 L 53 726.8078001358481 L 54 730.6847847084057 L 55 734.4447614369328 L 56 738.0863918147782 L 57 741.6083794651724 L 58 745.0094706027235 L 59 748.288454479749 L 60 751.4441638172876 L 61 754.4754752206367 L 62 757.3813095792674 L 63 760.1606324509746 L 64 762.8124544301268 L 65 765.3358314998816 L 66 767.7298653682452 L 67 769.9937037878533 L 68 772.1265408593607 L 69 774.1276173183323 L 70 775.9962208055322 L 71 777.7316861205138 L 72 779.3333954584252 L 73 780.8007786299386 L 74 782.1333132642317 L 75 783.3305249949451 L 76 784.3919876290518 L 77 785.3173232985755 L 78 786.1062025951081 L 79 786.7583446870751 L 80 787.2735174197076 L 81 787.651537397687 L 82 787.892270050432 L 83 787.9956296800035 L 84 787.9615794916119 L 85 787.7901316067163 L 86 787.4813470587089 L 87 787.0353357711879 L 88 786.4522565188263 L 89 785.7323168708497 L 90 784.8757731171439 L 91 783.8829301770197 L 92 782.7541414906644 L 93 781.4898088933218 L 94 780.0903824722432 L 95 778.5563604064621 L 96 776.8882887894488 L 97 775.0867614347067 L 98 773.1524196643827 L 99 771.0859520809636 L 100 768.8880943221423 L 101 766.5596287989395 L 102 764.1013844171741 L 103 761.5142362823842 L 104 758.7991053882981 L 105 755.956958288973 L 106 752.9888067547131 L 107 749.8957074118906 L 108 746.6787613668007 L 109 743.3391138136794 L 110 739.8779536270304 L 111 736.2965129383969 L 112 732.5960666977405 L 113 728.7779322195726 L 114 724.8434687140066 L 115 720.7940768028952 L 116 716.6311980212267 L 117 712.3563143039546 L 118 707.9709474584472 L 119 703.4766586227425 L 120 698.8750477098015 L 121 694.1677528379581 L 122 689.3564497477694 L 123 684.4428512054714 L 124 679.4287063932551 L 125 674.3158002865785 L 126 669.1059530187367 L 127 663.8010192329168 L 128 658.4028874219659 L 129 652.9134792561116 L 130 647.3347488988699 L 131 641.6686823113857 L 132 635.9172965454565 L 133 630.0826390254831 L 134 624.1667868196141 L 135 618.1718459003324 L 136 612.0999503947553 L 137 605.9532618249102 L 138 599.7339683382595 L 139 593.4442839287451 L 140 587.0864476486345 L 141 580.6627228114437 L 142 574.175396186226 L 143 567.6267771835082 L 144 561.0191970331697 L 145 554.3550079545511 L 146 547.6365823190935 L 147 540.8663118058016 L 148 534.0466065498364 L 149 527.1798942845332 L 150 520.2686194771608 L 151 513.3152424587176 L 152 506.32223854808564 L 153 499.29209717084467 L 154 492.2273209730683 L 155 485.1304249304104 L 156 478.0039354528054 L 157 470.8503894850952 L 158 463.67233360390844 L 159 456.4723231111087 L 160 449.2529211241387 L 161 442.01669766358043 L 162 434.76622873825863 L 163 427.50409542821325 L 164 420.23288296586486 L 165 412.95517981570407 L 166 405.67357675282784 L 167 398.390665940656 L 168 391.1090400081508 L 169 383.83129112687345 L 170 376.56001008820067 L 171 369.29778538103534 L 172 362.0472022703343 L 173 354.81084187678624 L 174 347.59128025796224 L 175 340.39108749127166 L 176 333.21282675904393 L 177 326.0590534360678 L 178 318.93231417990705 L 179 311.8351460243224 L 180 304.7700754761166 L 181 297.7396176157293 L 182 290.7462752018977 L 183 283.79253778070535 L 184 276.8808807993326 L 185 270.013764724828 L 186 263.1936341682107 L 187 256.4229170142189 L 188 249.7040235570115 L 189 243.0393456421327 L 190 236.431255815043 L 191 229.88210647652235 L 192 223.3942290452427 L 193 216.96993312781188 L 194 210.61150569658025 L 195 204.32121027550713 L 196 198.10128613437223 L 197 191.9539474916235 L 198 185.8813827261409 L 199 179.8857535982009 L 200 173.96919447991434 L 201 168.133811595417 L 202 162.38168227107778 L 203 156.71485419599637 L 204 151.1353446930497 L 205 145.64514000074996 L 206 140.24619456616665 L 207 134.94043034916774 L 208 129.72973613822393 L 209 124.61596687802393 L 210 119.60094300913482 L 211 114.68644981994862 L 212 109.87423681113967 L 213 105.16601707286429 L 214 100.56346667492073 L 215 96.06822407008872 L 216 91.68188951085915 L 217 87.4060244797646 L 218 83.24215113350937 L 219 79.19175176110048 L 220 75.2562682561695 L 221 71.43710160367726 L 222 67.73561138117878 L 223 64.15311527483078 L 224 60.69088861030991 L 225 57.350163898814 L 226 54.132130398301115 L 227 51.037933690129194 L 228 48.06867527124177 L 229 45.22541216204917 L 230 42.509156530141354 L 231 39.92087532996885 L 232 37.46148995861779 L 233 35.13187592780446 L 234 32.93286255220312 L 235 30.86523265422022 L 236 28.92972228531835 L 237 27.1270204639917 L 238 25.4577689304831 L 239 23.922561918332235 L 240 22.52194594283577 L 241 21.256419606494433 L 242 20.126433421516538 L 243 19.13238964944094 L 244 18.274642157936682 L 245 17.55349629483061 L 246 16.96920877940687 L 247 16.521987611018346 L 248 16.21199199504082 L 249 16.039332286198373 L 250 16.004069949277948 L 251 16.10621753724888 L 252 16.345738686794107 L 253 16.72254813125511 L 254 17.236511730985683 L 255 17.887446521104266 L 256 18.675120776627182 L 257 19.599254094959747 L 258 20.659517495716557 L 259 21.855533537834162 L 260 23.18687645393618 L 261 24.653072301900693 L 262 26.253599133578348 L 263 27.987887180599444 L 264 29.855319057205122 L 265 31.855229980028582 L 266 33.98690800475043 L 267 36.24959427954235 L 268 38.64248331520895 L 269 41.164723271932814 L 270 43.81541626251851 L 271 46.593618672030345 L 272 49.49834149370747 L 273 52.528550681039064 L 274 55.68316751587167 L 275 58.96106899242062 L 276 62.361088217046074 L 277 65.88201482365406 L 278 69.52259540457118 L 279 73.28153395674343 L 280 77.15749234309732 L 281 81.14909076890154 L 282 85.25490827295607 L 283 89.47348323343817 L 284 93.80331388822185 L 285 98.24285886948792 L 286 102.79053775243136 L 287 107.44473161787431 L 288 112.20378362858145 L 289 117.06599961907517 L 290 122.02964869873699 L 291 127.0929638679844 L 292 132.25414264730136 L 293 137.51134771890025 L 294 142.86270758078354 L 295 148.3063172129771 L 296 153.8402387556939 L 297 159.46250219918994 L 298 165.17110608506263 L 299 170.9640182187468 L 300 176.83917639295134 L 301 182.79448912178128 L 302 188.82783638528002 L 303 194.93707038413208 L 304 201.12001630425348 L 305 207.37447309100065 L 306 213.69821423271748 L 307 220.0889885533484 L 308 226.54452101382913 L 309 233.06251352197467 L 310 239.64064575057066 L 311 246.27657596338346 L 312 252.96794184878945 L 313 259.71236136073077 L 314 266.5074335666936 L 315 273.35073950241224 L 316 280.2398430329912 L 317 287.1722917201409 L 318 294.1456176952146 L 319 301.15733853774134 L 320 308.2049581591375 L 321 315.285967691284 L 322 322.3978463796549 L 323 329.5380624806734 L 324 336.70407416298394 L 325 343.8933304123127 L 326 351.10327193959984 L 327 358.3313320920731 L 328 365.5749377669475 L 329 372.8315103274179 L 330 380.09846652062424 L 331 387.3732193972568 L 332 394.6531792324802 L 333 401.93575444784403 L 334 409.2183525338548 L 335 416.4983809728763 L 336 423.7732481620363 L 337 431.0403643358051 L 338 438.297142487923 L 339 445.54099929234064 L 340 452.7693560228543 L 341 459.97963947110014 L 342 467.16928286258747 L 343 474.3357267704372 L 344 481.4764200265089 L 345 488.58882062958503 L 346 495.6703966502946 L 347 502.7186271324474 L 348 509.73100299046575 L 349 516.7050279025879 L 350 523.6382191995302 L 351 530.528108748286 L 352 537.3722438307518 L 353 544.168188016866 L 354 550.9135220319489 L 355 557.6058446179345 L 356 564.2427733881905 L 357 570.8219456756188 L 358 577.3410193737378 L 359 583.7976737704425 L 360 590.1896103741515 L 361 596.5145537320416 L 362 602.7702522400832 L 363 608.9544789445827 L 364 615.0650323349514 L 365 621.0997371274183 L 366 627.0564450394043 L 367 632.9330355542841 L 368 638.7274166762663 L 369 644.4375256751175 L 370 650.061329820471 L 371 655.5968271054526 L 372 661.0420469593726 L 373 666.3950509492244 L 374 671.6539334697438 L 375 676.8168224217825 L 376 681.8818798787511 L 377 686.8473027409 L 378 691.7113233772014 L 379 696.4722102546052 L 380 701.1282685544425 L 381 705.677840775762 L 382 710.1193073253796 L 383 714.4510870944359 L 384 718.6716380212497 L 385 722.7794576402748 L 386 726.7730836169594 L 387 730.6510942683202 L 388 734.4121090690436 L 389 738.0547891429367 L 390 741.5778377395509 L 391 744.9800006958105 L 392 748.260066882478 L 393 751.4168686353031 L 394 754.4492821706963 L 395 757.3562279857829 L 396 760.136671242693 L 397 762.7896221369506 L 398 765.3141362498337 L 399 767.7093148845747 L 400 769.974305386286 L 401 772.108301445495 L 402 774.1105433851811 L 403 775.9803184312109 L 404 777.7169609660773 L 405 779.3198527658517 L 406 780.7884232202645 L 407 782.1221495358348 L 408 783.320556921979 L 409 784.3832187600308 L 410 785.3097567551118 L 411 786.0998410708007 L 412 786.7531904465503 L 413 787.2695722978133 L 414 787.6488027988394 L 415 787.8907469481154 L 416 787.995318616424 L 417 787.9624805775045 L 418 787.7922445213053 L 419 787.4846710498219 L 420 787.0398696555241 L 421 786.457998682377 L 422 785.7392652694734 L 423 784.8839252772943 L 424 783.8922831966254 L 425 782.7646920401626 L 426 781.5015532168429 L 427 780.103316388949 L 428 778.5704793120333 L 429 776.9035876577243 L 430 775.1032348194728 L 431 773.1700617013116 L 432 771.1047564897019 L 433 768.9080544085459 L 434 766.5807374574564 L 435 764.1236341333754 L 436 761.537619135637 L 437 758.8236130545874 L 438 755.9825820438634 L 439 753.0155374764545 L 440 749.9235355846668 L 441 746.7076770841155 L 442 743.369106781884 L 443 739.9090131689876 L 444 736.328627997282 L 445 732.6292258409776 L 446 728.8121236429042 L 447 724.8786802456953 L 448 720.8302959080584 L 449 716.6684118062967 L 450 712.3945095212697 L 451 708.0101105109683 L 452 703.5167755688917 L 453 698.9161042684273 L 454 694.2097343934175 L 455 689.3993413551316 L 456 684.4866375958386 L 457 679.473371979197 L 458 674.3613291676816 L 459 669.1523289872655 L 460 663.8482257795815 L 461 658.4509077418024 L 462 652.9622962544615 L 463 647.3843451974662 L 464 641.7190402545415 L 465 635.968398206347 L 466 630.1344662125294 L 467 624.2193210829591 L 468 618.2250685384075 L 469 612.1538424609398 L 470 606.0078041342745 L 471 599.7891414743942 L 472 593.500068250676 L 473 587.1428232978114 L 474 580.7196697188107 L 475 574.232894079367 L 476 567.6848055938619 L 477 561.077735303318 L 478 554.4140352455715 L 479 547.6960776179772 L 480 540.9262539329361 L 481 534.1069741665417 L 482 527.2406659006624 L 483 520.3297734587466 L 484 513.376757035675 L 485 506.38409182196307 L 486 499.3542671226181 L 487 492.28978547097915 L 488 485.19316173784694 L 489 478.0669222362152 L 490 470.9136038219391 L 491 463.73575299064004 L 492 456.5359249711859 L 493 449.3166828160622 L 494 442.080596488952 L 495 434.8302419498617 L 496 427.56820023811224 L 497 420.29705655351523 L 498 413.01939933607827 L 499 405.73781934454644 L 500 398.45490873412547 L 501 391.1732601337075 L 502 383.89546572292215 L 503 376.62411630935384 L 504 369.3618004062471 L 505 362.11110331102236 L 506 354.87460618494646 L 507 347.6548851342654 L 508 340.45451029314313 L 509 333.27604490872733 L 510 326.12204442865925 L 511 318.9950555913677 L 512 311.89761551946225 L 513 304.83225081654354 L 514 297.8014766677678 L 515 290.8077959444669 L 516 283.85369831315734 L 517 276.9416593492516 L 518 270.0741396557786 L 519 263.2535839874405 L 520 256.4824203803114 L 521 249.76305928748087 L 522 243.09789272096702 L 523 236.48929340018404 L 524 229.9396139072846 L 525 223.45118584967082 L 526 217.02631902996598 L 527 210.66730062375447 L 528 204.3763943653766 L 529 198.15583974206186 L 530 192.00785119670326 L 531 185.93461733953794 L 532 179.93830016903016 L 533 174.02103430222712 L 534 168.18492621485717 L 535 162.43205349145407 L 536 156.76446408575794 L 537 151.18417559166997 L 538 145.69317452501463 L 539 140.2934156163609 L 540 134.98682111516302 L 541 129.77528010546422 L 542 124.66064783340204 L 543 119.64474504676684 L 544 114.72935734683404 L 545 109.91623455271275 L 546 105.20709007843277 L 547 100.60360032298695 L 548 96.10740407355428 L 549 91.72010192211314 L 550 87.44325569564609 L 551 83.27838790015221 L 552 79.2269811786498 L 553 75.29047778337474 L 554 71.47027906235701 L 555 67.76774496055549 L 556 64.18419353573461 L 557 60.720900489253154 L 558 57.37909871192704 L 559 54.15997784513769 L 560 51.064683857331715 L 561 48.09431863607119 L 562 45.24993959577523 L 563 42.532559301291656 L 564 39.94314510743692 L 565 37.48261881463014 L 566 35.15185634074135 L 567 32.95168740927727 L 568 30.882895254007906 L 569 28.946216340145725 L 570 27.142340102173137 L 571 25.471908698410914 L 572 23.935516782418404 L 573 22.533711291304087 L 574 21.26699125102175 L 575 20.13580759872417 L 576 19.140563022234176 L 577 18.281611816692646 L 578 17.559259758434393 L 579 16.97376399613455 L 580 16.525332959267246 L 581 16.214126283907206 L 582 16.04025475590089 L 583 16.003780271428468 L 584 16.104715814969268 L 585 16.343025454679434 L 586 16.718624355183465 L 587 17.23137880777449 L 588 17.881106278012567 L 589 18.667575470705458 L 590 19.590506412246555 L 591 20.64957055028202 L 592 21.84439087067176 L 593 23.17454203170189 L 594 24.639550515500844 L 595 26.238894796606985 L 596 27.97200552762422 L 597 29.83826574190408 L 598 31.837011073177734 L 599 33.96752999206211 L 600 36.2290640593568 L 601 38.620808196038865 L 602 41.141910969860476 L 603 43.7914748984503 L 604 46.56855676880468 L 605 49.47216797306157 L 606 52.50127486043283 L 607 55.654799105170014 L 608 58.93161809043772 L 609 62.330565307950565 L 610 65.8504307732353 L 611 69.4899614563729 L 612 73.24786172805966 L 613 77.12279382083813 L 614 81.11337830532517 L 615 85.21819458127112 L 616 89.43578138327894 L 617 93.76463730099567 L 618 98.20322131359575 L 619 102.74995333836841 L 620 107.40321479320511 L 621 112.16134917279823 L 622 117.02266263833593 L 623 121.98542462048698 L 624 127.04786843546538 L 625 132.2081919139476 L 626 137.46455804262132 L 627 142.8150956181439 L 628 148.25789991326442 L 629 153.79103335488676 L 630 159.41252621382162 L 631 165.12037730598433 L 632 170.9125547047959 L 633 176.7869964645229 L 634 182.7416113543036 L 635 188.77427960260508 L 636 194.8828536518321 L 637 201.06515892283565 L 638 207.31899458903553 L 639 213.6421343598863 L 640 220.03232727341438 L 641 226.4872984975285 L 642 233.00475013983709 L 643 239.58236206566855 L 644 246.21779272400948 L 645 252.90867998107254 L 646 259.65264196118596 L 647 266.4472778947106 L 648 273.29016897269014 L 649 280.17887920791225 L 650 287.1109563020958 L 651 294.08393251887776 L 652 301.09532556229556 L 653 308.1426394604588 L 654 315.22336545408325 L 655 322.3349828895772 L 656 329.47496011636844 L 657 336.6407553881365 L 658 343.82981776764814 L 659 351.03958803485864 L 660 358.26749959796155 L 661 365.51097940706836 L 662 372.7674488701818 L 663 380.03432477114114 L 664 387.3090201892214 L 665 394.5889454200406 L 666 401.87150889746783 L 667 409.1541181161883 L 668 416.43418055460165 L 669 423.7091045977329 L 670 430.97630045981424 L 671 438.2331811062156 L 672 445.47716317440273 L 673 452.70566789357804 L 674 459.9161220026966 L 675 467.10595866651454 L 676 474.27261838934896 L 677 481.41354992623275 L 678 488.52621119112416 L 679 495.60807016185765 L 680 502.656605781518 L 681 509.66930885590074 L 682 516.6436829467601 L 683 523.5772452605091 L 684 530.4675275320624 L 685 537.3120769035127 L 686 544.1084567973172 L 687 550.8542477836878 L 688 557.5470484418837 L 689 564.1844762150834 L 690 570.7641682585506 L 691 577.2837822807768 L 692 583.7409973773072 L 693 590.1335148569591 L 694 596.4590590601238 L 695 602.7153781688777 L 696 608.9002450086016 L 697 615.0114578408256 L 698 621.0468411470258 L 699 627.0042464030803 L 700 632.8815528441172 L 701 638.6766682194848 L 702 644.3875295375634 L 703 650.0121038001697 L 704 655.5483887262781 L 705 660.9944134648066 L 706 666.3482392962203 L 707 671.6079603226897 L 708 676.7717041465671 L 709 681.83763253694 L 710 686.8039420840161 L 711 691.6688648411191 L 712 696.4306689540547 L 713 701.0876592776285 L 714 705.6381779791003 L 715 710.0806051283513 L 716 714.4133592745584 L 717 718.6348980091752 L 718 722.743718515007 L 719 726.7383581011986 L 720 730.617394723934 L 721 734.3794474926656 L 722 738.0231771616966 L 723 741.5472866069356 L 724 744.9505212876566 L 725 748.2316696931019 L 726 751.3895637737635 L 727 754.4230793571967 L 728 757.3311365482112 L 729 760.1127001132998 L 730 762.7667798491709 L 731 765.2924309352484 L 732 767.6887542700154 L 733 769.954896791085 L 734 772.0900517788798 L 735 774.093459143814 L 736 775.9644056968773 L 737 777.7022254035198 L 738 779.3062996207541 L 739 780.7760573173839 L 740 782.1109752772843 L 741 783.310578285661 L 742 784.37443929822 L 743 785.3021795931916 L 744 786.0934689061498 L 745 786.7480255475829 L 746 787.2656165031715 L 747 787.6460575167388 L 748 787.8892131558434 L 749 787.9949968599924 L 750 787.9633709714548 L 751 787.7943467486677 L 752 787.4879843622288 L 753 787.0443928734759 L 754 786.4637301956625 L 755 785.7462030377424 L 756 784.8920668307844 L 757 783.9016256370412 L 758 782.7752320417071 L 759 781.5132870274024 L 760 780.1162398314272 L 761 778.5845877858397 L 762 776.9188761404112 L 763 775.1196978685234 L 764 773.1876934560783 L 765 771.1235506734907 L 766 768.9280043308529 L 767 766.6018360163487 L 768 764.1458738180182 L 769 761.5609920289698 L 770 758.8481108361398 L 771 756.008195992719 L 772 753.0422584743546 L 773 749.951354119256 L 774 746.7365832523292 L 775 743.3990902934731 L 776 739.9400633501807 L 777 736.3607337945873 L 778 732.6623758251154 L 779 728.8463060128777 L 780 724.913882832991 L 781 720.8665061809761 L 782 716.7056168744141 L 783 712.4326961400284 L 784 708.0492650863891 L 785 703.5568841624158 L 786 698.9571526018751 L 787 694.2517078540752 L 788 689.4422250009502 L 789 684.5304161607535 L 790 679.5180298785642 L 791 674.4068505038244 L 792 669.1986975551331 L 793 663.8954250725205 L 794 658.4989209574292 L 795 653.011106300647 L 796 647.4339346984198 L 797 641.7693915569939 L 798 636.0194933858387 L 799 630.1862870797888 L 800 624.2718491903786 L 801 618.2782851866109 L 802 612.2077287054369 L 803 606.0623407922088 L 804 599.8443091313699 L 805 593.5558472676669 L 806 587.1991938181567 L 807 580.7766116752807 L 808 574.2903872013077 L 809 567.7428294144116 L 810 561.1362691666907 L 811 554.4730583144141 L 812 547.7555688807851 L 813 540.9861922115315 L 814 534.1673381236171 L 815 527.3014340473713 L 816 520.3909241623577 L 817 513.4382685272715 L 818 506.4459422041896 L 819 499.41643437748064 L 820 492.35224746768074 L 821 485.255896240664 L 822 478.129906912418 L 823 470.97681624973643 L 824 463.79917066716587 L 825 456.5995253205081 L 826 449.3804431972174 L 827 442.1444942040093 L 828 434.8942542520011 L 829 427.63230433971995 L 830 420.3612296343008 L 831 413.0836185511926 L 832 405.8020618327194 L 833 398.51915162580184 L 834 391.23748055918645 L 835 383.95964082050267 L 836 376.6882232334709 L 837 369.42581633560275 L 838 362.1750054567143 L 839 354.9383717985754 L 840 347.7184915160377 L 841 340.51793479995 L 842 333.33926496220306 L 843 326.1850375232233 L 844 319.05779930223395 L 845 311.9600875106203 L 846 304.8944288487146 L 847 297.86333860631635 L 848 290.86931976728476 L 849 283.9148621185018 L 850 277.00244136354024 L 851 270.1345182413416 L 852 263.3135376502269 L 853 256.5419277775352 L 854 249.82209923522254 L 855 243.15644420171208 L 856 236.5473355703058 L 857 229.9971261044681 L 858 223.50814760026245 L 859 217.08271005626526 L 860 210.7231008512325 L 861 204.43158392982056 L 862 198.21039899664763 L 863 192.06176071899077 L 864 185.98785793838334 L 865 179.9908528914189 L 866 174.0728804400193 L 867 168.2360473114486 L 868 162.4824313483476 L 869 156.8140807690403 L 870 151.23301343839708 L 871 145.74121614949792 L 872 140.34064391635678 L 873 135.03321927796424 L 874 129.82083161388044 L 875 124.70533647164268 L 876 119.68855490621178 L 877 114.77227283169827 L 878 109.95824038559772 L 879 105.24817130576588 L 880 100.6437423203435 L 881 96.14659255086491 L 882 91.75832292874901 L 883 87.48049562538665 L 884 83.3146334960291 L 885 79.26221953766532 L 886 75.32469636109579 L 887 71.50346567737967 L 888 67.7998877988419 L 889 64.21528115482067 L 890 60.75092182231862 L 891 57.40804307173744 L 892 54.18783492784752 L 893 51.09144374615346 L 894 48.119971804804834 L 895 45.2744769122005 L 896 42.55597203041788 L 897 39.96542491461349 L 898 37.5037577685124 L 899 35.17184691611487 L 900 32.97052248973705 L 901 30.900568134491095 L 902 28.96272072931879 L 903 27.157670124671085 L 904 25.48605889692925 L 905 23.94848211965649 L 906 22.54548715175713 L 907 21.277573442624657 L 908 20.145192354343465 L 909 19.148747001009156 L 910 18.288592105225177 L 911 17.565033871825392 L 912 16.978329878868806 L 913 16.528688985945337 L 914 16.216271259823714 L 915 16.041187917470097 L 916 16.003501286456128 L 917 16.10322478277061 L 918 16.34032290604415 L 919 16.714711252186362 L 920 17.226256543433408 L 921 17.87477667579219 L 922 18.66004078386834 L 923 19.581769323050878 L 924 20.639634169026806 L 925 21.83325873458989 L 926 23.16221810370007 L 927 24.62603918274982 L 928 26.224200868979153 L 929 27.956134235981892 L 930 29.82122273623679 L 931 31.81880242059151 L 932 33.94816217461886 L 933 36.20854397176737 L 934 38.59914314320821 L 935 41.11910866428798 L 936 43.76754345748378 L 937 46.54350471174996 L 938 49.44600421815085 L 939 52.47400872164883 L 940 55.6264402889318 L 941 58.90217669214451 L 942 62.300051808386456 L 943 65.81885603484062 L 944 69.4573367193758 L 945 73.2141986064758 L 946 77.08810429833545 L 947 81.07767473095822 L 948 85.18148966508409 L 949 89.39808819178205 L 950 93.72596925251304 L 951 98.16359217348946 L 952 102.70937721413787 L 953 107.36170612946387 L 954 112.11892274613302 L 955 116.97933355204566 L 956 121.94120829920763 L 957 127.00278061967833 L 958 132.1622486543734 L 959 137.41777569451028 L 960 142.7674908354507 L 961 148.2094896427216 L 962 153.74183482997157 L 963 159.36255694861762 L 964 165.0696550889517 L 965 170.86109759243595 L 966 176.73482277495032 L 967 182.6887396607271 L 968 188.7207287267145 L 969 194.82864265709688 L 970 201.01030710772022 L 971 207.26352148012802 L 972 213.58605970494924 L 973 219.97567103435347 L 974 226.4300808432852 L 975 232.94699143921056 L 976 239.52408288006336 L 977 246.1590138001178 L 978 252.8494222434881 L 979 259.59292650495127 L 980 266.387125977813 L 981 273.2296020084905 L 982 280.1179187575244 L 983 287.04962406670967 L 984 294.0222503320346 L 985 301.03331538211404 L 986 308.0803233618198 L 987 315.16076562077035 L 988 322.27212160638146 L 989 329.411859761154 L 990 336.5774384238729 L 991 343.7663067344157 L 992 350.9759055418234 L 993 358.2036683153284 L 994 365.44702205801036 L 995 372.7033882227465 L 996 379.97018363015206 L 997 387.24482138815534 L 998 394.52471181290184 L 999 401.80726335065077 L 1000 409.08988350033826 L 1001 416.3699797364713 L 1002 423.6449604320441 L 1003 430.9122357811205 L 1004 438.16921872077535 L 1005 445.41332585205936 L 1006 452.64197835965246 L 1007 459.8526029298996 L 1008 467.04263266687394 L 1009 474.20950800616254 L 1010 481.3506776260417 L 1011 488.46359935571195 L 1012 495.54574108028794 L 1013 502.5945816421961 L 1014 509.6076117386775 L 1015 516.5823348150711 L 1016 523.5162679535522 L 1017 530.4069427570284 L 1018 537.2519062278557 L 1019 544.0487216410756 L 1020 550.7949694118622 L 1021 557.4882479568646 L 1022 564.1261745491381 L 1023 570.7063861663734 L 1024 577.2265403320993 L 1025 583.6843159495778 L 1026 590.0774141280873 L 1027 596.403559001296 L 1028 602.6604985374499 L 1029 608.846005341064 L 1030 614.9578774458506 L 1031 620.9939390985928 L 1032 626.952041533683 L 1033 632.8300637380638 L 1034 638.6259132062795 L 1035 644.3375266853832 L 1036 649.9628709094306 L 1037 655.4999433232996 L 1038 660.9467727955712 L 1039 666.301420320235 L 1040 671.5619797069486 L 1041 676.7265782596185 L 1042 681.7933774430594 L 1043 686.7605735374863 L 1044 691.6263982806229 L 1045 696.389119497178 L 1046 701.0470417154804 L 1047 705.5985067710469 L 1048 710.0418943968662 L 1049 714.3756228001984 L 1050 718.5981492256724 L 1051 722.7079705044882 L 1052 726.7036235895272 L 1053 730.5836860761802 L 1054 734.3467767087036 L 1055 737.9915558719341 L 1056 741.5167260681725 L 1057 744.9210323790785 L 1058 748.2032629124074 L 1059 751.3622492334255 L 1060 754.3968667808642 L 1061 757.3060352672471 L 1062 760.0887190634594 L 1063 762.7439275674212 L 1064 765.2707155567269 L 1065 767.6681835251368 L 1066 769.935478002788 L 1067 772.0717918600203 L 1068 774.0763645947048 L 1069 775.9484826029723 L 1070 777.6874794332498 L 1071 779.2927360235076 L 1072 780.7636809216391 L 1073 782.0997904888898 L 1074 783.3005890862676 L 1075 784.3656492438627 L 1076 785.2945918130245 L 1077 786.0870861013316 L 1078 786.7428499903158 L 1079 787.2616500358918 L 1080 787.6433015514613 L 1081 787.8876686736587 L 1082 787.9946644107176 L 1083 787.9642506734377 L 1084 787.7964382887452 L 1085 787.4912869958376 L 1086 787.0489054249181 L 1087 786.4694510585238 L 1088 785.7531301754643 L 1089 784.9001977773887 L 1090 783.9109574980084 L 1091 782.7857614950067 L 1092 781.5250103246749 L 1093 780.1291527993196 L 1094 778.5986858274903 L 1095 776.9341542370855 L 1096 775.1361505814027 L 1097 773.2053149281937 L 1098 771.1423346318097 L 1099 768.9479440885111 L 1100 766.622924475031 L 1101 764.1681034704869 L 1102 761.5843549617348 L 1103 758.872598732277 L 1104 756.0338001348307 L 1105 753.0689697476732 L 1106 749.9791630148881 L 1107 746.7654798706413 L 1108 743.4290643476156 L 1109 739.9711041697498 L 1110 736.3928303294228 L 1111 732.6955166492355 L 1112 728.8804793285465 L 1113 724.9490764749175 L 1114 720.9027076206464 L 1115 716.7428132245486 L 1116 712.4708741591719 L 1117 708.0884111836253 L 1118 703.5969844022031 L 1119 698.9981927090091 L 1120 694.293673218769 L 1121 689.4851006840361 L 1122 684.5741868990035 L 1123 679.5626800901198 L 1124 674.4523642937454 L 1125 669.2450587210562 L 1126 663.9426171104258 L 1127 658.5469270675162 L 1128 653.0599093933166 L 1129 647.4835174003557 L 1130 641.8197362173491 L 1131 636.0705820825169 L 1132 630.238101625826 L 1133 624.3243711404176 L 1134 618.3314958434671 L 1135 612.2616091267548 L 1136 606.1168717972037 L 1137 599.8994713076562 L 1138 593.6116209781728 L 1139 587.2555592081092 L 1140 580.8335486792771 L 1141 574.3478755504564 L 1142 567.8008486435492 L 1143 561.1947986216665 L 1144 554.532077159444 L 1145 547.8150561058678 L 1146 541.0461266399285 L 1147 534.2276984193896 L 1148 527.3621987229767 L 1149 520.4520715863003 L 1150 513.4997769318013 L 1151 506.5077896930526 L 1152 499.4785989337113 L 1153 492.4147069614407 L 1154 485.3186284371241 L 1155 478.1928894796675 L 1156 471.0400267667369 L 1157 463.86258663173015 L 1158 456.66312415731295 L 1159 449.4442022658383 L 1160 442.20839080698283 L 1161 434.9582656429023 L 1162 427.6964077312616 L 1163 420.4254022064431 L 1164 413.14783745926826 L 1165 405.8663042155675 L 1166 398.5833946139041 L 1167 391.30170128280974 L 1168 384.0238164178383 L 1169 376.7523308587741 L 1170 369.4898331673292 L 1171 362.2389087056386 L 1172 355.00213871590745 L 1173 347.78209940151845 L 1174 340.5813610099333 L 1175 333.4024869177203 L 1176 326.24803271801534 L 1177 319.1205453107665 L 1178 312.022561996067 L 1179 304.9566095709067 L 1180 297.92520342966134 L 1181 290.9308466686477 L 1182 283.9760291950431 L 1183 277.06322684051383 L 1184 270.19490047984743 L 1185 263.3734951549093 L 1186 256.6014392042423 L 1187 249.88114339859965 L 1188 243.21500008274472 L 1189 236.60538232380338 L 1190 230.05464306647957 L 1191 223.56511429543994 L 1192 217.13910620514804 L 1193 210.77890637746748 L 1194 204.48677896730922 L 1195 198.26496389661932 L 1196 192.11567605699273 L 1197 186.0411045212026 L 1198 180.04341176391011 L 1199 174.12473289185385 L 1200 168.28717488377612 L 1201 162.53281584036296 L 1202 156.8637042444693 L 1203 151.2818582318772 L 1204 145.78926487286805 L 1205 140.3878794648483 L 1206 135.07962483628603 L 1207 129.8663906622109 L 1208 124.75003279150661 L 1209 119.73237258625505 L 1210 114.815196273352 L 1211 110.0002543086319 L 1212 105.28926075372567 L 1213 100.68389266587889 L 1214 96.18578950093394 L 1215 91.79655252970736 L 1216 87.51774426795532 L 1217 83.35088792013619 L 1218 79.2974668371711 L 1219 75.3589239883841 L 1220 71.53666144782551 L 1221 67.83203989514942 L 1222 64.24637813122757 L 1223 60.78095260867474 L 1224 57.43699697744273 L 1225 54.215701645658555 L 1226 51.11821335585273 L 1227 48.145634776732095 L 1228 45.299024110645234 L 1229 42.57939471687183 L 1230 39.9877147508808 L 1231 37.52490681967868 L 1232 35.19184765337167 L 1233 32.98936779306081 L 1234 30.91825129518014 L 1235 28.979235452379896 L 1236 27.173010531060754 L 1237 25.500219525646912 L 1238 23.961457929687413 L 1239 22.557273523868787 L 1240 21.2881661810099 L 1241 20.154587688114304 L 1242 19.156941585539528 L 1243 18.29558302334101 L 1244 17.570818634843647 L 1245 16.98290642748327 L 1246 16.532055690959396 L 1247 16.21842692273094 L 1248 16.042131770880246 L 1249 16.00323299436866 L 1250 16.101744440694347 L 1251 16.33763104096306 L 1252 16.710808822372258 L 1253 17.221144938104317 L 1254 17.868457714618614 L 1255 18.65251671632467 L 1256 19.573042827614813 L 1257 20.62970835222626 L 1258 21.82213712989642 L 1259 23.14990467027212 L 1260 24.61253830402194 L 1261 26.209517351102306 L 1262 27.940273306112488 L 1263 29.804190040675735 L 1264 31.800604022773882 L 1265 33.92880455295699 L 1266 36.18803401734215 L 1267 38.57748815731759 L 1268 41.09631635584742 L 1269 43.74362194028146 L 1270 46.51846250156029 L 1271 49.41985022969993 L 1272 52.446752265443195 L 1273 55.59809106794307 L 1274 58.872744798355086 L 1275 62.2695477191989 L 1276 65.78729060934461 L 1277 69.42472119448439 L 1278 73.18054459292512 L 1279 77.05342377655069 L 1280 81.04198004678966 L 1281 85.14479352541156 L 1282 89.36040365999139 L 1283 93.68730974384584 L 1284 98.12397145026756 L 1285 102.66880938086297 L 1286 107.32020562780008 L 1287 112.0765043497608 L 1288 116.93601236140574 L 1289 121.89699973612454 L 1290 126.95770042186979 L 1291 132.1163128698514 L 1292 137.37100067586266 L 1293 142.71989323402357 L 1294 148.16108640269053 L 1295 153.6926431823088 L 1296 159.31259440496234 L 1297 165.0189394353695 L 1298 170.80964688309174 L 1299 176.68265532567997 L 1300 182.6358740425173 L 1301 188.66718375909065 L 1302 194.7744374014279 L 1303 200.95546086042634 L 1304 207.208053765816 L 1305 213.52999026946057 L 1306 219.91901983773394 L 1307 226.3728680526843 L 1308 232.88923742169482 L 1309 239.4658081953708 L 1310 246.10023919333779 L 1311 252.79016863767495 L 1312 259.53321499368093 L 1313 266.3269778176667 L 1314 273.1690386114922 L 1315 280.0569616835178 L 1316 286.98829501568235 L 1317 293.9605711363925 L 1318 300.97130799891414 L 1319 308.01800986494607 L 1320 315.0981681930808 L 1321 322.20926253181017 L 1322 329.34876141677677 L 1323 336.5141232719467 L 1324 343.70279731437455 L 1325 350.9122244622596 L 1326 358.1398382459431 L 1327 365.3830657215418 L 1328 372.6393283868868 L 1329 379.90604309943353 L 1330 387.18062299583823 L 1331 394.4604784128444 L 1332 401.7430178091735 L 1333 409.02564868808406 L 1334 416.3057785202634 L 1335 423.58081566674605 L 1336 430.8481703014999 L 1337 438.10525533337517 L 1338 445.3494873270775 L 1339 452.57828742284147 L 1340 459.78908225446827 L 1341 466.97930486542145 L 1342 474.14639562262715 L 1343 481.28780312767424 L 1344 488.4009851250829 L 1345 495.4834094073117 L 1346 502.5325547162011 L 1347 509.5459116405061 L 1348 516.5209835092174 L 1349 523.4552872803483 L 1350 530.346354424862 L 1351 537.1917318054468 L 1352 543.9889825497975 L 1353 550.7356869181152 L 1354 557.4294431645048 L 1355 564.0678683919693 L 1356 570.6485994006874 L 1357 577.1692935292923 L 1358 583.6276294888254 L 1359 590.021308189089 L 1360 596.348053557096 L 1361 602.6056133473198 L 1362 608.7917599434738 L 1363 614.9042911515116 L 1364 620.9410309835826 L 1365 626.8998304326584 L 1366 632.7785682375502 L 1367 638.5751516380576 L 1368 644.287517119963 L 1369 649.9136311496181 L 1370 655.4514908978581 L 1371 660.8991249529855 L 1372 666.254594022565 L 1373 671.5159916237951 L 1374 676.6814447621879 L 1375 681.7491145983348 L 1376 686.7171971025118 L 1377 691.5839236968886 L 1378 696.3475618851267 L 1379 701.0064158691239 L 1380 705.5588271526988 L 1381 710.0031751319965 L 1382 714.3378776724007 L 1383 718.5613916717598 L 1384 722.6722136097094 L 1385 726.6688800829081 L 1386 730.549968325993 L 1387 734.314096718063 L 1388 737.959925274525 L 1389 741.4861561241086 L 1390 744.8915339708935 L 1391 748.1748465411804 L 1392 751.3349250150454 L 1393 754.3706444424247 L 1394 757.2809241435863 L 1395 760.0647280938365 L 1396 762.7210652923332 L 1397 765.2489901148708 L 1398 767.647602650509 L 1399 769.9160490219332 L 1400 772.0535216894227 L 1401 774.059259738326 L 1402 775.9325491499368 L 1403 777.6727230556755 L 1404 779.2791619744883 L 1405 780.7512940333734 L 1406 782.0885951709614 L 1407 783.2905893240752 L 1408 784.3568485972025 L 1409 785.2869934148209 L 1410 786.0806926565233 L 1411 786.7376637748924 L 1412 787.2576728960839 L 1413 787.6405349030831 L 1414 787.8861135016039 L 1415 787.9943212686087 L 1416 787.9651196834293 L 1417 787.79851914148 L 1418 787.4945789505571 L 1419 787.0534073097257 L 1420 786.4751612708025 L 1421 785.760046682447 L 1422 784.9083181168819 L 1423 783.9202787792688 L 1424 782.7962803997692 L 1425 781.536723108336 L 1426 780.1420552922685 L 1427 778.6127734365941 L 1428 776.9494219473248 L 1429 775.1525929576549 L 1430 773.2229261171701 L 1431 771.1611083641382 L 1432 768.967873680968 L 1433 766.6440028329206 L 1434 764.1903230901655 L 1435 761.6077079332845 L 1436 758.89707674232 L 1437 756.0593944694888 L 1438 753.0956712956701 L 1439 750.0069622707924 L 1440 746.7943669382514 L 1441 743.4590289434815 L 1442 740.0021356268344 L 1443 736.4249176008996 L 1444 732.7286483124208 L 1445 728.914643588964 L 1446 724.9842611705008 L 1447 720.9389002260652 L 1448 716.7800008556695 L 1449 712.5090435776447 L 1450 708.1275488015926 L 1451 703.6370762871429 L 1452 699.039224588691 L 1453 694.3356304863355 L 1454 689.5279684032039 L 1455 684.6179498093763 L 1456 679.6073226126271 L 1457 674.497870536184 L 1458 669.2914124837492 L 1459 663.9898018919894 L 1460 658.5949260707346 L 1461 653.1087055311182 L 1462 647.5330933019009 L 1463 641.8700742342113 L 1464 636.1216642949654 L 1465 630.2899098492063 L 1466 624.3768869316211 L 1467 618.3847005075028 L 1468 612.3154837233997 L 1469 606.171397147747 L 1470 599.954628001728 L 1471 593.6673893806487 L 1472 587.3119194661074 L 1473 580.8904807292213 L 1474 574.4053591252191 L 1475 567.8588632796668 L 1476 561.2533236666251 L 1477 554.5910917790266 L 1478 547.8745392915782 L 1479 541.1060572164655 L 1480 534.2880550521863 L 1481 527.4229599257965 L 1482 520.5132157288807 L 1483 513.5612822475616 L 1484 506.56963428683747 L 1485 499.54076078958656 L 1486 492.47716395053214 L 1487 485.3813583254895 L 1488 478.2558699362196 L 1489 471.1032353711881 L 1490 463.92600088257484 L 1491 456.7267214798378 L 1492 449.5079600201588 L 1493 442.27228629610244 L 1494 435.0222761207928 L 1495 427.76051041096 L 1496 420.4895742681637 L 1497 413.21205605852765 L 1498 405.9305464913112 L 1499 398.64763769665325 L 1500 391.36592230279683 L 1501 384.08799251314997 L 1502 376.8164391834909 L 1503 369.5538508996532 L 1504 362.3028130560257 L 1505 355.0659069351747 L 1506 347.8457087889442 L 1507 340.6447889213393 L 1508 333.4657107735276 L 1509 326.3110300112903 L 1510 319.1832936152278 L 1511 312.0850389740703 L 1512 305.0187929813966 L 1513 297.9870711360903 L 1514 290.9923766468511 L 1515 284.0371995410875 L 1516 277.12401577848914 L 1517 270.2552863696203 L 1518 263.4334564998279 L 1519 256.660954658784 L 1520 249.9401917759772 L 1521 243.2735603624435 L 1522 236.66343365906565 L 1523 230.11216479172697 L 1524 223.62208593362521 L 1525 217.195507475052 L 1526 210.83471720091407 L 1527 204.5419794763142 L 1528 198.31953444046303 L 1529 192.16959720921673 L 1530 186.09435708652072 L 1531 180.09597678504844 L 1532 174.17659165629487 L 1533 168.33830893042122 L 1534 162.58320696610545 L 1535 156.91333451067018 L 1536 151.33070997075765 L 1537 145.83732069379454 L 1538 140.43512226052457 L 1539 135.12603778884392" stroke-linecap="round" stroke-linejoin="round" stroke-miterlimit="10" stroke-width="16"/></g></svg>